<svg width="201" height="188" viewBox="0 0 201 188" fill="none" xmlns="http://www.w3.org/2000/svg">
<path d="M5.3681 25.4649C21.8082 -9.54772 80.2057 -4.61155 102.742 20.0162C125.279 44.644 132.607 60.4244 152.935 51.2354C173.262 42.0464 199.186 44.4968 200.647 73.7191C202.108 102.941 178.369 137.477 140.535 147.685C102.701 157.893 102.742 194.078 52.7093 186.78C25.4308 182.798 24.8123 153.287 28.6647 128.877C32.517 104.467 -13.705 66.0792 5.3681 25.4649Z" fill="#EC396F"/>
<path opacity="0.9" d="M5.3681 25.4649C21.8082 -9.54772 80.2057 -4.61155 102.742 20.0162C125.279 44.644 132.607 60.4244 152.935 51.2354C173.262 42.0464 199.186 44.4968 200.647 73.7191C202.108 102.941 178.369 137.477 140.535 147.685C102.701 157.893 102.742 194.078 52.7093 186.78C25.4308 182.798 24.8123 153.287 28.6647 128.877C32.517 104.467 -13.705 66.0792 5.3681 25.4649Z" fill="white"/>
</svg>
