<svg width="199" height="193" viewBox="0 0 199 193" fill="none" xmlns="http://www.w3.org/2000/svg">
<path d="M29.1439 176.174C-9.71464 153.74 -9.71464 117.384 29.1439 94.9298C68.0025 72.4753 131.002 72.4998 169.856 94.9298C208.711 117.36 208.715 153.74 169.856 176.174C130.998 198.609 67.9984 198.609 29.1439 176.174Z" fill="#FAFAFA"/>
<path d="M140.74 130.542C140.822 131.592 140.957 132.535 140.549 133.69C139.965 135.348 138.728 136.107 138.001 136.76C137.184 137.516 136.473 138.379 135.886 139.324C135.368 140.141 135.155 141.125 133.677 142.084C132.914 142.578 129.934 142.966 128.448 142.023C127.59 141.476 127.198 141.276 127.255 139.781C127.313 138.287 133.51 138.095 133.51 138.095L140.74 130.542Z" fill="#F0F0F0"/>
<path d="M127.832 135.323C127.448 135.47 127.35 136.205 127.289 137.671C127.244 138.777 126.779 140.398 128.305 141.096C129.53 141.66 131.837 142.321 134.001 140.561C135.291 139.508 135.744 138.112 137.222 136.519C138.508 135.14 139.847 134.674 140.419 131.918C140.786 130.146 140.496 129.412 139.304 128.901C137.671 128.203 135.087 130.489 133.801 130.849C132.694 131.159 128.22 135.176 127.832 135.323Z" fill="#DBE0ED"/>
<path d="M133.801 130.849C133.87 130.849 133.944 130.8 134.017 130.771C134.762 130.812 135.483 131.049 136.107 131.459C136.731 131.868 137.235 132.435 137.569 133.103C137.79 133.584 137.116 133.96 136.716 133.584C135.797 131.764 133.915 131.359 133.164 131.27C133.346 131.088 133.562 130.944 133.801 130.849Z" fill="#FAFAFA"/>
<path d="M132.741 131.682C133.441 131.759 134.11 132.011 134.686 132.415C135.263 132.819 135.728 133.362 136.04 133.993C136.26 134.475 135.587 134.85 135.186 134.475C134.886 133.911 134.465 133.421 133.954 133.039C133.442 132.657 132.852 132.393 132.227 132.266C132.402 132.058 132.57 131.858 132.741 131.682Z" fill="#FAFAFA"/>
<path d="M139.669 133.96C139.669 133.96 139.543 130.694 135.105 130.22L134.852 130.363C135.344 129.551 136.121 128.951 137.032 128.681C138.51 128.273 139.673 128.681 140.449 129.661C141.225 130.641 140.437 133.319 139.669 133.96Z" fill="#FAFAFA"/>
<path d="M162.318 146.003C162.493 146.583 162.508 147.2 162.363 147.788C162.191 148.147 161.138 149.327 158.938 149.759C156.737 150.192 153.753 149.759 152.463 149.678C151.172 149.596 147.114 150.086 145.824 150.27C143.783 150.543 142.24 150.102 141.484 149.368C141.361 149.221 141.269 149.05 141.216 148.866C141.164 148.681 141.151 148.488 141.178 148.298C141.185 147.81 141.258 147.325 141.394 146.857L162.318 146.003Z" fill="#F0F0F0"/>
<path d="M141.625 145.24C141.425 146.103 141.361 146.991 141.438 147.874C141.699 148.515 142.413 148.866 142.993 149.049C144.516 149.535 145.679 149.458 147.37 149.135C149.071 148.888 150.791 148.783 152.51 148.821C153.841 148.911 155.67 149.164 157.001 149.041C158.132 148.994 159.248 148.767 160.308 148.368C161.193 147.988 162.1 147.502 162.32 146.588C162.582 144.665 161.773 143.811 160.859 143.276C159.944 142.742 158.65 142.782 157.266 142.689C156.009 142.603 155.098 142.603 153.979 142.517C153.016 142.469 152.06 142.332 151.122 142.109C150.281 141.843 149.415 140.774 149.06 140.733C149.06 140.733 143.475 140.692 142.936 140.733C142.324 140.786 141.76 141.623 141.756 143.852C141.752 144.077 141.658 145.073 141.625 145.24Z" fill="#DBE0ED"/>
<path d="M158.939 148.788C159.114 147.4 159.347 144.395 156.791 142.664H156.469C157.621 142.329 158.844 142.329 159.996 142.664C162.037 143.207 162.948 144.857 162.446 146.6C162.438 146.58 161.968 148.274 158.939 148.788Z" fill="#FAFAFA"/>
<path d="M151.484 142.219C152.301 142.95 152.595 144.616 152.595 144.616C152.705 145.241 153.82 145.33 153.726 144.73C153.553 143.901 153.222 143.114 152.75 142.411C152.362 142.207 151.916 142.139 151.484 142.219Z" fill="#FAFAFA"/>
<path d="M153.805 142.504C154.427 143.115 154.834 143.912 154.964 144.774C155.078 145.37 156.022 145.362 155.952 144.774C155.952 144.774 155.846 143.3 154.964 142.61C154.794 142.5 154.6 142.432 154.398 142.414C154.196 142.395 153.992 142.426 153.805 142.504Z" fill="#FAFAFA"/>
<path d="M126.119 110.076C126.119 103.863 126.495 101.552 126.495 101.552C126.495 101.552 125.952 91.5697 126.168 82.8451C126.495 69.846 125.923 68.7722 128.985 63.4321C132.394 66.2614 144.867 67.2902 152.44 65.5184C152.656 80.1342 152.55 101.67 152.26 105.528C151.97 109.386 151.664 112.261 151.35 121.373C151.121 127.97 151.191 142.194 151.191 142.194C148.267 146.199 141.617 143.827 141.617 143.827C141.617 143.827 139.539 119.822 139.722 115.376C139.943 109.946 140.168 106.802 140.168 106.802C140.168 106.802 139.351 95.4849 138.979 92.6557C138.979 92.6557 138.526 97.0118 138.236 100.866C137.947 104.72 137.808 106.373 137.42 113.522C137.012 120.85 136.105 135.287 136.105 135.287C133.325 138.071 127.213 136.564 127.213 136.564C127.213 136.564 126.119 114.477 126.119 110.076Z" fill="#DBE0ED"/>
<path opacity="0.1" d="M126.119 110.076C126.119 103.863 126.495 101.552 126.495 101.552C126.495 101.552 125.952 91.5697 126.168 82.8451C126.495 69.846 125.923 68.7722 128.985 63.4321C132.394 66.2614 144.867 67.2902 152.44 65.5184C152.656 80.1342 152.55 101.67 152.26 105.528C151.97 109.386 151.664 112.261 151.35 121.373C151.121 127.97 151.191 142.194 151.191 142.194C148.267 146.199 141.617 143.827 141.617 143.827C141.617 143.827 139.539 119.822 139.722 115.376C139.943 109.946 140.168 106.802 140.168 106.802C140.168 106.802 139.351 95.4849 138.979 92.6557C138.979 92.6557 138.526 97.0118 138.236 100.866C137.947 104.72 137.808 106.373 137.42 113.522C137.012 120.85 136.105 135.287 136.105 135.287C133.325 138.071 127.213 136.564 127.213 136.564C127.213 136.564 126.119 114.477 126.119 110.076Z" fill="black"/>
<path opacity="0.18" d="M138.976 92.656L137.49 80.8163C134.579 80.706 131.778 79.6738 129.492 77.8687C129.492 77.8687 130.57 80.8694 135.804 82.4902L137.911 92.6764L138.262 100.47L138.976 92.656Z" fill="black"/>
<path d="M142.021 33.3925V40.529L133.859 40.0922L134.096 31.6982L142.021 33.3925Z" fill="#F5F5F5"/>
<path d="M130.613 35.3889C128.119 35.1072 123.938 36.4095 122.424 40.4024C121.946 41.6598 121.358 44.783 121.811 48.2574C122.264 51.7317 122.705 54.0792 123.685 59.3172C124.281 62.5139 125.143 63.7796 127.662 62.9916C129.813 62.333 131.89 61.4518 133.859 60.3624L130.613 35.3889Z" fill="#DBE0ED"/>
<path d="M124.687 39.8226C125.532 37.814 128.333 35.001 131.868 35.397C132.836 35.5073 133.991 35.6706 133.991 35.6706C134.306 36.9607 138.654 37.7976 142.026 37.0015C143.569 37.3281 146.795 37.8874 147.64 38.1691C150.065 38.9857 151.24 41.4067 151.751 50.1925C152.073 55.7776 153.065 63.0447 153.07 67.9479C153.07 68.8012 153.192 73.2145 153.192 73.2145C148.926 75.4641 140.405 75.3906 135.714 74.966C131.632 74.5985 128.259 73.5003 126.471 71.6999C124.683 69.8994 125.728 66.8007 125.981 62.3792C126.169 59.1131 126.169 57.3657 125.083 52.3073C123.572 45.3056 123.699 42.1824 124.687 39.8226Z" fill="#F0F0F0"/>
<path d="M147.188 38.0376C151.082 39.0542 152.638 40.2708 154.018 43.888C155.083 46.6765 159.836 55.1765 161.301 60.3941C161.738 61.9537 162.281 64.6033 160.485 65.9302C158.59 67.3224 153.071 67.404 153.071 67.404C153.026 65.4484 152.903 63.5255 152.736 61.623L146.612 51.0694C145.264 48.7868 144.639 46.1492 144.82 43.5043C144.967 41.5813 145.518 39.2093 147.188 38.0376Z" fill="#DBE0ED"/>
<path opacity="0.15" d="M152.734 61.623C152.792 62.2844 152.836 62.9458 152.881 63.6113C153.8 64.2384 154.92 64.4977 156.021 64.338C154.559 64.0359 153.102 62.4926 152.734 61.623Z" fill="black"/>
<path d="M147.273 23.7412C147.273 23.7412 149.131 26.5623 148.906 26.8399C148.682 27.1176 147.331 27.3666 147.331 27.3666L147.273 23.7412Z" fill="#DBE0ED"/>
<path d="M142.101 15.9437C145.861 16.7357 147.363 17.838 147.596 24.26C147.82 30.5065 147.036 32.5641 146.216 33.4051C145.661 33.9726 142.586 34.0747 141.035 33.6501C139.092 33.1112 134.703 31.5557 132.649 28.4162C130.228 24.7418 129.595 19.7201 132.184 17.6666C135.838 14.7761 140.574 15.6212 142.101 15.9437Z" fill="#F5F5F5"/>
<path d="M146.217 33.4166C145.764 33.882 143.613 34.0331 142 33.8249L142.02 32.894C143.359 33.3938 144.797 33.5728 146.217 33.4166Z" fill="#DBE0ED"/>
<path d="M148.321 14.6652C148.083 14.6101 147.836 14.6018 147.594 14.6407C146.902 14.7848 146.192 14.826 145.488 14.7632C145.806 14.4284 146.435 13.7384 146.476 13.1301C146.5 12.9936 146.484 12.8529 146.43 12.7253C146.375 12.5977 146.285 12.4887 146.17 12.4116C145.961 12.3451 145.734 12.3612 145.537 12.4565C145.02 12.6193 144.496 12.7556 143.965 12.8648C140.748 13.5874 137.702 11.64 134.448 12.4034C132.268 12.9015 130.366 13.9916 129.998 16.4167C128.169 17.8048 126.54 21.1729 128.904 26.4355C130.023 28.9218 131.946 31.0039 134.056 33.229C135.682 33.7493 137.419 33.8143 139.078 33.4168C141.45 31.0611 141.119 27.6766 141.119 27.6766C141.119 27.6766 139.805 29.0973 138.262 26.9989C137.314 25.721 137.608 22.6304 139.972 22.8876C140.599 22.9791 141.171 23.299 141.577 23.7858C141.892 24.2051 142.159 24.6583 142.373 25.1372C142.415 25.2282 142.483 25.3053 142.567 25.3593C142.652 25.4133 142.75 25.442 142.85 25.442C142.951 25.442 143.049 25.4133 143.134 25.3593C143.218 25.3053 143.286 25.2282 143.328 25.1372C143.466 24.8882 143.527 24.6042 143.504 24.3207C143.494 23.4158 143.275 22.5256 142.863 21.72C143.532 21.538 144.113 21.1186 144.496 20.5401C144.77 20.1185 144.904 19.6215 144.88 19.1194C146.008 19.2888 147.158 19.0152 148.088 18.3559C148.422 18.0577 148.688 17.6928 148.871 17.2848C149.054 16.8769 149.149 16.435 149.15 15.988C149.171 15.7079 149.102 15.4283 148.953 15.1903C148.804 14.9522 148.583 14.7682 148.321 14.6652Z" fill="#DBE0ED"/>
<path d="M164.974 44.8472C160.409 45.7698 159.728 49.4565 158.723 55.9642C157.719 62.4719 157.458 64.7949 157.584 67.4405C157.711 70.0861 158.809 77.7328 158.56 80.5989C158.238 83.7895 158.645 87.0117 159.752 90.0216C160.687 91.5485 162.79 93.4061 164.631 93.402C165.345 93.3693 165.615 92.7202 165.333 92.1078C165.015 91.6587 163.435 83.1464 165.243 85.4286C165.524 86.0506 166.018 86.5516 166.635 86.8412C167.166 87.0617 167.738 86.6697 167.35 86.1594C166.342 84.5753 166.46 82.6524 165.954 80.9214C165.3 78.6841 164.137 78.8801 164.108 76.8142C163.998 73.9033 164.386 69.4655 164.276 66.5505C165.578 60.104 168.477 49.4116 164.974 44.8472Z" fill="#F0F0F0"/>
<path d="M186.977 150.458C186.532 148.29 186.683 144.946 186.719 142.991C186.756 141.035 188.842 114.028 188.994 111.183C189.328 104.814 188.826 102.609 188.304 94.3214C187.189 76.6721 184.658 68.8743 184.658 68.8743L167.102 67.2861C165.49 72.8304 162.35 73.4101 161.877 81.0242C161.77 82.7512 162.595 86.1969 162.575 88.8792L174.582 97.8365L177.578 115.363C177.115 117.58 176.97 119.851 177.15 122.108C177.268 123.798 177.66 128.607 177.999 131.09C178.967 138.14 180.469 143.697 180.449 144.346C180.375 146.277 179.444 146.796 179.444 147.551C179.435 148.019 179.546 148.481 179.767 148.894C179.861 149.053 179.991 149.184 180.089 149.335C180.224 149.513 180.38 149.673 180.555 149.813C180.926 150.155 181.265 150.531 181.567 150.935C182.139 151.731 182.51 150.596 182.841 151.519C183.049 152.111 183.249 152.703 183.474 153.295C183.65 153.851 183.857 154.396 184.094 154.928C185.384 157.623 189.014 155.226 190.051 154.659C188.132 154.41 187.418 152.63 186.977 150.458Z" fill="#F0F0F0"/>
<path d="M187.141 158.794C187.141 158.794 186.566 159.704 183.736 158.353C180.907 157.002 180.164 155.52 180.164 155.52C180.164 155.52 181.189 149.763 182.908 151.306C184.626 152.85 187.141 158.794 187.141 158.794Z" fill="#DBE0ED"/>
<path opacity="0.2" d="M187.141 158.794C187.141 158.794 186.566 159.704 183.736 158.353C180.907 157.002 180.164 155.52 180.164 155.52C180.164 155.52 181.189 149.763 182.908 151.306C184.626 152.85 187.141 158.794 187.141 158.794Z" fill="black"/>
<path d="M179.997 146.191C180.601 145.909 182.14 146.632 183.022 147.473C184.102 148.414 184.875 149.657 185.243 151.041C185.823 152.846 186.66 153.899 187.607 154.507C188.142 154.842 188.628 154.699 189.24 154.438C189.046 154.352 188.864 154.242 188.697 154.111C189.305 154.066 190.13 153.862 190.653 153.797C192.633 153.548 193.919 154.462 193.968 155.536C193.968 156.381 190.518 159.21 188.101 159.186C186.1 159.186 185.402 159.48 184.427 156.5C183.451 153.519 183.12 151.853 182.144 153.801C181.169 155.748 180.593 160.207 180.593 160.207C180.343 160.354 180.055 160.426 179.765 160.412C179.475 160.398 179.195 160.3 178.96 160.129C178.96 160.129 179.001 157.271 178.833 155.463C178.666 153.654 177.809 152.846 178.017 150.686C178.225 148.526 179.401 146.456 179.997 146.191Z" fill="#DBE0ED"/>
<path opacity="0.1" d="M179.997 146.191C180.601 145.909 182.14 146.632 183.022 147.473C184.102 148.414 184.875 149.657 185.243 151.041C185.823 152.846 186.66 153.899 187.607 154.507C188.142 154.842 188.628 154.699 189.24 154.438C189.046 154.352 188.864 154.242 188.697 154.111C189.305 154.066 190.13 153.862 190.653 153.797C192.633 153.548 193.919 154.462 193.968 155.536C193.968 156.381 190.518 159.21 188.101 159.186C186.1 159.186 185.402 159.48 184.427 156.5C183.451 153.519 183.12 151.853 182.144 153.801C181.169 155.748 180.593 160.207 180.593 160.207C180.343 160.354 180.055 160.426 179.765 160.412C179.475 160.398 179.195 160.3 178.96 160.129C178.96 160.129 179.001 157.271 178.833 155.463C178.666 153.654 177.809 152.846 178.017 150.686C178.225 148.526 179.401 146.456 179.997 146.191Z" fill="black"/>
<path d="M173.404 107.223C173.073 110.052 172.506 114.339 171.771 119.471C171.167 123.757 168.709 136.708 168.709 136.708C168.472 138.484 168.187 141.986 168.493 144.175C168.799 146.363 169.395 148.192 171.289 148.559C170.22 149.062 166.439 151.221 165.325 148.449C165.122 147.899 164.95 147.337 164.81 146.767C164.635 146.163 164.463 145.563 164.292 144.959C164.022 144.015 163.634 145.453 163.116 144.624C162.84 144.2 162.526 143.802 162.177 143.436C162.014 143.285 161.869 143.117 161.744 142.934C161.654 142.77 161.532 142.636 161.45 142.468C161.254 142.043 161.173 141.575 161.213 141.109C161.262 140.345 162.222 139.884 162.418 137.977C162.448 137.144 162.427 136.31 162.356 135.479C162.356 135.479 161.916 129.175 161.397 122.084C161.217 119.601 161.144 115.576 161.324 113.894C161.552 111.908 161.93 109.943 162.454 108.015L162.573 88.8672L174.58 97.8245L173.404 107.223Z" fill="#F0F0F0"/>
<path d="M168.132 152.515C168.132 152.515 167.499 153.388 164.76 151.861C162.02 150.334 161.375 148.808 161.375 148.808C161.375 148.808 162.763 143.125 164.38 144.774C165.997 146.423 168.132 152.515 168.132 152.515Z" fill="#DBE0ED"/>
<path opacity="0.2" d="M168.132 152.515C168.132 152.515 167.499 153.388 164.76 151.861C162.02 150.334 161.375 148.808 161.375 148.808C161.375 148.808 162.763 143.125 164.38 144.774C165.997 146.423 168.132 152.515 168.132 152.515Z" fill="black"/>
<path d="M161.854 139.818C162.475 139.573 163.965 140.393 164.794 141.288C165.888 142.459 166.145 143.17 166.578 144.893C166.876 146.271 167.695 147.48 168.864 148.269C169.379 148.636 169.873 148.522 170.497 148.302C170.311 148.204 170.137 148.085 169.979 147.946C170.587 147.946 171.42 147.787 171.951 147.754C173.939 147.632 175.184 148.624 175.147 149.698C175.094 150.543 171.473 153.135 169.064 152.964C167.064 152.825 166.349 153.086 165.574 150.053C164.798 147.02 164.561 145.333 163.467 147.216C162.373 149.098 161.511 153.511 161.511 153.511C161.251 153.643 160.957 153.696 160.667 153.663C160.377 153.63 160.103 153.514 159.878 153.327C159.878 153.327 160.099 150.469 160.05 148.661C160.001 146.852 159.233 146.313 159.613 144.17C159.993 142.027 161.242 140.042 161.854 139.818Z" fill="#DBE0ED"/>
<path opacity="0.1" d="M161.854 139.818C162.475 139.573 163.965 140.393 164.794 141.288C165.888 142.459 166.145 143.17 166.578 144.893C166.876 146.271 167.695 147.48 168.864 148.269C169.379 148.636 169.873 148.522 170.497 148.302C170.311 148.204 170.137 148.085 169.979 147.946C170.587 147.946 171.42 147.787 171.951 147.754C173.939 147.632 175.184 148.624 175.147 149.698C175.094 150.543 171.473 153.135 169.064 152.964C167.064 152.825 166.349 153.086 165.574 150.053C164.798 147.02 164.561 145.333 163.467 147.216C162.373 149.098 161.511 153.511 161.511 153.511C161.251 153.643 160.957 153.696 160.667 153.663C160.377 153.63 160.103 153.514 159.878 153.327C159.878 153.327 160.099 150.469 160.05 148.661C160.001 146.852 159.233 146.313 159.613 144.17C159.993 142.027 161.242 140.042 161.854 139.818Z" fill="black"/>
<path d="M188.729 87.2378C187.562 77.3129 186.574 73.9569 185.712 68.4576C185.712 68.4576 185.937 64.3423 186.121 62.4765C188.366 60.2678 188.836 57.2426 187.578 54.2745C185.986 50.5185 184.7 47.6729 182.271 46.9748C180.698 46.5258 179.1 46.17 177.486 45.9092C177.486 45.9092 173.317 46.5298 170.901 46.2276C167.14 45.7581 167.41 44.7946 167.434 44.3945C167.434 44.3945 166.618 44.5293 165.311 44.762C164.495 44.9089 162.65 45.6479 161.951 49.0406C160.441 56.3893 165.124 63.9136 165.348 68.229C163.674 72.626 162.319 74.5122 161.653 78.4356C161.057 81.9467 161.772 87.1194 161.498 90.3242C161.225 93.5291 160.273 105.65 160.273 105.65C160.273 105.65 163.131 108.276 171.611 109.525C180.091 110.774 184.063 110.043 184.063 110.043L184.88 98.8365L186.288 109.831C186.288 109.831 189.04 109.366 190.371 108.223C190.399 108.202 189.53 94.019 188.729 87.2378Z" fill="#DBE0ED"/>
<path d="M181.599 28.1084C182.183 27.3205 182.101 26.1447 181.681 25.2506C181.26 24.3565 180.456 23.4542 178.186 22.4826C175.508 21.3272 168.188 20.5596 165.383 25.4588C164.975 26.1896 172.613 39.1397 172.462 41.8914C174.14 39.8501 179.652 32.7218 179.652 32.7218C181.028 32.0155 181.852 31.444 182.056 30.0844C182.112 29.3943 181.953 28.7039 181.599 28.1084Z" fill="#DBE0ED"/>
<path d="M180.789 31.9092C180.789 31.9092 182.928 34.9018 182.732 35.1753C182.313 35.5595 181.861 35.9065 181.381 36.2123L180.789 31.9092Z" fill="#DBE0ED"/>
<path d="M178.013 26.3698C179.339 26.8883 181.013 27.7619 181.124 30.5871C181.152 31.3342 180.777 32.3672 181.124 33.3307C182.544 37.45 181.462 41.0469 180.715 41.8756C180.197 42.4349 177.331 42.8718 175.788 42.5615C173.856 42.1532 169.611 40.6018 167.439 37.7807C164.883 34.4616 164.013 29.8196 166.447 27.7579C169.847 24.8429 176.592 25.8186 178.013 26.3698Z" fill="#F0F0F0"/>
<path d="M168.63 43.1447L168.806 40.0664L176.518 41.4259L176.346 43.1488C176.253 44.1205 176.163 45.5616 177.661 45.9617C179.158 46.2743 180.63 46.6946 182.066 47.2192C182.066 47.2192 175.563 48.6685 171.362 47.9745C167.16 47.2804 166.43 44.5777 166.43 44.5777C167.94 44.3736 168.573 44.1205 168.63 43.1447Z" fill="#F0F0F0"/>
<path d="M180.542 41.9894C179.897 42.3977 178.435 42.8059 176.406 42.6508L176.496 41.6016C177.133 41.807 177.788 41.9532 178.452 42.0384C179.147 42.1247 179.851 42.1082 180.542 41.9894Z" fill="#DBE0ED"/>
<path d="M161.973 49.0401C162.671 45.6474 164.513 44.9085 165.333 44.7615C166.644 44.5288 167.456 44.394 167.456 44.394C167.432 44.8023 167.162 45.7576 170.922 46.2272C173.339 46.5293 177.508 45.9087 177.508 45.9087C179.11 46.1696 180.695 46.524 182.256 46.9702C184.705 47.6683 185.979 50.5139 187.563 54.2699C188.821 57.238 188.351 60.2633 186.106 62.472C186.061 64.4398 186.689 67.8488 185.697 68.453C180.443 71.6783 167.521 70.87 165.35 68.2122C164.533 67.2854 164.856 65.489 164.313 63.8152C162.969 59.6264 160.891 54.2904 161.973 49.0401Z" fill="#DBE0ED"/>
<path opacity="0.1" d="M161.973 49.0401C162.671 45.6474 164.513 44.9085 165.333 44.7615C166.644 44.5288 167.456 44.394 167.456 44.394C167.432 44.8023 167.162 45.7576 170.922 46.2272C173.339 46.5293 177.508 45.9087 177.508 45.9087C179.11 46.1696 180.695 46.524 182.256 46.9702C184.705 47.6683 185.979 50.5139 187.563 54.2699C188.821 57.238 188.351 60.2633 186.106 62.472C186.061 64.4398 186.689 67.8488 185.697 68.453C180.443 71.6783 167.521 70.87 165.35 68.2122C164.533 67.2854 164.856 65.489 164.313 63.8152C162.969 59.6264 160.891 54.2904 161.973 49.0401Z" fill="black"/>
<path d="M179.587 26.5934C177.254 25.6075 174.81 24.9083 172.308 24.5113C170.136 24.1969 166.237 25.1849 166.012 25.2625C163.563 26.1402 162.546 28.5286 162.579 31.2109V51.5138C166.706 55.3597 176.542 52.4733 176.542 52.4733V37.7758C176.352 37.9586 176.144 38.1215 175.921 38.2616C175.792 38.3167 175.653 38.3445 175.513 38.3433C175.147 38.3306 174.79 38.2287 174.473 38.0466C174.155 37.8644 173.887 37.6075 173.692 37.2981C172.683 35.8406 172.924 33.4931 174.451 33.1705C175.782 32.8888 176.207 33.8279 176.533 34.4321C176.766 34.8403 176.942 35.0935 177.493 34.8648C178.383 34.4933 178.681 33.7095 178.799 32.7704C178.816 32.6062 178.816 32.4407 178.799 32.2764C179.425 32.2197 180.023 31.9908 180.526 31.6151C180.796 29.5737 180.632 27.9366 179.587 26.5934Z" fill="#DBE0ED"/>
<path d="M182.249 46.9702C178.856 49.1871 181.71 61.9208 182.318 68.1754C182.559 70.6454 183 71.2129 184.053 75.2507C184.768 77.986 185.662 80.1743 185.956 83.8242C186.111 85.743 185.462 88.0293 185.78 89.9482C186.005 91.5404 185.752 93.153 185.735 94.7371C185.597 95.9619 185.384 97.3582 186.005 98.4809C186.079 98.5982 186.18 98.6957 186.3 98.7648C186.42 98.834 186.556 98.8726 186.694 98.8775C186.833 98.8823 186.97 98.8531 187.095 98.7926C187.22 98.732 187.328 98.6418 187.409 98.5299C187.724 98.1747 187.732 97.6644 187.956 97.2602C188.044 97.1488 188.157 97.0591 188.285 96.9982C188.413 96.9374 188.553 96.9068 188.695 96.9091C189.406 96.7948 189.741 96.0925 190.051 95.5128C190.096 95.4154 190.168 95.3329 190.258 95.2751C190.349 95.2172 190.454 95.1864 190.561 95.1862C191.921 94.7167 192.194 92.7652 192.411 91.5118C193.419 87.1189 192.378 82.6035 191.696 78.2392C191.439 76.3448 190.806 72.6704 190.255 68.1224C190.255 68.1224 189.41 57.5075 189.059 54.6293C188.45 49.6525 187.336 48.3297 182.249 46.9702Z" fill="#F0F0F0"/>
<path d="M71.5776 38.4702C75.7052 39.8257 76.4564 42.8958 77.4648 49.4035C78.4732 55.9113 78.7549 58.2302 78.6324 60.8757C78.5099 63.5213 76.9259 71.1722 77.1831 74.0382C77.5052 77.2275 77.0976 80.4483 75.9909 83.4568C75.056 84.9837 72.9535 86.8454 71.1122 86.8413C70.3977 86.8046 70.1283 86.1554 70.41 85.543C70.7284 85.094 72.3084 76.5857 70.4998 78.8679C70.2192 79.4899 69.7254 79.9909 69.1076 80.2805C68.5769 80.4969 68.0053 80.1091 68.3932 79.5987C69.4016 78.0147 69.2832 76.0877 69.7894 74.3607C70.4426 72.1193 71.6062 72.3194 71.6348 70.2536C71.745 67.3386 71.8552 62.8558 71.9655 59.9449C71.3857 54.2374 66.8377 44.2798 71.5776 38.4702Z" fill="#F5F5F5"/>
<path d="M70.9485 38.2373C73.7614 38.8089 74.9821 39.8704 75.9211 42.0872C76.8601 44.3041 77.5093 48.3827 77.9624 50.5424C78.4156 52.7021 79.1015 58.0014 79.0198 59.5895C78.9382 61.1777 77.7951 66.9832 77.6603 68.1018C75.6043 68.0308 73.5614 67.7448 71.5649 67.2485L71.6466 59.7528C71.6466 59.7528 69.4461 49.5666 69.0378 47.7335C68.6295 45.9004 67.5476 41.6381 70.9485 38.2373Z" fill="#DBE0ED"/>
<path d="M74.1096 135.714C74.1096 136.376 74.2362 136.633 73.4238 137.233C72.6113 137.833 70.8476 138.107 69.5085 137.743C68.6538 137.584 67.8853 137.122 67.3447 136.441C66.8855 135.836 66.4655 135.201 66.0873 134.542C65.8545 134.244 64.7645 133.673 63.7112 133.207C62.6578 132.742 60.4859 131.734 59.7224 129.941C59.2619 128.979 59.1788 127.879 59.4897 126.859L74.1096 135.714Z" fill="#DBE0ED"/>
<path d="M67.0363 126.598C69.1797 127.999 70.9801 131.497 73.9156 130.444C74.0625 132.167 74.5198 134.02 74.1074 135.715C72.8582 137.258 70.1228 137.552 68.5469 136.441C67.7549 135.768 67.3221 134.976 66.5423 134.261C65.9142 133.722 65.2027 133.287 64.4357 132.975C63.5547 132.562 62.7022 132.09 61.884 131.563C57.1441 128.068 59.4875 121.67 67.0363 126.598Z" fill="#DBE0ED"/>
<path opacity="0.1" d="M67.0363 126.598C69.1797 127.999 70.9801 131.497 73.9156 130.444C74.0625 132.167 74.5198 134.02 74.1074 135.715C72.8582 137.258 70.1228 137.552 68.5469 136.441C67.7549 135.768 67.3221 134.976 66.5423 134.261C65.9142 133.722 65.2027 133.287 64.4357 132.975C63.5547 132.562 62.7022 132.09 61.884 131.563C57.1441 128.068 59.4875 121.67 67.0363 126.598Z" fill="black"/>
<path d="M59.4882 145.741C59.4882 146.46 59.4392 146.999 58.9983 147.305C58.5574 147.611 55.2749 148.15 54.4013 148.248C53.5276 148.346 53.3969 147.779 52.7682 147.979C52.1395 148.179 50.7269 149.232 48.5876 149.702C46.4483 150.171 44.6887 150.681 41.7165 149.702C38.7443 148.722 38.4504 147.57 38.4871 146.566C38.5239 145.562 59.4882 145.741 59.4882 145.741Z" fill="#DBE0ED"/>
<path d="M59.0473 139.03C59.5291 141.071 60.0353 144.174 59.4801 145.742C58.8799 146.334 56.8713 146.685 55.1198 146.921C53.4995 147.118 51.9282 147.606 50.482 148.363C47.0852 149.783 41.0919 150.298 38.724 147.101C36.3479 142.827 48.7223 143.876 50.2411 138.936C50.7922 137.135 56.8019 139.516 59.0473 139.03Z" fill="#DBE0ED"/>
<path opacity="0.1" d="M59.0473 139.03C59.5291 141.071 60.0353 144.174 59.4801 145.742C58.8799 146.334 56.8713 146.685 55.1198 146.921C53.4995 147.118 51.9282 147.606 50.482 148.363C47.0852 149.783 41.0919 150.298 38.724 147.101C36.3479 142.827 48.7223 143.876 50.2411 138.936C50.7922 137.135 56.8019 139.516 59.0473 139.03Z" fill="black"/>
<path d="M75.0792 112.758C73.4216 95.2023 75.1853 81.1132 73.6053 66.9709C73.6053 66.9709 49.2565 64.3049 48.6522 72.6866C48.048 81.0682 47.9419 104.645 48.1338 108.34C48.2236 112.08 49.5708 137.368 49.5708 140.005C55.6948 143.047 59.4957 140.748 59.4957 140.748C59.459 137.347 62.1209 122.152 60.6756 113.856L61.6555 97.6805C61.6555 97.6805 65.8606 124.993 66.5546 131.799C68.3632 134.481 73.4951 133.84 74.3565 132.236C74.3729 132.236 75.6589 117.926 75.0792 112.758Z" fill="#DBE0ED"/>
<path opacity="0.1" d="M64.9183 95.0185C64.7223 91.8544 64.5345 88.8537 64.3304 87.0165L64.559 85.5794C66.4085 84.9221 69.3276 82.5868 70.0624 79.8964C67.372 83.2605 62.7137 84.1137 62.7137 84.1137L61.6277 97.6803L63.4649 109.826L62.7137 97.1047L64.0773 88.5883C64.2283 90.3561 64.3712 92.6709 64.5223 95.0552C64.8122 99.7176 65.1143 104.539 65.5266 106.83C66.1472 110.312 67.8986 128.468 68.3477 133.207C68.4824 133.265 68.6213 133.314 68.756 133.359C68.3477 128.945 66.5473 110.304 65.8981 106.76C65.5103 104.478 65.2041 99.6686 64.9183 95.0185ZM51.3639 105.156C51.4864 95.5533 51.8089 78.5287 52.5887 72.3394L52.1805 72.2904C51.911 74.4338 51.6987 77.8754 51.5272 81.856C49.6615 79.5657 49.935 75.2707 50.1228 72.5435C50.1228 72.3026 50.1514 72.0781 50.1636 71.8658L49.7554 71.8413C49.7554 72.0495 49.7268 72.2782 49.7145 72.5149C49.5145 75.4381 49.2083 80.1168 51.4905 82.4358C51.1843 89.8703 51.0251 99.0235 50.9475 105.147C50.8414 113.194 52.1151 133.228 52.6459 141.181C52.7806 141.218 52.9153 141.246 53.0542 141.279C52.5479 133.416 51.2619 113.231 51.3639 105.156Z" fill="black"/>
<path d="M52.3338 23.8955C52.3338 23.8955 49.5331 27.2719 49.7372 27.5699C49.9413 27.8679 51.4927 28.5905 51.4927 28.5905L52.3338 23.8955Z" fill="#DBE0ED"/>
<path d="M54.7164 18.1263C53.2344 18.6326 52.5076 20.0615 52.3648 22.5111C52.3635 23.5251 52.2262 24.5343 51.9565 25.5118C50.9848 28.484 51.2216 33.5587 52.0259 34.4936C52.5648 35.1305 56.031 36.1798 57.7416 35.9022C59.8809 35.5592 64.6208 34.0282 67.1317 31.003C70.0875 27.4674 71.2551 22.4009 68.6708 20.0248C65.0209 16.7137 56.3004 17.5834 54.7164 18.1263Z" fill="#F5F5F5"/>
<path d="M66.0586 37.1349L65.7361 33.2563L57.2524 34.7547L57.4402 36.6531C57.5423 37.7187 57.6402 39.3068 55.9949 39.7437C54.4064 40.1396 52.8449 40.6373 51.3203 41.2338C51.3203 41.2338 59.5713 42.6219 64.1929 41.8585C65.3728 41.6666 69.7044 37.8167 69.6228 38.1229C67.9489 37.9065 66.124 38.2086 66.0586 37.1349Z" fill="#F5F5F5"/>
<path d="M52.1719 34.6406C52.8618 35.1305 54.8868 35.9961 57.3813 35.9961L57.2588 34.7713C56.2745 34.9818 55.2683 35.0723 54.2622 35.0407C53.548 35.025 52.8414 34.8898 52.1719 34.6406Z" fill="#DBE0ED"/>
<path d="M51.0158 18.2408C50.7816 18.5625 50.6404 18.9424 50.6075 19.339C50.5805 19.6775 50.646 20.017 50.797 20.3212C50.948 20.6254 51.1789 20.8828 51.4648 21.066C51.7573 21.238 52.096 21.3148 52.434 21.2855C52.772 21.2563 53.0925 21.1224 53.351 20.9026C53.2673 21.2374 53.2682 21.5877 53.3538 21.922C53.4393 22.2563 53.6067 22.564 53.8409 22.8174C54.0851 23.0612 54.4068 23.2122 54.7504 23.2442C55.094 23.2763 55.438 23.1874 55.723 22.993C55.5556 23.3482 55.4128 23.834 55.723 24.0789C55.8016 24.1367 55.8924 24.1758 55.9884 24.1933C56.2664 24.2597 56.558 24.2412 56.8253 24.1402C56.6774 24.2932 56.5683 24.4794 56.5072 24.6833C56.4461 24.8872 56.4348 25.1028 56.4742 25.3119C56.5069 25.4507 57.1846 26.2999 57.2214 26.1978C57.2214 26.1978 58.0869 23.8177 60.116 24.3239C62.145 24.8302 62.1573 27.5002 60.7202 28.9781C59.2831 30.456 58.0991 29.7416 58.0828 29.7416C58.0828 30.1498 58.0338 32.4729 59.9282 33.8242C61.0917 34.6407 64.1455 34.8163 65.7582 33.8487C66.3542 32.7872 67.3504 31.4277 68.1179 30.2356C70.6941 26.2427 71.5433 23.785 71.0942 21.5355C70.788 20.0045 70.1062 19.1267 68.9467 18.8368C68.8855 17.3793 68.6732 16.2566 67.1095 14.9134C64.6599 12.7986 61.8021 12.619 59.6056 12.717C58.8511 12.8066 58.0899 12.8271 57.3316 12.7782C56.6825 12.6884 56.066 12.4189 55.4209 12.3046C55.1024 12.2209 54.7681 12.2169 54.4477 12.2931C54.1272 12.3693 53.8305 12.5233 53.5837 12.7415C53.1101 13.2477 53.1142 14.0356 53.2857 14.7052C52.7527 14.725 52.2327 14.8749 51.771 15.142C51.5476 15.2735 51.3553 15.4518 51.2073 15.6646C51.0593 15.8775 50.9592 16.1198 50.9137 16.375C50.8805 16.6391 50.9323 16.9068 51.0615 17.1395C51.1907 17.3722 51.3906 17.5577 51.6322 17.6692C51.3927 17.8194 51.1836 18.0133 51.0158 18.2408Z" fill="#DBE0ED"/>
<g opacity="0.1">
<path d="M51.0236 18.2408C50.7894 18.5625 50.6482 18.9424 50.6153 19.339C50.5883 19.6775 50.6538 20.017 50.8048 20.3212C50.9558 20.6254 51.1867 20.8828 51.4727 21.066C51.7651 21.238 52.1038 21.3148 52.4418 21.2855C52.7798 21.2563 53.1004 21.1224 53.3588 20.9026C53.2751 21.2374 53.2761 21.5877 53.3616 21.922C53.4471 22.2563 53.6145 22.564 53.8488 22.8174C54.093 23.0612 54.4146 23.2122 54.7582 23.2442C55.1018 23.2763 55.4458 23.1874 55.7308 22.993C55.5635 23.3482 55.4206 23.834 55.7308 24.0789C55.8095 24.1367 55.9002 24.1758 55.9962 24.1933C56.2742 24.2597 56.5658 24.2412 56.8332 24.1402C56.6852 24.2932 56.5761 24.4794 56.515 24.6833C56.4539 24.8872 56.4426 25.1028 56.4821 25.3119C56.5147 25.4507 57.1924 26.2999 57.2292 26.1978C57.2292 26.1978 58.0947 23.8177 60.1238 24.3239C62.1528 24.8302 62.1651 27.5002 60.728 28.9781C59.2909 30.456 58.1069 29.7416 58.0906 29.7416C58.0906 30.1498 58.0416 32.4729 59.936 33.8242C61.0995 34.6407 64.1533 34.8163 65.766 33.8487C66.362 32.7872 67.3582 31.4277 68.1257 30.2356C70.7019 26.2427 71.5511 23.785 71.102 21.5355C70.7958 20.0045 70.114 19.1267 68.9545 18.8368C68.8933 17.3793 68.681 16.2566 67.1173 14.9134C64.6677 12.7986 61.8099 12.619 59.6134 12.717C58.8589 12.8066 58.0977 12.8271 57.3394 12.7782C56.6903 12.6884 56.0738 12.4189 55.4287 12.3046C55.1102 12.2209 54.7759 12.2169 54.4555 12.2931C54.135 12.3693 53.8383 12.5233 53.5915 12.7415C53.118 13.2477 53.122 14.0356 53.2935 14.7052C52.7605 14.725 52.2405 14.8749 51.7789 15.142C51.5555 15.2735 51.3631 15.4518 51.2152 15.6646C51.0672 15.8775 50.967 16.1198 50.9215 16.375C50.8884 16.6391 50.9401 16.9068 51.0693 17.1395C51.1985 17.3722 51.3984 17.5577 51.64 17.6692C51.4005 17.8194 51.1914 18.0133 51.0236 18.2408Z" fill="black"/>
</g>
<path d="M74.7124 44.7535C74.247 40.2095 71.8219 38.6662 70.9523 38.1763C69.5683 37.9314 66.7145 37.7681 66.7145 37.7681C66.739 38.1763 65.355 39.2337 62.1624 39.5032C59.5903 39.7196 57.7286 39.2296 57.1122 38.9357C55.9363 39.6175 55.5403 39.6583 52.7846 40.4463C50.2002 41.1852 48.7999 44.4024 48.6407 48.7218C48.1875 60.8921 48.1875 68.4369 48.1875 73.5034C48.1875 73.5034 51.372 75.9285 58.6758 75.9285C70.7686 75.9285 74.1898 72.2174 74.1898 72.2174C73.8469 67.2733 73.6591 64.2481 73.7816 61.3249C74.0265 56.785 75.435 51.7879 74.7124 44.7535Z" fill="#DBE0ED"/>
<path opacity="0.1" d="M74.7124 44.7535C74.247 40.2095 71.8219 38.6662 70.9523 38.1763C69.5683 37.9314 66.7145 37.7681 66.7145 37.7681C66.739 38.1763 65.355 39.2337 62.1624 39.5032C59.5903 39.7196 57.7286 39.2296 57.1122 38.9357C55.9363 39.6175 55.5403 39.6583 52.7846 40.4463C50.2002 41.1852 48.7999 44.4024 48.6407 48.7218C48.1875 60.8921 48.1875 68.4369 48.1875 73.5034C48.1875 73.5034 51.372 75.9285 58.6758 75.9285C70.7686 75.9285 74.1898 72.2174 74.1898 72.2174C73.8469 67.2733 73.6591 64.2481 73.7816 61.3249C74.0265 56.785 75.435 51.7879 74.7124 44.7535Z" fill="black"/>
<path d="M52.4539 40.8384C55.8466 43.0553 54.0339 55.3562 53.4256 61.6149C53.1847 64.0849 52.7438 64.6524 51.6905 68.6861C50.9719 71.4214 50.0819 73.6138 49.788 77.2596C49.6288 79.1825 50.282 81.4688 49.9635 83.3836C49.739 84.9758 49.9921 86.5844 50.0084 88.1725C50.1472 89.3973 50.3595 90.7895 49.739 91.9122C49.6655 92.0298 49.5644 92.1276 49.4445 92.1971C49.3245 92.2666 49.1894 92.3057 49.0508 92.3109C48.9123 92.3161 48.7746 92.2874 48.6497 92.2271C48.5249 92.1669 48.4167 92.077 48.3346 91.9653C48.0202 91.606 48.012 91.0957 47.7875 90.6956C47.7 90.5834 47.5878 90.493 47.4596 90.4314C47.3314 90.3698 47.1907 90.3386 47.0485 90.3404C46.3381 90.2261 46.0034 89.5239 45.6931 88.9441C45.6472 88.8473 45.575 88.7654 45.4848 88.7076C45.3945 88.6499 45.2899 88.6187 45.1828 88.6175C43.8232 88.148 43.5497 86.2006 43.3333 84.9431C42.3249 80.5543 43.366 76.0389 44.0478 71.6746C44.305 69.7761 44.9378 66.1058 45.489 61.5578C45.489 61.5578 46.1136 50.9429 46.183 48.0606C46.2851 44.031 48.2366 41.0711 52.4539 40.8384Z" fill="#F5F5F5"/>
<path d="M52.5653 40.585C49.9483 41.1239 48.1152 41.5158 46.7924 44.1899C45.4697 46.8641 45.6534 53.7392 45.5676 55.9928C45.4819 58.2465 45.3268 60.7655 45.2982 61.1574C45.2696 61.5493 44.2734 70.1392 44.2734 70.1392C45.5396 70.7967 46.8961 71.2631 48.2989 71.5232C50.7485 72.005 51.2425 71.5232 51.2425 71.5232C51.2425 71.5232 53.1654 65.4278 53.5247 63.5661C53.884 61.7045 54.6678 53.2616 54.6678 51.5509C54.6678 49.8403 55.5742 43.2877 52.5653 40.585Z" fill="#DBE0ED"/>
<path d="M54.7734 39.9486C55.5328 39.4791 57.223 37.3684 57.4884 37.2623C57.4884 37.2623 61.0689 37.744 63.5879 37.2908C66.1068 36.8377 65.9966 36.3151 65.9966 36.3151C65.9966 36.3151 66.3151 36.1559 66.6907 36.8336C66.97 37.2498 67.3278 37.6076 67.744 37.8869C67.744 37.8869 67.2908 39.52 64.0165 40.3773C60.7423 41.2347 55.6635 39.6751 55.6635 39.6751L54.7734 39.9486Z" fill="#DBE0ED"/>
<path d="M35.2053 49.5063C38.9083 50.4209 40.3576 50.7311 41.9948 53.9278C43.6319 57.1246 46.1142 68.7723 46.8286 71.1974C47.5431 73.6225 47.7513 74.5043 47.2777 77.1499C46.7837 79.9057 44.9098 84.7599 44.0933 87.43C43.7136 88.6548 43.44 89.8796 43.1461 91.137C42.8521 92.3945 42.203 93.6519 41.7172 94.9216C41.4699 95.5182 41.0683 96.0381 40.5536 96.4281C40.227 96.6813 39.8065 96.6894 39.4962 96.9262C39.1859 97.163 39.0879 97.5958 38.6797 97.7795C38.2714 97.9632 37.6958 97.8162 37.2834 98.0326C36.8748 98.3079 36.4494 98.5574 36.0096 98.7797C35.6121 98.8729 35.2434 99.0622 34.9359 99.3309C34.6624 99.6044 34.3766 100.233 33.9111 100.147C33.4457 100.062 33.3192 99.5554 33.3151 99.1472C33.3756 98.2866 33.7104 97.4681 34.2704 96.8119C34.842 96.1301 35.2462 95.3176 35.9035 94.7012C36.4685 94.0759 36.8869 93.3325 37.1283 92.5251C37.3202 91.9903 37.3038 91.3003 36.5853 91.5739C35.7361 91.9086 34.8216 92.6558 33.8377 92.4353C33.1559 92.2842 33.1436 91.7413 33.5682 91.3085C34.2633 90.5933 34.9046 89.8277 35.487 89.0181C36.0831 88.2016 36.5894 87.3198 37.2058 86.5155C37.539 86.0965 37.899 85.6997 38.2837 85.3274C39.3411 84.2782 39.3737 82.7799 39.5574 81.3958C39.8106 79.4607 40.0147 77.5214 40.2025 75.5822C40.2926 75.2318 40.327 74.8695 40.3046 74.5084L36.2219 63.1097L35.2053 49.5063Z" fill="#F0F0F0"/>
<path d="M26.8991 141.518C26.8991 142.522 26.8623 143.429 27.3482 144.49C28.0422 146.013 29.2833 146.63 30.0264 147.189C30.8651 147.836 31.6135 148.593 32.2514 149.438C32.8879 150.378 33.6756 151.206 34.5826 151.888C35.2848 152.394 36.9505 152.741 38.4734 152.398C39.6981 152.125 40.2656 151.582 40.0819 150.173C39.8982 148.765 34.403 148.087 34.403 148.087L26.8991 141.518Z" fill="#EBEBEB"/>
<path d="M39.4168 145.69C39.7964 145.797 39.7107 146.585 39.7924 147.434C39.8618 148.148 40.2864 149.189 39.9761 150.79C39.7352 151.263 39.1595 151.569 38.2695 151.725C36.9998 151.941 35.0034 151.39 34.142 150.467C33.0438 149.32 32.2803 148.291 30.7411 146.907C29.402 145.707 28.0956 145.38 27.3199 142.824C26.8177 141.171 27.03 140.448 28.1364 139.865C29.6307 139.048 32.2721 141.012 33.5214 141.244C34.5788 141.42 39.0371 145.572 39.4168 145.69Z" fill="#DBE0ED"/>
<path d="M28.2057 144.669C28.2057 144.669 28.0505 141.546 32.2189 140.734L32.472 140.848C31.9352 140.119 31.1465 139.615 30.2592 139.435C28.8262 139.182 27.7525 139.644 27.1034 140.66C26.4542 141.677 27.4259 144.13 28.2057 144.669Z" fill="#F0F0F0"/>
<path d="M33.5045 141.22L33.2922 141.167C32.5891 141.268 31.9253 141.554 31.3682 141.995C30.8111 142.436 30.3805 143.016 30.12 143.677C29.9526 144.155 30.6263 144.453 30.9733 144.061C31.6878 142.257 33.4229 141.714 34.1455 141.563C33.9573 141.406 33.7392 141.289 33.5045 141.22Z" fill="#F0F0F0"/>
<path d="M34.5749 141.922C33.9183 142.055 33.3057 142.35 32.7935 142.782C32.2812 143.214 31.8858 143.767 31.6436 144.392C31.4762 144.87 32.1458 145.168 32.4969 144.78C32.7332 144.218 33.0912 143.715 33.5451 143.307C33.999 142.9 34.5376 142.598 35.122 142.424C34.9342 142.248 34.7546 142.073 34.5749 141.922Z" fill="#F0F0F0"/>
<path d="M39.5602 140.967L39.3806 146.389C39.3806 146.389 36.6697 147.964 33.9139 146.417C33.8241 146.258 33.375 143.657 33.375 143.657L39.5602 140.967Z" fill="#F0F0F0"/>
<path d="M6.48074 156.399C6.32367 156.919 6.30957 157.472 6.43992 157.999C6.59098 158.318 7.5504 159.375 9.50598 159.759C11.4616 160.143 14.1479 159.759 15.2992 159.69C16.4506 159.62 20.0882 160.061 21.2436 160.22C23.0563 160.465 24.4525 160.065 25.1262 159.404C25.236 159.272 25.3171 159.12 25.3642 158.955C25.4113 158.791 25.4234 158.618 25.3997 158.448C25.3953 158.012 25.3308 157.577 25.2078 157.158L6.48074 156.399Z" fill="#EBEBEB"/>
<path d="M24.9145 155.264C24.9526 155.417 24.9852 155.568 25.0125 155.717C25.1902 156.489 25.2467 157.284 25.1798 158.073C25.0345 158.336 24.8354 158.566 24.5956 158.748C24.3558 158.929 24.0805 159.058 23.7877 159.126C22.4241 159.559 21.383 159.49 19.8683 159.204C18.3466 158.981 16.8089 158.886 15.2713 158.918C14.0791 159 12.442 159.228 11.2499 159.118C10.238 159.074 9.23931 158.871 8.28996 158.518C7.49793 158.175 6.68549 157.738 6.48952 156.922C6.25681 155.199 6.97944 154.439 7.80005 153.958C8.62066 153.476 9.77196 153.513 11.0131 153.431C12.1358 153.358 12.9564 153.353 13.9526 153.28C14.8177 153.238 15.6772 153.118 16.5206 152.921C17.2718 152.684 17.4922 151.594 17.8107 151.557C17.8107 151.557 23.3631 151.651 23.8407 151.692C24.3919 151.737 24.5593 153.447 24.6287 153.819C24.6818 154.109 24.6899 154.419 24.7716 154.701C24.8206 154.889 24.8696 155.08 24.9145 155.264Z" fill="#DBE0ED"/>
<path d="M9.51272 158.889C9.35758 157.665 9.14937 154.958 11.4356 153.406H11.7255C10.6933 153.108 9.59775 153.108 8.56555 153.406C6.73653 153.892 5.92817 155.37 6.38134 156.934C6.38134 156.917 6.7896 158.428 9.51272 158.889Z" fill="#F0F0F0"/>
<path d="M16.1831 153.015C15.4442 153.668 15.191 155.158 15.191 155.158C15.0931 155.713 14.0806 155.799 14.1785 155.26C14.3316 154.518 14.6284 153.814 15.0522 153.186C15.3988 153.002 15.7976 152.942 16.1831 153.015Z" fill="#F0F0F0"/>
<path d="M14.1136 153.267C13.5541 153.816 13.1898 154.533 13.0766 155.309C12.9745 155.844 12.1294 155.835 12.1907 155.309C12.1907 155.309 12.2887 153.986 13.0766 153.37C13.2286 153.271 13.4022 153.21 13.5826 153.192C13.7631 153.174 13.9452 153.2 14.1136 153.267Z" fill="#F0F0F0"/>
<path d="M24.5458 139.758C24.5458 139.758 23.9293 151.259 23.9701 151.986C24.011 152.713 23.1536 153.811 20.9326 153.774C19.3731 153.75 17.7196 153.219 17.7563 151.933L16.9766 143.09L24.5458 139.758Z" fill="#F0F0F0"/>
<path d="M40.3979 122.121C40.4282 119.404 40.0553 116.698 39.2915 114.09C39.2915 114.09 39.7284 103.582 39.9243 95.5226C41.8472 88.1453 40.304 83.0992 38.2913 77.9673C38.2913 77.9673 14.3752 82.9971 14.3874 82.9114C12.8809 94.1754 13.1259 114.866 13.5096 118.839C13.8934 122.811 14.0241 125.575 15.1427 134.263C15.9796 140.664 17.3392 150.185 17.3392 150.185C20.2746 151.696 24.1041 150.357 24.1041 150.357C24.1041 150.357 26.076 129.56 25.7943 124.946C25.4514 119.312 25.1043 117.883 25.1043 117.883C25.1043 117.883 26.8517 106.999 27.1865 104.055C27.1865 104.055 28.0275 112.817 29.0359 121.08C29.8606 127.616 33.2206 144.057 33.2206 144.057C34.2703 144.471 35.3966 144.655 36.5235 144.597C37.6504 144.538 38.7516 144.239 39.7528 143.718C39.7528 143.718 40.3979 126.698 40.3979 122.121Z" fill="#DBE0ED"/>
<path opacity="0.1" d="M40.3979 122.121C40.4282 119.404 40.0553 116.698 39.2915 114.09C39.2915 114.09 39.7284 103.582 39.9243 95.5226C41.8472 88.1453 40.304 83.0992 38.2913 77.9673C38.2913 77.9673 14.3752 82.9971 14.3874 82.9114C12.8809 94.1754 13.1259 114.866 13.5096 118.839C13.8934 122.811 14.0241 125.575 15.1427 134.263C15.9796 140.664 17.3392 150.185 17.3392 150.185C20.2746 151.696 24.1041 150.357 24.1041 150.357C24.1041 150.357 26.076 129.56 25.7943 124.946C25.4514 119.312 25.1043 117.883 25.1043 117.883C25.1043 117.883 26.8517 106.999 27.1865 104.055C27.1865 104.055 28.0275 112.817 29.0359 121.08C29.8606 127.616 33.2206 144.057 33.2206 144.057C34.2703 144.471 35.3966 144.655 36.5235 144.597C37.6504 144.538 38.7516 144.239 39.7528 143.718C39.7528 143.718 40.3979 126.698 40.3979 122.121Z" fill="black"/>
<path opacity="0.18" d="M27.2266 104.113L28.4514 93.9063C31.077 92.947 33.4112 91.3272 35.2285 89.2031C35.2285 89.2031 34.8815 93.151 29.7292 95.2577L28.386 103.615L28.2513 114.091L27.2266 104.113Z" fill="black"/>
<path d="M17.9916 32.5554C17.3261 31.7879 17.322 30.5631 17.6935 29.6159C18.0651 28.6688 18.8408 27.6685 21.1025 26.4968C23.793 25.1046 31.1785 24.1166 34.8365 28.9464C35.3632 29.6486 28.092 43.3132 28.4635 46.1465C26.5774 44.1665 20.3513 37.1933 20.3513 37.1933C18.8775 36.5646 17.9875 36.0338 17.6731 34.6417C17.5582 33.9301 17.6696 33.2003 17.9916 32.5554Z" fill="#DBE0ED"/>
<path d="M19.0936 36.4214C19.0936 36.4214 17.1013 39.6875 17.3217 39.9447C17.7841 40.3117 18.2772 40.6382 18.7956 40.9205L19.0936 36.4214Z" fill="#EBEBEB"/>
<path d="M21.5748 30.4934C20.2398 31.1222 19.0803 32.1265 18.6639 35.0823C18.5577 35.8458 19.1538 36.895 18.8843 37.9157C17.7208 42.28 19.1007 45.9177 19.9499 46.7219C20.5215 47.2649 23.5222 47.5058 25.094 47.069C27.0618 46.5178 31.3241 44.5867 33.3654 41.5125C35.7619 37.8912 36.3254 33.0247 33.6512 31.0732C29.9074 28.3215 22.9996 29.8198 21.5748 30.4934Z" fill="#F0F0F0"/>
<path d="M31.7989 43.5747L32.5786 48.9679C33.7789 49.2251 33.8932 50.6499 33.2972 51.7277L33.5748 53.2465L25.3524 54.753L24.4297 47.2164L31.7989 43.5747Z" fill="#F0F0F0"/>
<path d="M20.1094 46.8324C20.8075 47.2202 22.3426 47.506 24.4329 47.2161L24.3104 46.1465C23.6466 46.3952 22.964 46.5904 22.2691 46.7303C21.5583 46.8721 20.8303 46.9065 20.1094 46.8324Z" fill="#EBEBEB"/>
<path d="M19.597 32.0576C19.5235 33.9601 20.7156 34.5561 21.5648 34.9154C21.2384 35.6143 21.1166 36.3915 21.2137 37.1568C21.4056 38.1203 21.773 38.9082 22.7202 39.2267C23.2999 39.4226 23.4714 39.1654 23.6796 38.7082C23.9736 38.059 24.341 37.0751 25.721 37.2507C27.3213 37.4711 27.7623 39.884 26.811 41.464C26.6314 41.7994 26.3729 42.0862 26.0578 42.2995C25.7428 42.5129 25.3806 42.6465 25.0024 42.6887C24.7946 42.6852 24.59 42.6375 24.402 42.5488C24.2141 42.4601 24.0472 42.3325 23.9123 42.1743C23.9123 42.1743 24.0185 44.281 26.7294 45.5303C26.7294 45.5303 29.4607 47.0653 32.2613 46.2406C33.526 44.8416 34.7157 43.3766 35.8255 41.8518C38.7813 37.5814 39.3733 29.7631 34.3353 28.3791C34.0944 28.3138 29.5341 27.6728 27.3132 28.1586C20.5115 29.6284 19.6092 31.7269 19.597 32.0576Z" fill="#DBE0ED"/>
<path d="M39.04 53.3765C38.3052 50.9759 35.8678 49.7022 35.1248 49.4939C34.3817 49.2857 32.5772 48.9673 32.5772 48.9673C32.9855 49.9185 32.2874 50.5473 31.0544 50.8331C29.4662 51.2046 27.0493 51.2413 25.404 50.1513L24.7304 49.743C24.7304 49.743 20.3171 50.9025 18.6064 51.4904C18.2349 51.6128 17.104 52.1762 13.9849 59.1657C12.6539 62.1583 13.054 65.1958 15.4995 67.331C15.6343 69.2253 15.8098 73.2386 15.8098 73.2386C14.7728 79.5503 14.4136 82.7348 14.4136 82.7348C14.4136 82.7348 15.0668 85.6825 26.6615 85.6416C35.6433 85.609 39.7831 81.8856 39.7831 81.8856C39.6769 79.6769 36.9661 73.8428 37.3049 71.2707C37.852 67.4698 41.2896 60.7049 39.04 53.3765Z" fill="#DBE0ED"/>
<path d="M18.5809 51.4824C21.9736 53.6952 19.1199 66.4331 18.5115 72.6877C18.2707 75.1577 17.8297 75.7251 16.7723 79.7588C16.0579 82.4942 15.1679 84.6865 14.8698 88.3323C14.7147 90.2553 15.3679 92.5415 15.0454 94.4563C14.8249 96.0485 15.078 97.6571 15.0944 99.2452C15.2332 100.47 15.4414 101.862 14.8208 102.985C14.7479 103.102 14.6472 103.2 14.5275 103.27C14.4079 103.339 14.273 103.379 14.1348 103.384C13.9965 103.389 13.8591 103.36 13.7345 103.3C13.61 103.24 13.5021 103.15 13.4205 103.038C13.1061 102.683 13.0939 102.168 12.8693 101.768C12.7825 101.656 12.671 101.566 12.5435 101.505C12.416 101.443 12.276 101.412 12.1345 101.413C11.4241 101.299 11.0852 100.597 10.779 100.021C10.7339 99.9235 10.6619 99.8411 10.5715 99.7832C10.4811 99.7253 10.376 99.6945 10.2687 99.6943C8.90917 99.2207 8.63564 97.2733 8.41926 96.0199C7.41085 91.6311 8.45192 87.1157 9.13372 82.7514C9.39093 80.8529 10.0237 77.1826 10.5749 72.6346C10.5749 72.6346 11.42 62.0197 11.7711 59.1374C12.3794 54.1647 13.494 52.8419 18.5809 51.4824Z" fill="#F0F0F0"/>
<path d="M101.545 182.409C119.153 182.409 133.427 174.167 133.427 164C133.427 153.833 119.153 145.591 101.545 145.591C83.9378 145.591 69.6641 153.833 69.6641 164C69.6641 174.167 83.9378 182.409 101.545 182.409Z" fill="#E0E0E0"/>
<path d="M114.054 149.559C114.139 147.33 115.381 122.716 115.381 122.716L104.492 130.84C106.191 143.684 106.901 149.592 107.023 151.731C106.982 151.912 106.97 152.098 106.987 152.282C107.093 154.822 110.057 156.087 112.396 157.7C114.382 159.121 116.487 160.368 118.688 161.427C120.37 162.183 123.726 162.138 124.101 161.076C121.243 159.096 117.977 156.941 115.679 154.646C114.605 153.552 113.948 152.221 114.054 149.559Z" fill="#B16668"/>
<path d="M127.422 163.673C127.557 163.673 127.81 165.2 127.116 165.881C126.3 166.665 123.92 167.996 120.682 167.678C117.444 167.359 115.66 166.371 114.329 165.281C112.999 164.191 111.133 162.656 109.663 162.37C108.295 162.109 106.805 161.517 106.352 161.092C105.899 160.668 105.891 158.704 105.891 158.704L127.422 163.673Z" fill="#263238"/>
<path d="M106.977 151.11C106.977 151.11 106.626 151.11 106.569 151.564C106.491 152.107 106.397 153.691 106.218 154.585C105.965 155.809 105.769 158.377 105.981 159.378C106.193 160.378 108.431 161.011 109.859 161.505C111.288 161.999 113.032 163.158 114.542 164.363C116.053 165.567 119.339 166.812 121.438 166.775C124.647 166.706 126.688 165.714 127.284 164.477C128.023 162.946 127.741 161.889 123.989 160.227C122.553 159.509 121.157 158.712 119.809 157.839C117.639 156.448 115.946 154.428 114.955 152.049C114.864 151.729 114.667 151.45 114.395 151.257C114.167 151.166 113.914 151.152 113.677 151.217C113.068 151.331 111.301 151.625 110.749 151.931C110.268 152.196 109.574 152.511 109.61 153.18C109.632 153.41 109.687 153.636 109.774 153.85C109.823 153.985 109.864 154.164 109.774 154.258C109.684 154.352 109.525 154.258 109.427 154.172C109.048 153.792 108.7 153.382 108.386 152.948C108.208 152.723 108.006 152.521 107.781 152.343C107.558 152.221 107.343 152.084 107.136 151.935C107.069 151.663 107.016 151.388 106.977 151.11Z" fill="#455A64"/>
<path d="M124.087 160.235C119.458 160.745 117.522 163.909 118.11 166.183C119.177 166.564 120.298 166.768 121.429 166.787C124.638 166.718 126.814 165.722 127.411 164.485C128.105 163.04 127.427 161.431 124.087 160.235Z" fill="#FAFAFA"/>
<path d="M117.782 160.929C117.73 160.933 117.679 160.917 117.639 160.884C117.589 160.844 117.557 160.787 117.549 160.724C117.541 160.661 117.557 160.597 117.594 160.546C118.206 159.688 120.043 158.504 121.726 158.647C121.787 158.654 121.844 158.685 121.883 158.733C121.923 158.781 121.942 158.842 121.938 158.904C121.937 158.935 121.93 158.965 121.917 158.993C121.904 159.021 121.885 159.046 121.862 159.067C121.839 159.087 121.813 159.103 121.783 159.113C121.754 159.123 121.724 159.127 121.693 159.125C120.113 159.006 118.427 160.158 117.953 160.835C117.934 160.864 117.909 160.887 117.879 160.904C117.849 160.92 117.816 160.929 117.782 160.929Z" fill="#F0F0F0"/>
<path d="M115.915 159.761C115.862 159.761 115.811 159.744 115.768 159.712C115.721 159.672 115.69 159.615 115.682 159.553C115.674 159.492 115.688 159.429 115.723 159.378C116.34 158.52 118.173 157.336 119.855 157.479C119.886 157.482 119.916 157.49 119.943 157.504C119.97 157.519 119.994 157.538 120.014 157.561C120.034 157.585 120.049 157.612 120.058 157.641C120.067 157.671 120.07 157.702 120.067 157.732C120.067 157.763 120.06 157.793 120.048 157.821C120.035 157.849 120.017 157.874 119.995 157.894C119.972 157.915 119.945 157.931 119.917 157.941C119.888 157.951 119.857 157.955 119.827 157.953C118.247 157.834 116.56 158.986 116.087 159.667C116.067 159.695 116.041 159.717 116.012 159.734C115.982 159.75 115.949 159.759 115.915 159.761Z" fill="#F0F0F0"/>
<path d="M114.072 158.263C114.018 158.265 113.966 158.248 113.925 158.214C113.877 158.174 113.846 158.117 113.838 158.055C113.83 157.994 113.845 157.931 113.88 157.879C114.496 157.022 116.329 155.838 118.011 155.981C118.042 155.984 118.072 155.992 118.099 156.006C118.126 156.02 118.15 156.04 118.17 156.063C118.19 156.087 118.205 156.114 118.214 156.143C118.223 156.173 118.226 156.204 118.224 156.234C118.223 156.265 118.216 156.295 118.204 156.323C118.191 156.351 118.173 156.377 118.151 156.398C118.128 156.419 118.102 156.435 118.073 156.445C118.044 156.456 118.013 156.46 117.983 156.459C116.403 156.34 114.717 157.488 114.243 158.169C114.223 158.197 114.198 158.219 114.168 158.236C114.138 158.252 114.105 158.261 114.072 158.263Z" fill="#F0F0F0"/>
<path d="M112.236 156.756C112.184 156.759 112.133 156.743 112.093 156.711C112.044 156.672 112.012 156.616 112.003 156.553C111.994 156.491 112.008 156.428 112.044 156.377C112.889 155.152 114.869 154.307 116.563 154.441C116.594 154.443 116.625 154.452 116.653 154.466C116.68 154.479 116.705 154.499 116.726 154.522C116.746 154.546 116.762 154.573 116.772 154.603C116.782 154.632 116.786 154.663 116.784 154.694C116.782 154.726 116.773 154.756 116.759 154.784C116.746 154.812 116.726 154.837 116.703 154.857C116.679 154.878 116.652 154.893 116.622 154.903C116.593 154.913 116.562 154.917 116.531 154.915C115.008 154.801 113.162 155.584 112.411 156.662C112.392 156.691 112.366 156.715 112.335 156.732C112.305 156.748 112.27 156.756 112.236 156.756Z" fill="#F0F0F0"/>
<path d="M95.4167 132.126L84.6794 129.876C84.312 136.604 84.4834 147.586 84.4916 153.8C84.4916 154.992 83.7322 163.019 84.0303 165.493C84.4794 169.208 89.2846 169.037 89.7092 166.857C90.1338 164.676 90.6074 155.352 90.6972 154.388C90.7081 154.098 90.7395 153.809 90.7911 153.523C91.9751 147.856 95.3392 132.448 95.4167 132.126Z" fill="#B16668"/>
<path d="M91.3831 168.507C91.3137 170.67 90.9748 172.108 90.191 173.406C89.4071 174.704 87.823 175.125 86.2104 174.794C84.5978 174.463 82.5115 173.52 81.9971 171.671C81.4827 169.821 81.5358 168.552 81.8338 166.51L91.3831 168.507Z" fill="#263238"/>
<path d="M84.4895 153.115C83.8281 153.18 83.7587 155.997 83.4688 158.908C83.1585 162.027 82.1828 163.338 81.897 165.897C81.5704 168.825 81.7786 170.119 82.9503 171.854C84.1221 173.589 88.1353 175.222 90.0051 172.671C91.532 170.576 91.528 168.294 91.2912 165.387C91.0287 162.929 90.9034 160.458 90.9156 157.985C90.9768 155.801 91.3647 153.768 90.7849 153.539C90.7523 153.862 90.7196 154.27 90.6828 154.584C90.6543 154.829 90.6257 156.009 90.2542 156.03C90.2189 155.759 90.208 155.486 90.2215 155.213C90.2379 155.089 90.2285 154.963 90.1941 154.843C90.1597 154.723 90.1009 154.612 90.0215 154.515C89.7097 154.315 89.3565 154.188 88.9886 154.144C88.3353 154.042 87.678 153.952 87.0166 153.915C86.6873 153.896 86.3566 153.896 86.0246 153.915C85.7477 153.918 85.4727 153.96 85.208 154.042C85.1319 154.065 85.0617 154.105 85.0019 154.158C84.9421 154.21 84.8941 154.275 84.861 154.348C84.8297 154.456 84.8214 154.57 84.8365 154.682C84.8411 154.885 84.8191 155.086 84.7712 155.283C84.7712 155.368 84.6895 155.475 84.5956 155.454C84.5017 155.434 84.4854 155.352 84.4813 155.283C84.4813 154.932 84.5099 154.674 84.514 154.262C84.514 154.074 84.514 153.895 84.514 153.707C84.514 153.519 84.4813 153.303 84.4895 153.115Z" fill="#455A64"/>
<path d="M81.7606 167.592C81.7035 169.404 81.8545 170.641 82.7731 171.997C83.9448 173.732 88.2765 175.365 90.1464 172.793C91.0772 171.515 91.2936 170.021 91.3712 168.506C90.1504 166.587 83.5733 165.893 81.7606 167.592Z" fill="#FAFAFA"/>
<path d="M89.5861 165.379C89.558 165.376 89.5304 165.369 89.5045 165.358C87.6736 164.696 85.6951 164.555 83.7888 164.95C83.7276 164.966 83.6629 164.957 83.6076 164.927C83.5522 164.897 83.5105 164.847 83.4907 164.787C83.4836 164.757 83.4824 164.726 83.4875 164.696C83.4925 164.667 83.5035 164.638 83.5199 164.612C83.5364 164.587 83.5578 164.565 83.5829 164.548C83.6081 164.531 83.6365 164.519 83.6663 164.513C85.6745 164.077 87.7653 164.218 89.6963 164.921C89.7248 164.931 89.751 164.947 89.773 164.967C89.7951 164.988 89.8127 165.013 89.8246 165.04C89.8365 165.068 89.8425 165.098 89.8422 165.128C89.8419 165.158 89.8354 165.188 89.8229 165.215C89.8042 165.263 89.7717 165.304 89.7295 165.333C89.6873 165.362 89.6374 165.378 89.5861 165.379Z" fill="#F0F0F0"/>
<path d="M83.8908 162.787C83.8452 162.784 83.8012 162.769 83.7637 162.743C83.7262 162.717 83.6967 162.681 83.6785 162.64C83.6677 162.612 83.6629 162.582 83.6643 162.552C83.6658 162.522 83.6735 162.492 83.6869 162.465C83.7004 162.438 83.7193 162.415 83.7424 162.395C83.7656 162.376 83.7924 162.362 83.8214 162.354C86.7527 161.366 89.7208 162.668 89.8433 162.725C89.8712 162.736 89.8965 162.753 89.9177 162.774C89.9388 162.796 89.9553 162.821 89.966 162.849C89.9768 162.877 89.9816 162.907 89.9801 162.937C89.9787 162.967 89.971 162.997 89.9576 163.023C89.9251 163.078 89.8739 163.118 89.8137 163.137C89.7535 163.155 89.6884 163.151 89.631 163.125C89.6024 163.125 86.72 161.852 83.9928 162.77C83.96 162.782 83.9255 162.787 83.8908 162.787Z" fill="#F0F0F0"/>
<path d="M83.9864 160.733C83.941 160.732 83.8969 160.718 83.8593 160.692C83.8216 160.667 83.7921 160.631 83.7741 160.59C83.7626 160.562 83.757 160.532 83.7579 160.501C83.7587 160.471 83.7659 160.441 83.779 160.414C83.7921 160.387 83.8108 160.362 83.8339 160.343C83.8569 160.323 83.8839 160.308 83.9129 160.3C85.93 159.62 88.132 159.747 90.0573 160.655C90.0841 160.668 90.1079 160.686 90.1272 160.709C90.1465 160.731 90.1609 160.758 90.1693 160.786C90.1778 160.815 90.1802 160.845 90.1764 160.874C90.1725 160.904 90.1626 160.932 90.1471 160.957C90.1119 161.011 90.0581 161.049 89.9963 161.065C89.9344 161.081 89.8688 161.073 89.8123 161.043C88.0168 160.216 85.9747 160.099 84.0966 160.716C84.0622 160.732 84.0239 160.738 83.9864 160.733Z" fill="#F0F0F0"/>
<path d="M84.1249 158.426C84.0808 158.424 84.038 158.41 84.0013 158.386C83.9646 158.361 83.9353 158.327 83.9167 158.287C83.9044 158.26 83.8982 158.23 83.8984 158.199C83.8987 158.169 83.9055 158.139 83.9182 158.112C83.931 158.084 83.9495 158.06 83.9724 158.04C83.9954 158.021 84.0223 158.006 84.0514 157.997C87.0685 156.879 90.11 158.349 90.2407 158.406C90.2682 158.418 90.2928 158.435 90.313 158.458C90.3331 158.48 90.3483 158.506 90.3576 158.535C90.3668 158.563 90.3699 158.593 90.3667 158.623C90.3634 158.653 90.3539 158.682 90.3386 158.708C90.3048 158.762 90.2521 158.801 90.1908 158.817C90.1296 158.834 90.0643 158.827 90.008 158.798C89.9794 158.798 87.0358 157.369 84.2351 158.389C84.2026 158.412 84.1644 158.425 84.1249 158.426Z" fill="#EBEBEB"/>
<path d="M87.6958 77.9492C87.0263 90.638 85.8546 116.363 85.8546 116.363C85.7076 117.837 84.4012 124.365 84.2664 129.697C84.0541 138.25 84.3848 146.17 84.3848 146.17C84.3848 146.17 89.1248 148.264 92.4113 146.913C92.4113 146.913 96.7471 127.57 97.8453 122.009C99.1517 115.371 101.928 102.155 101.928 102.155L104.12 119.71C104.12 119.71 103.434 125.953 104.12 131.113C104.59 134.628 106.341 146.325 106.341 146.325C106.341 146.325 110.714 147.293 114.29 146.113C114.29 146.113 115.964 121.266 116.176 118.024C116.389 114.783 116.993 98.1133 116.225 77.6675L87.6958 77.9492Z" fill="#37474F"/>
<path d="M114.462 143.786C112.703 145.117 107.93 145.051 105.93 143.961L106.534 147.636C107.971 148.493 112.184 148.66 114.291 147.162L114.462 143.786Z" fill="#263238"/>
<path d="M92.964 144.749C90.4776 145.88 85.7785 145.215 84.3047 143.786V147.366C85.4642 148.57 89.9347 149.15 92.3026 148.232L92.964 144.749Z" fill="#263238"/>
<path d="M101.945 102.143L103.77 90.7807C106.079 90.6396 108.26 89.6731 109.915 88.0576C109.915 88.0576 109.633 90.6746 104.738 92.3566L103.064 101.783L104.138 119.682L101.945 102.143Z" fill="#263238"/>
<path d="M125.788 11.0928C125.82 10.7363 125.974 10.4019 126.224 10.1456C126.427 9.91996 126.608 9.67677 126.767 9.41893C127.555 8.19414 127.274 6.91627 127.641 5.79763C124.694 4.8872 122.742 4.94844 121.452 6.08341L118.39 5.92827C118.076 6.77338 118.353 7.46335 118.9 9.17397C119.227 10.1865 119.366 10.3457 119.394 10.754C119.428 11.402 119.395 12.0519 119.296 12.6932C119.006 15.0734 117.704 23.6959 117.704 23.6959C117.68 24.1736 118.157 24.5737 118.794 24.9207C119.768 25.312 120.803 25.533 121.852 25.5739C122.892 25.628 123.933 25.5107 124.934 25.2269C125.624 24.9901 126.118 24.5859 126.159 24.1083C126.159 24.1083 125.812 13.2484 125.792 12.5217C125.755 11.7379 125.767 11.595 125.788 11.0928Z" fill="#B16668"/>
<path d="M123.266 7.18569C123.956 8.11245 123.96 9.87206 123.474 10.5661C125.034 9.12086 123.674 6.61412 123.674 6.61412C124.123 6.86211 124.648 6.93484 125.148 6.81825C125.76 7.43881 126.238 7.3939 126.626 7.22651C127.029 6.96988 127.348 6.60089 127.544 6.16503C127.573 6.04255 127.606 5.92007 127.642 5.80167C127.069 5.62023 126.485 5.47031 125.895 5.35258C123.931 5.00964 122.429 5.22602 121.453 6.08746C122.171 6.2205 122.816 6.61102 123.266 7.18569Z" fill="#9A4A4D"/>
<path d="M126.242 2.11523C126.976 2.21322 127.148 2.22138 127.601 2.97259C127.897 3.41966 128.106 3.91819 128.218 4.44234C128.311 4.79345 128.136 5.03024 127.895 5.41809C127.605 5.90082 127.263 6.34993 126.874 6.7572C126.743 6.90641 126.563 7.00281 126.366 7.02836C126.169 7.05391 125.969 7.00686 125.805 6.89601C125.579 6.71928 125.368 6.52546 125.172 6.31627L126.242 2.11523Z" fill="#B16668"/>
<path d="M126.229 6.67119C126.074 6.46298 126.099 6.24251 126.36 5.85466C126.761 5.28504 127.095 4.67136 127.356 4.02564C127.45 3.64187 126.87 2.64979 126.507 2.13538L126.242 2.09863L125.172 6.29967C125.368 6.50886 125.579 6.70268 125.805 6.8794C125.969 6.99026 126.169 7.03731 126.366 7.01176C126.563 6.98621 126.743 6.88981 126.874 6.74059C126.915 6.69977 126.96 6.65486 127.001 6.60587C126.707 6.8345 126.372 6.8794 126.229 6.67119Z" fill="#9A4A4D"/>
<path d="M127.895 5.41846C127.745 5.69209 127.578 5.95534 127.393 6.20641C127.303 6.3328 127.206 6.4541 127.103 6.56976C127 6.6901 126.887 6.80079 126.764 6.90046C126.633 6.99699 126.477 7.05623 126.315 7.07193C126.151 7.08937 125.985 7.05051 125.846 6.9617C125.597 6.77345 125.371 6.55698 125.172 6.31664C125.286 6.42279 125.401 6.52894 125.515 6.62692C125.628 6.73031 125.75 6.8245 125.878 6.90862C126.008 6.98244 126.158 7.01384 126.307 6.99844C126.455 6.98079 126.596 6.92447 126.715 6.83513C126.837 6.7433 126.948 6.63783 127.046 6.52077C127.152 6.40646 127.246 6.28806 127.344 6.16966C127.442 6.05127 127.536 5.9247 127.626 5.79814C127.715 5.67158 127.805 5.54502 127.895 5.41846Z" fill="#9A4A4D"/>
<path opacity="0.2" d="M127.895 5.41846C127.745 5.69209 127.578 5.95534 127.393 6.20641C127.303 6.3328 127.206 6.4541 127.103 6.56976C127 6.6901 126.887 6.80079 126.764 6.90046C126.633 6.99699 126.477 7.05623 126.315 7.07193C126.151 7.08937 125.985 7.05051 125.846 6.9617C125.597 6.77345 125.371 6.55698 125.172 6.31664C125.286 6.42279 125.401 6.52894 125.515 6.62692C125.628 6.73031 125.75 6.8245 125.878 6.90862C126.008 6.98244 126.158 7.01384 126.307 6.99844C126.455 6.98079 126.596 6.92447 126.715 6.83513C126.837 6.7433 126.948 6.63783 127.046 6.52077C127.152 6.40646 127.246 6.28806 127.344 6.16966C127.442 6.05127 127.536 5.9247 127.626 5.79814C127.715 5.67158 127.805 5.54502 127.895 5.41846Z" fill="black"/>
<path d="M126.582 2.38886C126.74 2.38354 126.898 2.40706 127.047 2.45826C127.114 2.47916 127.179 2.50369 127.243 2.53175L127.308 2.56033C127.248 2.48877 127.179 2.42439 127.104 2.36845L127.023 2.34395C126.876 2.31408 126.723 2.32538 126.582 2.37661C126.582 2.37661 126.574 2.38886 126.582 2.38886Z" fill="#9A4A4D"/>
<path d="M127.176 2.62507H127.217V2.60057C127.217 2.60057 127.217 2.60057 127.189 2.57608H127.148L127.066 2.55566H126.985H126.891H126.927H126.968L127.054 2.57608L127.176 2.62507Z" fill="#9A4A4D"/>
<path d="M124.554 1.24104C124.828 1.18268 125.112 1.20311 125.375 1.29995C125.637 1.39678 125.867 1.56606 126.036 1.78811C126.39 2.26996 126.703 2.78073 126.971 3.31502C127.044 3.50938 127.063 3.71938 127.028 3.92372C126.993 4.12806 126.904 4.31948 126.771 4.47857C126.428 5.03381 125.808 6.02997 125.293 6.27493C125.051 6.38069 124.783 6.41154 124.523 6.36352C124.264 6.3155 124.024 6.19079 123.836 6.00548L124.554 1.24104Z" fill="#B16668"/>
<path d="M125.348 4.04145C125.544 3.70214 125.619 3.30622 125.56 2.91873C125.372 2.33236 125.125 1.76617 124.825 1.22852C124.727 1.22852 124.637 1.22852 124.551 1.22852L123.812 5.99296C124.001 6.17827 124.24 6.30298 124.5 6.351C124.76 6.39902 125.028 6.36817 125.27 6.26241C125.346 6.22393 125.417 6.17739 125.482 6.1236C125.361 6.17544 125.229 6.19905 125.096 6.19269C124.964 6.18633 124.835 6.15015 124.719 6.08686C124.535 5.9603 124.47 5.80924 124.633 5.50304C124.796 5.19684 125.086 4.64568 125.348 4.04145Z" fill="#9A4A4D"/>
<path d="M126.751 4.47852C126.596 4.76756 126.426 5.04828 126.241 5.31954C126.151 5.45427 126.053 5.58491 125.951 5.7278C125.85 5.84554 125.742 5.95732 125.629 6.06258C125.507 6.17993 125.363 6.27097 125.205 6.32999C125.047 6.389 124.878 6.41472 124.71 6.40552C124.544 6.39256 124.383 6.34529 124.236 6.26671C124.091 6.18896 123.954 6.0959 123.828 5.98909C123.955 6.08396 124.092 6.16473 124.236 6.22997C124.381 6.29783 124.538 6.33667 124.698 6.34428C124.857 6.34753 125.015 6.3198 125.163 6.26263C125.315 6.2036 125.454 6.11476 125.571 6.00134C125.807 5.7787 126.019 5.53245 126.204 5.26647C126.302 5.13582 126.396 5.00109 126.486 4.8582L126.751 4.47852Z" fill="#9A4A4D"/>
<path opacity="0.2" d="M126.751 4.47852C126.596 4.76756 126.426 5.04828 126.241 5.31954C126.151 5.45427 126.053 5.58491 125.951 5.7278C125.85 5.84554 125.742 5.95732 125.629 6.06258C125.507 6.17993 125.363 6.27097 125.205 6.32999C125.047 6.389 124.878 6.41472 124.71 6.40552C124.544 6.39256 124.383 6.34529 124.236 6.26671C124.091 6.18896 123.954 6.0959 123.828 5.98909C123.955 6.08396 124.092 6.16473 124.236 6.22997C124.381 6.29783 124.538 6.33667 124.698 6.34428C124.857 6.34753 125.015 6.3198 125.163 6.26263C125.315 6.2036 125.454 6.11476 125.571 6.00134C125.807 5.7787 126.019 5.53245 126.204 5.26647C126.302 5.13582 126.396 5.00109 126.486 4.8582L126.751 4.47852Z" fill="black"/>
<path d="M125.662 1.57253C125.619 1.55912 125.575 1.54956 125.531 1.54395C125.443 1.52767 125.353 1.52767 125.266 1.54395C125.358 1.55516 125.45 1.57428 125.539 1.60111L125.666 1.63785C125.707 1.65756 125.751 1.67131 125.796 1.67868C125.829 1.67868 125.825 1.61744 125.796 1.60519C125.753 1.58837 125.708 1.57739 125.662 1.57253Z" fill="#9A4A4D"/>
<path d="M125.476 1.41258L125.676 1.45749C125.593 1.40216 125.504 1.35693 125.41 1.32276C125.253 1.30989 125.095 1.3395 124.953 1.40849C125.126 1.38129 125.303 1.38267 125.476 1.41258Z" fill="#9A4A4D"/>
<path d="M126.032 1.83313C126.024 1.81656 126.013 1.80141 125.999 1.78822C125.99 1.77231 125.979 1.75728 125.967 1.74331C125.853 1.7594 125.738 1.7594 125.624 1.74331C125.451 1.72228 125.279 1.69092 125.109 1.64941C125.109 1.64941 125.109 1.64941 125.138 1.68208C125.287 1.76692 125.453 1.81845 125.624 1.83313C125.759 1.85799 125.897 1.85799 126.032 1.83313Z" fill="#9A4A4D"/>
<path d="M122.94 0.486347C123.552 0.449604 124.066 0.486347 124.336 0.849702C124.703 1.41505 125.004 2.02048 125.234 2.65423C125.348 3.06249 125.422 3.18497 125.071 4.0709C124.72 4.95684 124.148 5.80194 123.813 6.00199C123.479 6.20204 122.491 6.29186 122.282 5.78561C122.074 5.27937 122.94 0.486347 122.94 0.486347Z" fill="#B16668"/>
<path d="M123.52 2.53585C123.561 1.83418 123.454 1.13179 123.206 0.474121H122.941C122.941 0.474121 122.071 5.27122 122.283 5.78155C122.496 6.29188 123.292 6.18982 123.696 6.05509C123.165 6.1245 122.904 5.8877 122.851 5.67132C122.798 5.45494 123.104 5.14058 123.104 5.14058C123.467 4.96846 123.809 4.75325 124.121 4.4996C124.255 4.35814 124.357 4.1883 124.418 4.00251C124.479 3.81672 124.497 3.6197 124.472 3.42587C124.566 2.66242 124.321 2.59301 123.52 2.53585Z" fill="#9A4A4D"/>
<path d="M125.07 4.07031C125.017 4.23001 124.956 4.38674 124.886 4.53982C124.817 4.69496 124.743 4.84602 124.661 4.99299C124.5 5.28613 124.305 5.56004 124.082 5.80952C124.023 5.87321 123.958 5.93193 123.89 5.98507C123.818 6.03443 123.74 6.07295 123.657 6.09939C123.493 6.15067 123.323 6.17817 123.151 6.18104C122.98 6.1856 122.811 6.16074 122.649 6.10755C122.567 6.08124 122.492 6.03774 122.429 5.97999C122.365 5.92224 122.315 5.85159 122.281 5.77277C122.32 5.84621 122.373 5.9105 122.439 5.96123C122.505 6.01196 122.58 6.04794 122.661 6.06672C122.819 6.11163 122.983 6.12822 123.147 6.11572C123.311 6.10612 123.475 6.07734 123.633 6.02998C123.708 6.00386 123.78 5.96672 123.845 5.91975C123.908 5.86931 123.967 5.81329 124.02 5.75236C124.245 5.50256 124.44 5.22872 124.604 4.93583C124.777 4.65712 124.932 4.36807 125.07 4.07031Z" fill="#9A4A4D"/>
<path opacity="0.2" d="M125.07 4.07031C125.017 4.23001 124.956 4.38674 124.886 4.53982C124.817 4.69496 124.743 4.84602 124.661 4.99299C124.5 5.28613 124.305 5.56004 124.082 5.80952C124.023 5.87321 123.958 5.93193 123.89 5.98507C123.818 6.03443 123.74 6.07295 123.657 6.09939C123.493 6.15067 123.323 6.17817 123.151 6.18104C122.98 6.1856 122.811 6.16074 122.649 6.10755C122.567 6.08124 122.492 6.03774 122.429 5.97999C122.365 5.92224 122.315 5.85159 122.281 5.77277C122.32 5.84621 122.373 5.9105 122.439 5.96123C122.505 6.01196 122.58 6.04794 122.661 6.06672C122.819 6.11163 122.983 6.12822 123.147 6.11572C123.311 6.10612 123.475 6.07734 123.633 6.02998C123.708 6.00386 123.78 5.96672 123.845 5.91975C123.908 5.86931 123.967 5.81329 124.02 5.75236C124.245 5.50256 124.44 5.22872 124.604 4.93583C124.777 4.65712 124.932 4.36807 125.07 4.07031Z" fill="black"/>
<path d="M124.34 0.954848C124.276 0.950781 124.212 0.950781 124.148 0.954848H123.932C123.793 0.954848 123.654 0.930352 123.523 0.92627C123.656 0.97194 123.793 1.00609 123.932 1.02834C124.001 1.0324 124.071 1.0324 124.14 1.02834C124.206 1.04063 124.274 1.04063 124.34 1.02834C124.373 1.01609 124.373 0.958931 124.34 0.954848Z" fill="#9A4A4D"/>
<path d="M123.925 0.723011C123.809 0.706844 123.69 0.718026 123.578 0.755672C123.684 0.745477 123.791 0.745477 123.897 0.755672C123.949 0.762631 124.001 0.773549 124.052 0.788333L124.129 0.812829C124.15 0.824541 124.172 0.832818 124.195 0.837325C124.223 0.837325 124.227 0.788334 124.195 0.772003C124.148 0.745867 124.097 0.727918 124.044 0.718928C124.004 0.71788 123.964 0.719244 123.925 0.723011Z" fill="#9A4A4D"/>
<path d="M124.07 0.61685C123.975 0.570666 123.875 0.536384 123.772 0.514784C123.558 0.511196 123.35 0.57871 123.18 0.706668C123.18 0.706668 123.18 0.731164 123.18 0.706668C123.384 0.612317 123.609 0.571569 123.833 0.588272C123.912 0.593694 123.991 0.603233 124.07 0.61685Z" fill="#9A4A4D"/>
<path d="M118.637 5.29095C118.579 4.29697 118.579 3.30053 118.637 2.30654C118.673 2.08424 118.76 1.87317 118.89 1.68927C119.02 1.50538 119.19 1.35348 119.388 1.24506C120.07 0.795432 120.785 0.398272 121.527 0.0570096C121.935 -0.0899654 122.789 0.0937529 122.952 0.546926C123.176 1.17974 123.238 3.10266 123.181 3.93143C123.18 4.53247 122.96 5.11273 122.564 5.56449C122.248 5.82697 121.87 6.00408 121.466 6.0789L118.637 5.29095Z" fill="#B16668"/>
<path d="M123.175 2.51953C122.394 2.61816 121.606 2.65502 120.819 2.62976C120.048 2.60118 119.619 2.65018 119.337 3.03803C119.158 3.27679 119.01 3.53746 118.896 3.81373C118.806 4.02603 118.684 3.90763 118.586 3.44221C118.586 4.05052 118.615 4.7609 118.635 5.29164L121.452 6.10817C121.856 6.03334 122.234 5.85624 122.55 5.59376C122.947 5.14199 123.166 4.56174 123.167 3.9607C123.175 3.61368 123.195 3.06661 123.175 2.51953Z" fill="#9A4A4D"/>
<path d="M121.453 6.09593C121.575 6.06262 121.695 6.0231 121.812 5.97753C121.93 5.93386 122.044 5.88342 122.155 5.82647C122.263 5.76799 122.364 5.6982 122.457 5.61826C122.547 5.53296 122.628 5.43855 122.698 5.33656C122.839 5.13308 122.947 4.90843 123.017 4.67109C123.053 4.55159 123.083 4.43032 123.107 4.30773C123.131 4.18117 123.147 4.05869 123.168 3.93213C123.166 4.18647 123.136 4.43984 123.078 4.68742C123.018 4.93787 122.912 5.17475 122.764 5.38555C122.689 5.49051 122.605 5.58764 122.511 5.67542C122.41 5.75753 122.301 5.82743 122.184 5.88363C121.951 5.98825 121.705 6.05972 121.453 6.09593Z" fill="#9A4A4D"/>
<path opacity="0.2" d="M121.453 6.09593C121.575 6.06262 121.695 6.0231 121.812 5.97753C121.93 5.93386 122.044 5.88342 122.155 5.82647C122.263 5.76799 122.364 5.6982 122.457 5.61826C122.547 5.53296 122.628 5.43855 122.698 5.33656C122.839 5.13308 122.947 4.90843 123.017 4.67109C123.053 4.55159 123.083 4.43032 123.107 4.30773C123.131 4.18117 123.147 4.05869 123.168 3.93213C123.166 4.18647 123.136 4.43984 123.078 4.68742C123.018 4.93787 122.912 5.17475 122.764 5.38555C122.689 5.49051 122.605 5.58764 122.511 5.67542C122.41 5.75753 122.301 5.82743 122.184 5.88363C121.951 5.98825 121.705 6.05972 121.453 6.09593Z" fill="black"/>
<path d="M122.316 0.0939005H122.386C122.22 0.037095 122.046 0.00544392 121.871 0C121.763 0.0275944 121.66 0.0746278 121.569 0.13881C121.466 0.208902 121.383 0.304572 121.328 0.416429C121.483 0.252851 121.686 0.143947 121.908 0.106149C122.043 0.0871375 122.18 0.08303 122.316 0.0939005ZM122.006 0.302115C121.928 0.317942 121.853 0.342599 121.781 0.375603C121.863 0.375603 121.945 0.375603 122.022 0.375603H122.259C122.408 0.39044 122.557 0.413611 122.704 0.445008C122.773 0.445008 122.753 0.338859 122.704 0.330694C122.55 0.30027 122.395 0.279814 122.239 0.269454C122.16 0.273934 122.082 0.284858 122.006 0.302115ZM122.822 0.685884C122.738 0.665443 122.65 0.665443 122.565 0.685884C122.458 0.694094 122.35 0.694094 122.243 0.685884C122.059 0.668857 121.878 0.63746 121.7 0.591983C121.875 0.690389 122.068 0.755445 122.267 0.783867C122.357 0.783867 122.451 0.783867 122.541 0.783867C122.637 0.7953 122.735 0.773722 122.818 0.722627C122.818 0.722627 122.822 0.689966 122.81 0.685884H122.822Z" fill="#9A4A4D"/>
<path d="M120.927 2.63367C120.848 2.43758 120.824 2.22363 120.858 2.01495C120.892 1.80627 120.982 1.61081 121.119 1.44971C120.982 1.51635 120.864 1.6156 120.774 1.73875C120.684 1.86189 120.626 2.00517 120.605 2.156C120.571 2.39124 120.558 2.62887 120.564 2.86638L120.927 2.63367Z" fill="#9A4A4D"/>
<path d="M123.674 2.62941C123.255 2.66829 122.839 2.73512 122.428 2.82946C122.02 2.90703 121.493 2.90703 120.546 3.04584C120.33 3.06171 120.119 3.12299 119.928 3.22568C119.736 3.32838 119.569 3.47019 119.436 3.6419C119.101 4.01342 118.921 4.52375 118.391 5.94043L121.453 6.09557L121.702 5.25046C122.205 5.16061 122.699 5.02253 123.175 4.83811C123.972 4.49926 124.4 3.93177 124.457 3.4786C124.515 3.02542 124.478 2.57225 123.674 2.62941Z" fill="#B16668"/>
<path d="M121.698 5.24635C121.734 5.07209 121.723 4.8912 121.665 4.72296C121.606 4.55472 121.504 4.40544 121.367 4.29102C121.555 4.34804 121.714 4.47292 121.815 4.64127C121.915 4.80962 121.949 5.00934 121.91 5.20144L121.698 5.24635Z" fill="#9A4A4D"/>
<path d="M121.453 6.09578L121.563 5.68752C121.6 5.54871 121.637 5.40581 121.678 5.27925C121.837 5.24659 121.992 5.20576 122.151 5.16494C122.31 5.12411 122.466 5.08328 122.621 5.03429C122.776 4.9853 122.927 4.92814 123.078 4.8669C123.229 4.80829 123.375 4.7387 123.515 4.65869C123.795 4.49938 124.039 4.28229 124.229 4.0218C124.324 3.89082 124.392 3.74235 124.429 3.58496C124.442 3.50515 124.45 3.42475 124.454 3.34408C124.464 3.26275 124.464 3.18046 124.454 3.09912C124.474 3.17907 124.483 3.26166 124.478 3.34408C124.478 3.42573 124.478 3.50739 124.478 3.59312C124.449 3.75641 124.386 3.91198 124.295 4.05038C124.104 4.30519 123.862 4.51671 123.584 4.67094C123.297 4.83412 122.992 4.96163 122.674 5.05062C122.361 5.14757 122.042 5.2226 121.718 5.27517H121.739L121.604 5.68343C121.543 5.81816 121.502 5.95697 121.453 6.09578Z" fill="#9A4A4D"/>
<path opacity="0.2" d="M121.453 6.09578L121.563 5.68752C121.6 5.54871 121.637 5.40581 121.678 5.27925C121.837 5.24659 121.992 5.20576 122.151 5.16494C122.31 5.12411 122.466 5.08328 122.621 5.03429C122.776 4.9853 122.927 4.92814 123.078 4.8669C123.229 4.80829 123.375 4.7387 123.515 4.65869C123.795 4.49938 124.039 4.28229 124.229 4.0218C124.324 3.89082 124.392 3.74235 124.429 3.58496C124.442 3.50515 124.45 3.42475 124.454 3.34408C124.464 3.26275 124.464 3.18046 124.454 3.09912C124.474 3.17907 124.483 3.26166 124.478 3.34408C124.478 3.42573 124.478 3.50739 124.478 3.59312C124.449 3.75641 124.386 3.91198 124.295 4.05038C124.104 4.30519 123.862 4.51671 123.584 4.67094C123.297 4.83412 122.992 4.96163 122.674 5.05062C122.361 5.14757 122.042 5.2226 121.718 5.27517H121.739L121.604 5.68343C121.543 5.81816 121.502 5.95697 121.453 6.09578Z" fill="black"/>
<path d="M108.967 42.4679C109.976 41.2731 111.068 40.1504 112.233 39.1079C113.617 37.8096 116.953 28.6808 116.953 28.6808L118.994 14.9795C120.064 16.0941 124.571 16.535 126.286 15.596C126.286 15.596 126.257 20.6462 126.118 28.7788C126.069 31.6897 125.967 32.4532 123.926 37.5892C122.754 40.5287 122.081 42.1617 120.252 46.0321C118.619 49.4329 115.867 54.9485 115.353 57.3532C115.218 57.9983 115.218 58.8679 114.336 58.8842C112.976 58.9128 111.752 54.4137 110.8 52.4949C108.963 48.845 108.751 44.1377 108.967 42.4679Z" fill="#37474F"/>
<path d="M118.994 14.1548L118.586 17.1759C118.586 17.1759 119.223 18.2088 122.309 18.4701C125.396 18.7314 126.269 18.1354 126.269 18.1354V15.0448C126.269 15.0448 125.584 15.5429 122.673 15.253C119.762 14.9631 118.994 14.1548 118.994 14.1548Z" fill="#455A64"/>
<path d="M96.2812 42.8478C91.7903 43.848 90.4593 44.2808 88.3445 44.7707C88.3445 44.7707 84.6048 49.7434 86.2012 63.5019C86.4094 65.3227 87.5893 70.5281 87.5852 73.7942C87.5852 76.9174 87.5566 78.2198 87.2912 83.1843C87.2912 83.1843 93.3499 87.124 105.867 85.8502C115.698 84.8459 116.384 81.3879 116.384 81.3879C116.384 81.3879 115.841 67.858 115.608 60.6318C115.376 53.283 114.943 50.2618 113.094 46.6038C112.33 45.0973 110.587 43.0642 108.978 42.4722C107.539 42.7247 106.088 42.8978 104.63 42.9907L96.2812 42.8478Z" fill="#455A64"/>
<path d="M106.161 52.3969C106.137 52.3234 106.611 50.8741 106.464 49.5391C107.07 48.6224 107.349 47.5275 107.256 46.4322C106.833 46.1712 106.424 45.8877 106.031 45.583L105.418 49.7677L103.524 50.4209C103.524 50.4209 98.2901 46.9058 97.7472 46.4036L96.1917 47.51C97.0572 48.8532 98.9597 50.278 101.965 50.8537C102.021 51.3695 102.231 51.8566 102.567 52.2518C102.903 52.6471 103.351 52.9323 103.851 53.0706C105.594 55.4385 106.202 58.0677 105.439 60.946C104.5 64.4775 102.63 66.3106 98.7433 69.2705C96.1386 71.2587 94.5954 72.7693 93.3828 76.9622L95.0934 81.8613L101.654 78.387C102.136 76.5662 103.075 75.2107 105.349 72.4019C108.648 68.3192 108.827 65.196 108.77 62.3137C108.689 57.7411 107.051 53.8299 106.161 52.3969Z" fill="#37474F"/>
<path d="M106.171 52.3968C105.86 51.4986 104.129 52.1232 104.085 52.8785C104.823 54.0461 105.93 57.3041 105.436 59.7169C104.701 63.2974 102.766 65.0815 98.9037 68.0414C96.2989 70.0297 94.7516 71.5403 93.5391 75.7331L95.2538 80.6323L100.814 77.6397C101.533 75.6678 102.778 73.9653 105.052 71.1728C108.351 67.0902 108.988 63.967 108.931 61.0846C108.897 57.9783 107.936 54.9528 106.171 52.3968Z" fill="#EC396F"/>
<path d="M102.359 50.4413C99.6198 49.9146 97.0519 47.9917 96.4844 47.3262L98.2767 46.0483C99.9097 48.0897 102.845 49.6533 103.854 49.7799L102.359 50.4413Z" fill="#EC396F"/>
<path d="M106.21 49.3391C106.816 48.3765 107.109 47.2496 107.047 46.1138L105.875 45.1748C105.875 45.1748 105.794 47.6244 105.234 49.1309L106.21 49.3391Z" fill="#EC396F"/>
<path d="M102.352 50.4413C103.168 48.4898 105.54 48.6735 106.193 49.3186C106.545 50.3182 106.532 51.41 106.157 52.401C105.842 51.8621 104.421 52.45 104.062 52.8787C103.266 52.6051 102.372 51.021 102.352 50.4413Z" fill="#EC396F"/>
<path opacity="0.2" d="M104.209 51.621C103.474 51.4862 102.984 49.8981 103.478 49.1714C102.963 49.4468 102.564 49.8971 102.352 50.4411C102.352 51.0208 103.254 52.6008 104.062 52.8907C104.421 52.4824 105.842 51.8741 106.157 52.413C106.218 52.2613 106.27 52.1058 106.312 51.9476C105.854 50.8453 104.944 51.7557 104.209 51.621Z" fill="black"/>
<path d="M103.489 35.36C105.122 32.3511 108.131 29.8403 107.098 26.0924C109.017 26.2843 110.772 23.8674 109.168 22.418C111.168 21.8383 110.666 18.2538 108.527 18.662C108.776 17.4576 108.045 15.204 106.53 15.5347C104.897 17.1678 104.109 16.9555 99.8717 16.8493C92.8699 16.6697 89.612 18.8294 90.1917 24.1981C88.9424 24.9738 88.2606 28.1174 89.465 30.8079C91.2695 35.111 93.5476 34.6782 94.9888 38.4996L103.489 35.36Z" fill="#263238"/>
<path d="M107.885 38.5238C106.958 39.1566 106.158 39.3894 104.19 39.9405L104.219 41.0918C104.394 42.3166 104.354 42.6146 104.929 43.2189C105.987 44.8519 105.338 46.1502 104.113 48.6447C100.479 44.9703 97.6866 46.9218 94.8084 42.7698C95.2452 42.3615 95.1881 41.8267 95.1391 40.3937L94.6982 34.976C94.6982 34.976 94.6982 35.4904 93.6693 35.6864C93.1883 35.7482 92.6994 35.6866 92.2487 35.5073C91.798 35.3281 91.4003 35.037 91.0932 34.6617C89.7786 32.9551 89.5459 31.6854 90.2767 30.3136C90.934 29.0644 92.4486 28.7377 93.3713 29.3624C94.3593 30.0319 94.3756 30.5545 94.7308 31.2771C95.086 31.9998 96.3639 32.0937 96.1148 29.2032C97.9684 28.8561 98.3317 25.9044 97.8173 23.3487C99.4504 21.9361 102.896 20.9971 105.574 21.7156C106.677 22.0095 107.652 22.4995 108.265 24.451C108.512 25.224 108.65 26.028 108.673 26.8393C108.722 27.6354 109.155 28.2437 109.4 29.3787C109.605 30.5539 109.699 31.7459 109.681 32.9388C109.735 36.2743 108.889 37.842 107.885 38.5238Z" fill="#B16668"/>
<path d="M107.774 25.3085L106.007 26.3536C105.933 26.2416 105.883 26.1156 105.859 25.9835C105.836 25.8514 105.839 25.7159 105.87 25.5853C105.9 25.4546 105.957 25.3316 106.037 25.2236C106.116 25.1157 106.217 25.0251 106.333 24.9574C106.573 24.8203 106.856 24.7803 107.124 24.8456C107.392 24.9109 107.625 25.0766 107.774 25.3085Z" fill="#263238"/>
<path d="M101.676 27.0434L99.5 26.8842C99.5034 26.7408 99.5361 26.5996 99.596 26.4692C99.656 26.3389 99.7419 26.2222 99.8485 26.1262C99.9552 26.0303 100.08 25.9571 100.216 25.9112C100.352 25.8654 100.496 25.8478 100.639 25.8595C100.93 25.8893 101.198 26.0279 101.39 26.2476C101.583 26.4672 101.685 26.7516 101.676 27.0434Z" fill="#263238"/>
<path d="M101.893 28.6151C101.92 28.7136 101.925 28.8168 101.909 28.9177C101.893 29.0185 101.856 29.1148 101.799 29.1999C101.743 29.2851 101.668 29.3571 101.582 29.4111C101.495 29.4652 101.398 29.5 101.296 29.5133C101.092 29.5837 100.869 29.5704 100.674 29.4763C100.48 29.3822 100.331 29.2149 100.26 29.0111C100.233 28.9039 100.227 28.7924 100.244 28.6831C100.26 28.5738 100.297 28.4687 100.354 28.374C100.411 28.2792 100.486 28.1965 100.575 28.1307C100.664 28.0649 100.765 28.0173 100.872 27.9905C100.979 27.9637 101.091 27.9582 101.2 27.9745C101.309 27.9908 101.414 28.0284 101.509 28.0853C101.604 28.1421 101.686 28.2171 101.752 28.3059C101.818 28.3947 101.866 28.4956 101.893 28.6029V28.6151Z" fill="#263238"/>
<path d="M107.964 27.8562C107.967 27.9626 107.948 28.0685 107.907 28.167C107.867 28.2655 107.806 28.3544 107.729 28.4279C107.652 28.5015 107.561 28.558 107.461 28.5938C107.36 28.6297 107.254 28.644 107.147 28.636C107.043 28.6514 106.936 28.6451 106.834 28.6173C106.732 28.5895 106.637 28.541 106.554 28.4746C106.472 28.4083 106.404 28.3257 106.355 28.2319C106.306 28.1381 106.277 28.0352 106.27 27.9297C106.258 27.8159 106.271 27.7011 106.305 27.5922C106.34 27.4833 106.396 27.3826 106.471 27.2963C106.546 27.21 106.638 27.1398 106.741 27.0901C106.844 27.0404 106.956 27.0122 107.07 27.0072C107.184 27.0022 107.298 27.0205 107.405 27.061C107.512 27.1015 107.609 27.1634 107.691 27.2429C107.774 27.3223 107.839 27.4177 107.883 27.5231C107.927 27.6286 107.949 27.7419 107.948 27.8562H107.964Z" fill="#263238"/>
<path d="M103.359 27.3539L104.368 32.3061L107.258 30.8936C106.152 28.7706 104.368 27.1334 103.359 27.3539Z" fill="#9A4A4D"/>
<path d="M104.367 32.3061L107.086 31.808C107.086 31.808 107.715 30.6281 106.89 30.7914C106.066 30.9547 104.367 32.3061 104.367 32.3061Z" fill="#9A4A4D"/>
<path opacity="0.2" d="M104.367 32.3061L107.086 31.808C107.086 31.808 107.715 30.6281 106.89 30.7914C106.066 30.9547 104.367 32.3061 104.367 32.3061Z" fill="black"/>
<path d="M103.904 33.7307C103.725 33.6369 103.534 33.5682 103.336 33.5266C103.138 33.4661 102.929 33.4465 102.723 33.469C102.516 33.4914 102.317 33.5555 102.136 33.6573C102.103 33.6818 102.079 33.7961 102.136 33.8042C102.344 33.8287 102.544 33.8042 102.765 33.8042C102.964 33.8174 103.161 33.8447 103.357 33.8859C103.538 33.9333 103.714 33.9976 103.883 34.0778C104.018 34.1349 104.169 34.2697 104.324 34.237C104.357 34.237 104.369 34.1758 104.361 34.1472C104.263 33.9579 104.101 33.8101 103.904 33.7307Z" fill="#9A4A4D"/>
<path opacity="0.2" d="M103.904 33.7307C103.725 33.6369 103.534 33.5682 103.336 33.5266C103.138 33.4661 102.929 33.4465 102.723 33.469C102.516 33.4914 102.317 33.5555 102.136 33.6573C102.103 33.6818 102.079 33.7961 102.136 33.8042C102.344 33.8287 102.544 33.8042 102.765 33.8042C102.964 33.8174 103.161 33.8447 103.357 33.8859C103.538 33.9333 103.714 33.9976 103.883 34.0778C104.018 34.1349 104.169 34.2697 104.324 34.237C104.357 34.237 104.369 34.1758 104.361 34.1472C104.263 33.9579 104.101 33.8101 103.904 33.7307Z" fill="black"/>
<path d="M106.1 38.3155C103.862 38.7237 102.364 39.4096 100 39.279C97.7833 39.1606 96.9586 37.7071 96.2891 36.6987C97.0525 38.3318 97.5792 39.0054 98.1712 39.3729C99.4817 40.1894 100.788 40.5242 104.189 39.9281C105.957 39.43 106.536 39.3198 107.435 38.7809C107.916 38.5155 107.312 38.1032 106.1 38.3155Z" fill="#9A4A4D"/>
<path d="M104.117 48.7301C103.166 48.1831 102.096 46.9868 100.72 47.9136C99.4426 48.7669 98.6016 50.3019 97.9198 50.1182C97.238 49.9345 94.6537 48.2198 93.5718 46.5337C92.4899 44.8475 92.4531 43.7411 92.4531 43.7411C93.091 43.1565 93.641 42.4827 94.0862 41.7406C94.4495 40.9772 94.5516 40.4546 95.1436 40.3975L95.2007 42.2183C95.9256 42.9959 96.7241 43.7014 97.585 44.325C99.2711 45.4518 102.839 46.1336 104.117 48.7301Z" fill="#37474F"/>
<path d="M104.117 48.7306C104.66 48.2121 105.126 47.2445 105.681 47.122C106.599 46.9138 107.947 49.3961 107.959 48.9102C107.971 48.4244 107.302 44.9787 106.587 43.9703C105.873 42.9618 104.836 41.0389 104.215 41.1124L104.289 42.1657C104.313 42.5405 104.395 42.9094 104.53 43.2599C104.777 43.9398 104.874 44.6658 104.811 45.3869C104.758 46.1953 104.211 47.9345 104.117 48.7306Z" fill="#37474F"/>
<path d="M74.3444 82.8164C74.4179 87.2215 74.6179 88.2749 74.2015 90.0426C73.6702 92.0182 73.5042 94.0742 73.7116 96.1094C74.0423 99.5879 74.1444 100.523 74.7894 101.515C75.1017 101.966 75.4899 102.36 75.9366 102.678C75.9976 102.942 76.1518 103.175 76.3709 103.334C76.5899 103.493 76.8591 103.568 77.1288 103.544C77.4268 104.724 78.2311 105.079 78.7618 104.997C79.2313 106.341 79.5783 106.5 79.8396 106.287C80.131 106.04 80.3654 105.732 80.5268 105.385C80.6881 105.039 80.7727 104.661 80.7746 104.279C80.7541 103.009 80.2479 101.421 80.0478 100.233C79.7131 98.1916 79.3089 96.1503 79.6396 96.1176C79.9703 96.0849 80.0479 98.0732 80.7827 99.2531C81.7462 100.78 83.0527 100.07 82.9343 99.5634C82.5996 98.4299 82.4278 97.2546 82.4239 96.0727C82.3055 92.4228 81.3584 92.4759 81.0808 89.9079C80.7868 87.1521 81.0073 79.9014 81.0073 79.9014L74.3444 82.8164Z" fill="#B16668"/>
<path d="M88.3581 44.77C82.4016 45.9744 81.8259 48.4934 80.25 52.0371C78.5626 55.8821 77.0839 59.8153 75.8204 63.8196C74.7262 67.1592 74.3506 68.3881 74.2445 72.2911C74.0811 78.3212 74.2445 86.7069 74.2445 86.7069C76.5797 87.503 78.9068 87.8174 81.2176 86.9233L83.6304 70.5927L89.6401 57.5691C89.6401 57.5691 92.7511 49.1589 88.3581 44.77Z" fill="#37474F"/>
<path d="M74.1797 84.0781L74.2491 87.0748C74.2491 87.0748 74.4369 87.9321 77.5152 88.1893C80.5935 88.4466 81.308 87.5688 81.308 87.5688L81.5938 84.6334C81.5938 84.6334 80.7527 85.3029 77.7969 85.1437C74.8819 84.9845 74.1797 84.0781 74.1797 84.0781Z" fill="#455A64"/>
</svg>
