<svg width="198" height="198" viewBox="0 0 198 198" fill="none" xmlns="http://www.w3.org/2000/svg">
<path d="M28.8783 183.249C67.442 201.626 129.933 201.626 168.497 183.249C207.061 164.872 207.013 135.105 168.497 116.728C129.982 98.3513 67.4612 98.3561 28.9168 116.728C-9.62768 135.1 -9.63731 164.882 28.8783 183.249Z" fill="#EBEBEB"/>
<path d="M153.132 46.6636L154.904 45.3011V41.4014C154.904 38.3154 157.364 34.7286 160.041 33.1832C162.718 31.6377 164.889 32.8895 164.889 35.9804V36.5436C165.452 35.6299 166.22 34.8601 167.133 34.2953C169.059 33.1832 170.623 34.0835 170.623 36.3077V36.5677L174.167 34.5216C175.433 33.7898 176.463 34.382 176.463 35.8456C176.42 36.6422 176.189 37.4174 175.79 38.1083C175.391 38.7992 174.835 39.3864 174.167 39.8223L153.132 51.9643C151.866 52.6961 150.836 52.1039 150.836 50.6403C150.88 49.8437 151.11 49.0685 151.509 48.3776C151.908 47.6867 152.464 47.0995 153.132 46.6636Z" fill="#EBEBEB"/>
<path d="M26.0355 152.648C25.7852 152.605 25.5204 152.528 25.2219 152.451C24.2159 152.181 23.2244 151.86 22.2514 151.488C20.3106 150.784 18.4804 149.806 16.8158 148.585C15.903 147.936 15.122 147.119 14.5145 146.178C13.9074 145.225 13.6918 144.074 13.9127 142.966C14.0351 142.42 14.3113 141.919 14.7088 141.524C15.1064 141.129 15.6086 140.856 16.1563 140.737C16.6714 140.656 17.2058 140.737 17.721 140.646C17.9847 140.625 18.2349 140.52 18.4349 140.347C18.6349 140.174 18.7745 139.941 18.8331 139.683C18.8352 139.388 18.7552 139.098 18.602 138.845C17.6666 137.132 16.8619 135.35 16.1948 133.516C15.6363 131.879 15.6027 130.108 16.0985 128.451C16.5195 126.802 17.4211 125.316 18.6887 124.18C19.2664 123.699 20.0656 123.285 20.7637 123.588C20.9857 123.701 21.1806 123.861 21.3351 124.056C21.4897 124.251 21.6002 124.478 21.6592 124.72C21.7669 125.203 21.8218 125.697 21.8229 126.193C21.8916 127.259 22.0955 128.312 22.4295 129.327C22.579 129.961 22.9429 130.524 23.4598 130.921C24.3553 131.479 25.5878 131.041 26.541 131.494C27.4943 131.946 27.8217 132.986 27.865 133.968C27.9083 134.95 27.7109 135.942 27.8217 136.919C27.8411 137.228 27.9388 137.526 28.1057 137.786C28.3708 138.07 28.6776 138.312 29.0157 138.503C29.4598 138.871 29.8158 139.333 30.0574 139.856C30.2991 140.38 30.4202 140.951 30.4118 141.527C30.3826 142.678 30.163 143.817 29.7619 144.897C29.3199 146.407 28.9979 147.949 28.799 149.509C28.6421 150.465 28.237 151.363 27.6243 152.114C27.4425 152.351 27.1944 152.528 26.9114 152.623C26.6284 152.718 26.3235 152.727 26.0355 152.648Z" fill="#EC396F"/>
<path d="M27.6365 151.848C27.6082 151.848 27.5804 151.84 27.5559 151.826C27.5314 151.812 27.5111 151.791 27.4969 151.767C21.8784 142.292 20.1019 135.619 19.5964 131.686C19.0427 127.401 19.8227 125.393 19.8564 125.311C19.8643 125.291 19.8761 125.273 19.8911 125.257C19.9062 125.241 19.9242 125.229 19.9441 125.22C19.9639 125.211 19.9854 125.207 20.0071 125.206C20.0288 125.206 20.0504 125.209 20.0706 125.217C20.0908 125.225 20.1093 125.237 20.125 125.252C20.1407 125.267 20.1532 125.285 20.1619 125.305C20.1706 125.325 20.1754 125.346 20.1758 125.368C20.1762 125.39 20.1724 125.411 20.1645 125.432C20.1645 125.465 19.3846 127.483 19.9286 131.69C20.41 135.585 22.2106 142.2 27.781 151.603C27.7922 151.622 27.7996 151.642 27.8028 151.664C27.806 151.685 27.8049 151.707 27.7995 151.728C27.7941 151.749 27.7846 151.769 27.7715 151.786C27.7584 151.804 27.742 151.818 27.7232 151.829C27.6961 151.842 27.6665 151.849 27.6365 151.848Z" fill="white"/>
<path d="M24.6299 146.356C17.7837 145.605 15.8483 143.357 15.7665 143.26C15.7359 143.23 15.7188 143.188 15.7188 143.145C15.7188 143.102 15.7359 143.06 15.7665 143.029C15.7813 143.014 15.7993 143.001 15.8191 142.992C15.839 142.984 15.8604 142.979 15.882 142.979C15.9037 142.979 15.9251 142.984 15.945 142.992C15.9648 143.001 15.9827 143.014 15.9976 143.029C15.9976 143.053 17.9523 145.273 24.6395 146.009C24.6787 146.016 24.7143 146.037 24.7399 146.067C24.7656 146.097 24.7796 146.136 24.7796 146.176C24.7796 146.215 24.7656 146.254 24.7399 146.284C24.7143 146.315 24.6787 146.335 24.6395 146.342L24.6299 146.356Z" fill="white"/>
<path d="M22.6963 142.09C22.6599 142.09 22.6244 142.078 22.5952 142.057C22.578 142.043 22.5637 142.027 22.5529 142.008C22.5421 141.989 22.5352 141.968 22.5325 141.947C22.5298 141.925 22.5314 141.904 22.5372 141.883C22.543 141.862 22.5529 141.842 22.5663 141.825C24.7377 138.97 24.8773 134.291 24.8821 134.243C24.8821 134.221 24.8865 134.199 24.895 134.18C24.9036 134.16 24.9162 134.142 24.932 134.127C24.9478 134.112 24.9664 134.1 24.9868 134.093C25.0072 134.086 25.0289 134.082 25.0506 134.084C25.0723 134.084 25.0938 134.088 25.1137 134.097C25.1336 134.105 25.1516 134.118 25.1665 134.134C25.1814 134.149 25.1929 134.168 25.2003 134.189C25.2077 134.209 25.2108 134.231 25.2095 134.252C25.2095 134.45 25.065 139.067 22.8311 142.023C22.8154 142.044 22.7951 142.061 22.7717 142.072C22.7483 142.084 22.7225 142.09 22.6963 142.09Z" fill="white"/>
<path d="M163.009 123.386C163.674 118.909 163.683 113.444 160.395 105.462C157.107 97.4795 158.128 93.2957 161.652 92.1547C165.176 91.0137 172.985 97.0751 172.696 107.267C172.412 117.108 165.763 125.235 165.763 125.235L163.009 123.386Z" fill="#EC396F"/>
<path opacity="0.1" d="M163.009 123.386C163.674 118.909 163.683 113.444 160.395 105.462C157.107 97.4795 158.128 93.2957 161.652 92.1547C165.176 91.0137 172.985 97.0751 172.696 107.267C172.412 117.108 165.763 125.235 165.763 125.235L163.009 123.386Z" fill="black"/>
<path d="M164.73 124.705C164.71 124.709 164.688 124.709 164.668 124.705C164.647 124.697 164.629 124.685 164.613 124.67C164.597 124.654 164.585 124.636 164.577 124.616C164.569 124.595 164.565 124.573 164.566 124.552C164.566 124.53 164.572 124.508 164.581 124.488C164.615 124.407 168.216 115.996 167.951 108.36C167.653 99.5736 162.785 94.7399 162.737 94.6918C162.722 94.6766 162.709 94.6585 162.701 94.6386C162.692 94.6186 162.688 94.5972 162.688 94.5755C162.687 94.5538 162.691 94.5323 162.699 94.5122C162.708 94.4921 162.719 94.4738 162.735 94.4583C162.75 94.4428 162.768 94.4304 162.788 94.4219C162.808 94.4134 162.829 94.4089 162.851 94.4087C162.873 94.4085 162.894 94.4125 162.914 94.4206C162.934 94.4287 162.953 94.4407 162.968 94.4559C163.016 94.504 167.975 99.4196 168.264 108.35C168.529 116.053 164.894 124.537 164.865 124.618C164.852 124.643 164.832 124.664 164.809 124.679C164.785 124.694 164.758 124.703 164.73 124.705Z" fill="white"/>
<path d="M163.203 127.358C163.203 127.358 165.062 116.535 171.657 110.315C178.253 104.095 189.249 102.91 192.696 106.232C196.144 109.554 193.934 112.785 189.076 113.907C183.587 115.173 180.222 117.387 183.587 119.082C186.712 120.652 186.361 124.055 183.106 125.688C177.906 128.297 168.518 125.813 166.255 130.945L163.203 127.358Z" fill="#EC396F"/>
<path d="M164.6 129.65H164.547C164.506 129.634 164.473 129.604 164.454 129.564C164.435 129.525 164.432 129.479 164.446 129.438C165.967 125.206 168.31 121.316 171.341 117.994C173.716 115.425 176.497 113.263 179.573 111.595C182.629 109.909 185.956 108.768 189.404 108.225C189.448 108.221 189.492 108.235 189.526 108.263C189.561 108.29 189.583 108.331 189.587 108.375C189.59 108.396 189.588 108.418 189.583 108.439C189.577 108.46 189.567 108.479 189.553 108.496C189.54 108.513 189.523 108.527 189.504 108.538C189.485 108.548 189.464 108.555 189.443 108.558C186.03 109.106 182.738 110.246 179.718 111.928C174.903 114.542 168.37 119.727 164.745 129.573C164.729 129.596 164.707 129.616 164.682 129.629C164.657 129.643 164.629 129.65 164.6 129.65Z" fill="white"/>
<path d="M167.941 122.842C167.906 122.842 167.873 122.831 167.844 122.812C167.816 122.792 167.794 122.764 167.782 122.731C167.768 122.69 167.771 122.644 167.79 122.605C167.809 122.565 167.842 122.535 167.883 122.519C173.511 120.555 181.58 121.585 181.662 121.595C181.684 121.598 181.705 121.605 181.723 121.616C181.742 121.627 181.759 121.641 181.772 121.658C181.785 121.675 181.795 121.695 181.8 121.716C181.806 121.737 181.807 121.759 181.804 121.78C181.801 121.802 181.794 121.823 181.784 121.841C181.773 121.86 181.758 121.877 181.741 121.89C181.724 121.903 181.704 121.913 181.683 121.918C181.662 121.924 181.64 121.925 181.619 121.922C181.542 121.922 173.545 120.892 167.994 122.832C167.978 122.84 167.959 122.843 167.941 122.842Z" fill="white"/>
<path d="M32.9473 11.8548C32.9071 11.1113 32.6921 10.3877 32.3199 9.74272C31.9476 9.09779 31.4286 8.54968 30.8049 8.14288L29.0572 7.13185C28.3934 6.7948 27.6593 6.61914 26.9148 6.61914C26.1703 6.61914 25.4363 6.7948 24.7724 7.13185L10.9501 15.1094C10.2918 15.523 9.7539 16.1025 9.39023 16.7896C9.0771 17.3356 8.88039 17.9405 8.8125 18.5662C8.8125 18.6528 8.8125 18.7395 8.8125 18.8261V34.7812C8.85329 35.5252 9.06898 36.2491 9.44208 36.894C9.81517 37.539 10.3351 38.0869 10.9597 38.4932L12.7026 39.5042L12.924 39.6197L13.0059 39.6534L13.1551 39.716L13.2707 39.7593L13.3959 39.8027L13.5355 39.8412L13.6414 39.8701L13.8051 39.9086H13.8869L14.0843 39.9423H14.1228C15.1099 40.1041 16.1227 39.9437 17.0115 39.4849L30.8049 31.5266C31.4296 31.1193 31.9495 30.5706 32.3226 29.9248C32.6957 29.2791 32.9113 28.5545 32.9521 27.8099L32.9473 11.8548Z" fill="#EC396F"/>
<path opacity="0.4" d="M15.4665 20.1983C15.2189 20.6082 15.0339 21.0528 14.9176 21.5174C15.205 20.3141 15.9446 19.2676 16.983 18.595L30.8053 10.6175C31.9896 9.93385 32.9525 10.4875 32.9525 11.8548C32.9117 11.1108 32.696 10.387 32.3229 9.74199C31.9499 9.09702 31.4299 8.54915 30.8053 8.14288L29.0576 7.13185C28.3938 6.7948 27.6597 6.61914 26.9152 6.61914C26.1707 6.61914 25.4367 6.7948 24.7728 7.13185L10.9505 15.1094C10.2922 15.523 9.75429 16.1025 9.39062 16.7896L9.43396 16.7126L15.4665 20.1983Z" fill="white"/>
<path opacity="0.1" d="M16.5397 39.7067L16.4386 39.7356L16.2653 39.7693H16.1016H15.9331C15.734 39.7546 15.5434 39.6827 15.3842 39.5623L15.3072 39.49L15.2639 39.4515L15.2061 39.3793L15.1579 39.3167L15.1098 39.2397L15.0665 39.1627C15.0665 39.1627 15.0665 39.1097 15.0328 39.0808C15.0179 39.0512 15.005 39.0207 14.9943 38.9893L14.9172 38.9123V38.816C14.9172 38.7871 14.9172 38.7582 14.9172 38.7294C14.9146 38.6829 14.9146 38.6362 14.9172 38.5897C14.9146 38.5641 14.9146 38.5383 14.9172 38.5127C14.9172 38.4405 14.9172 38.3635 14.9172 38.2816V22.3121C14.9175 22.1395 14.932 21.9672 14.9605 21.7969C14.9605 21.7344 14.9605 21.667 14.9991 21.6044V21.5273C15.1093 21.0638 15.2878 20.6193 15.5287 20.2082L9.43356 16.7129L9.39023 16.7899C9.0771 17.3359 8.88039 17.9407 8.8125 18.5665C8.8125 18.6531 8.8125 18.7398 8.8125 18.8264V34.7815C8.85329 35.5255 9.06898 36.2494 9.44208 36.8943C9.81517 37.5393 10.3351 38.0872 10.9597 38.4934L12.7026 39.5045L12.924 39.62L13.0059 39.6537L13.1551 39.7163L13.2707 39.7596L13.3959 39.803L13.5355 39.8415L13.6414 39.8704L13.8051 39.9089H13.8869L14.0843 39.9426H14.1228C14.9355 40.0661 15.7662 39.985 16.5397 39.7067Z" fill="black"/>
<path d="M26.9086 26.4861C27.8319 24.4238 28.3046 22.1883 28.2952 19.9288C28.7463 19.2291 29.1253 18.4855 29.4266 17.7094C29.0379 18.1651 28.6004 18.5768 28.1219 18.937C28.6075 18.2583 28.9468 17.4861 29.1185 16.6694C28.7018 17.2487 28.2169 17.7757 27.6741 18.2389C27.4341 18.0604 27.1429 17.9639 26.8437 17.9639C26.5445 17.9639 26.2532 18.0604 26.0132 18.2389C24.5688 19.0863 23.4711 21.532 23.8033 23.2363C21.9161 24.1992 20.2406 23.9585 19.1237 22.7549C18.5267 24.4592 18.8156 26.0769 19.8266 26.3898C19.5172 26.5756 19.1543 26.6519 18.7963 26.6064C18.7963 28.0508 19.5233 28.9029 20.6162 28.5611C20.3265 28.8496 19.9762 29.07 19.5907 29.2063C19.8796 30.2414 20.7173 30.6506 21.7139 30.0873C20.9381 31.4668 19.7633 32.5795 18.3438 33.2793C19.3452 33.5585 20.5391 33.3707 21.8246 32.6293C24.0681 31.3342 25.7917 28.9896 26.8942 26.4524" fill="white"/>
<path d="M32.9425 69.9508C32.8993 69.2106 32.6829 68.4908 32.3108 67.8494C31.9387 67.2081 31.4213 66.663 30.8001 66.2581L29.0524 65.2471C28.3886 64.91 27.6545 64.7344 26.91 64.7344C26.1655 64.7344 25.4314 64.91 24.7676 65.2471L10.9501 73.2246C10.2918 73.6383 9.7539 74.2177 9.39023 74.9049C9.0771 75.4508 8.88039 76.0557 8.8125 76.6814C8.8125 76.768 8.8125 76.8547 8.8125 76.9414V92.8964C8.85463 93.6358 9.06952 94.355 9.43992 94.9963C9.81032 95.6376 10.3259 96.1832 10.9453 96.5891L12.6881 97.6002L12.9096 97.7109L12.9914 97.7494L13.1407 97.812L13.2562 97.8553L13.3814 97.8987L13.521 97.9372L13.6269 97.9661L13.7906 98.0046H13.8725L14.0699 98.0383H14.1084C15.098 98.1927 16.111 98.0239 16.9971 97.5568L30.8001 89.6226C31.4248 89.2153 31.9447 88.6665 32.3178 88.0208C32.6908 87.3751 32.9065 86.6505 32.9473 85.9059L32.9425 69.9508Z" fill="#EC396F"/>
<path opacity="0.4" d="M15.4695 78.2942C15.2286 78.7053 15.0502 79.1499 14.9399 79.6134C15.2225 78.4132 15.9549 77.3672 16.986 76.691L30.8083 68.7135C31.9926 68.0298 32.9555 68.5835 32.9555 69.9508C32.9118 69.2101 32.6947 68.4901 32.3217 67.8487C31.9488 67.2073 31.4304 66.6625 30.8083 66.2581L29.0606 65.2471C28.3968 64.91 27.6627 64.7344 26.9182 64.7344C26.1737 64.7344 25.4397 64.91 24.7758 65.2471L10.9583 73.2246C10.3 73.6383 9.76211 74.2177 9.39844 74.9049L9.44177 74.8278L15.4695 78.2942Z" fill="white"/>
<path opacity="0.1" d="M16.5438 97.8025L16.4427 97.8314C16.386 97.8488 16.3281 97.8617 16.2694 97.8699H16.1057H15.9372C15.7381 97.8553 15.5475 97.7834 15.3883 97.6629L15.3113 97.5907L15.268 97.5522L15.2102 97.4751L15.162 97.4174L15.1139 97.3403L15.0706 97.2633C15.0706 97.2344 15.0706 97.2103 15.0369 97.1815C15.0211 97.1506 15.0082 97.1184 14.9983 97.0852L14.9695 97.0033L14.9406 96.8878C14.9406 96.8878 14.9406 96.8348 14.9406 96.8059C14.9379 96.7594 14.9379 96.7128 14.9406 96.6663C14.9379 96.6407 14.9379 96.6149 14.9406 96.5893C14.9406 96.5171 14.9406 96.4352 14.9406 96.3534V80.4079C14.9408 80.2353 14.9553 80.063 14.9839 79.8928C14.9839 79.8254 14.9839 79.7628 15.0224 79.7002V79.6232C15.1327 79.1597 15.3112 78.7151 15.552 78.304L9.5195 74.8184L9.47617 74.8954C9.16304 75.4413 8.96633 76.0462 8.89844 76.6719C8.89844 76.7586 8.89844 76.8452 8.89844 76.9319V92.887C8.93042 93.6213 9.13281 94.338 9.48961 94.9806C9.84641 95.6232 10.3478 96.1739 10.9542 96.5893L12.697 97.6003L12.9185 97.7111L13.0003 97.7496L13.1496 97.8122L13.2651 97.8555L13.3903 97.8988L13.5299 97.9373L13.6359 97.9662L13.7995 98.0047H13.8814L14.0788 98.0384H14.1173C14.9331 98.1636 15.7673 98.0825 16.5438 97.8025Z" fill="black"/>
<path d="M23.8903 77.3316C25.3057 76.5131 25.4742 76.4265 26.0327 76.1376C26.3267 75.9612 26.655 75.8495 26.9956 75.8102C27.2133 75.7881 27.431 75.852 27.6022 75.9884C27.7947 76.1344 27.9348 76.3388 28.0018 76.5709C28.1259 76.9616 28.1876 77.3694 28.1848 77.7793C28.2088 78.5063 28.2137 78.7422 28.2137 80.615C28.2137 82.4879 28.2136 82.7238 28.1848 83.5037C28.1763 83.9808 28.115 84.4556 28.0018 84.9192C27.9147 85.2818 27.7804 85.6314 27.6022 85.9591C27.4425 86.2799 27.2383 86.5765 26.9956 86.8401C26.7125 87.1519 26.3886 87.4239 26.0327 87.6489C25.4742 88.0052 25.3057 88.1304 23.8903 88.9248C22.4748 89.7192 22.3111 89.8347 21.7527 90.1236C21.4583 90.2983 21.13 90.4083 20.7898 90.4461C20.5706 90.4685 20.3512 90.4046 20.1783 90.268C19.9887 90.1203 19.8505 89.9164 19.7836 89.6855C19.6598 89.2963 19.598 88.8902 19.6006 88.4818C19.6006 87.7501 19.5669 87.519 19.5669 85.6461C19.5669 83.7733 19.5669 83.5326 19.6006 82.7575C19.6077 82.2707 19.6691 81.7863 19.7836 81.3131C19.872 80.9516 20.0046 80.6023 20.1783 80.2732C20.3421 79.9537 20.5477 79.6574 20.7898 79.3922C21.0717 79.0793 21.3958 78.8071 21.7527 78.5834C22.3111 78.2271 22.4796 78.1019 23.8903 77.3075M23.8903 76.0365C22.4459 76.8646 22.2726 76.9994 21.7093 77.3364C21.2337 77.6338 20.8012 77.995 20.4239 78.41C20.0414 78.8139 19.7173 79.2692 19.461 79.7629C19.1925 80.2703 18.9872 80.8087 18.8496 81.3661C18.6997 81.9747 18.6174 82.5979 18.604 83.2245C18.604 83.99 18.5703 84.2355 18.5703 86.1517C18.5703 88.0678 18.5703 88.3085 18.604 89.0403C18.6041 89.5746 18.6869 90.1057 18.8496 90.6146C18.9562 90.969 19.1698 91.2818 19.461 91.5101C19.7341 91.7232 20.0795 91.8216 20.4239 91.7846C20.877 91.7397 21.3152 91.5985 21.7093 91.3705C22.2726 91.0768 22.4508 90.9805 23.8903 90.1525C25.3298 89.3244 25.5079 89.1896 26.076 88.8477C27.0224 88.2623 27.7914 87.4301 28.3003 86.4405C28.5681 85.9333 28.7719 85.3948 28.9069 84.8373C29.0586 84.2306 29.1426 83.609 29.1573 82.9838C29.1573 82.2134 29.1862 81.9679 29.1862 80.0518C29.1862 78.1356 29.1862 77.8997 29.1573 77.1631C29.1566 76.63 29.0721 76.1004 28.9069 75.5936C28.801 75.2387 28.5894 74.9247 28.3003 74.6933C28.0269 74.481 27.6813 74.3842 27.3374 74.4237C26.8838 74.4662 26.4451 74.6075 26.052 74.8377C25.4839 75.1266 25.3057 75.2229 23.8662 76.0558M23.8662 79.4885C22.3641 80.3551 21.146 82.6804 21.146 84.6833C21.146 86.6861 22.3641 87.6056 23.8662 86.739C25.3683 85.8724 26.5864 83.547 26.5864 81.5442C26.5864 79.5414 25.3683 78.6219 23.8662 79.4885ZM23.8662 85.468C22.9033 86.0313 22.1041 85.4343 22.1041 84.1344C22.1041 82.8345 22.8937 81.3228 23.8662 80.7643C24.8387 80.2058 25.6331 80.798 25.6331 82.1027C25.6331 83.4074 24.8435 84.9095 23.8662 85.4728M27.3278 77.3508C27.3278 76.8694 27.0437 76.6672 26.6923 76.8694C26.4982 77.0084 26.3396 77.191 26.2292 77.4026C26.1188 77.6142 26.0597 77.8488 26.0568 78.0875C26.0568 78.5689 26.3408 78.7663 26.6923 78.5689C26.8857 78.4304 27.0439 78.2485 27.1543 78.0378C27.2647 77.8271 27.3241 77.5935 27.3278 77.3557" fill="white"/>
<path d="M57.0014 32.8021C56.9636 32.0602 56.7518 31.3376 56.3829 30.6927C56.0141 30.0478 55.4986 29.4989 54.8782 29.0902L53.1306 28.0792C52.4658 27.7421 51.731 27.5664 50.9857 27.5664C50.2404 27.5664 49.5056 27.7421 48.8409 28.0792L35.0234 36.0567C34.4391 36.4444 33.9458 36.9542 33.5776 37.551C33.2093 38.1478 32.975 38.8173 32.8906 39.5135C32.8906 39.6001 32.8906 39.6868 32.8906 39.7735V55.7285C32.9305 56.4722 33.1453 57.1959 33.5176 57.8409C33.8898 58.4859 34.4091 59.0339 35.0331 59.4405L36.7807 60.4515L37.0022 60.567L37.084 60.6007L37.2333 60.6633L37.344 60.7067L37.474 60.75L37.6088 60.7885L37.7195 60.8174L37.8832 60.8559H37.965L38.1624 60.8896H38.201C39.188 61.0511 40.2008 60.8907 41.0896 60.4322L54.8782 52.474C55.5023 52.0664 56.0215 51.5175 56.3937 50.8717C56.766 50.2259 56.9807 49.5015 57.0206 48.7572L57.0014 32.8021Z" fill="#EC396F"/>
<path opacity="0.4" d="M39.5253 41.1456C39.2852 41.5575 39.1052 42.0018 38.9909 42.4647C39.2748 41.2638 40.0089 40.2176 41.0419 39.5424L54.8786 31.5648C56.0629 30.8812 57.021 31.4348 57.021 32.8021C56.9811 32.0585 56.7663 31.3347 56.3941 30.6897C56.0218 30.0448 55.5026 29.4967 54.8786 29.0902L53.1309 28.0792C52.4662 27.7421 51.7314 27.5664 50.9861 27.5664C50.2408 27.5664 49.506 27.7421 48.8413 28.0792L35.0238 36.0567C34.368 36.4719 33.832 37.051 33.4688 37.7369L33.5073 37.6599L39.5253 41.1456Z" fill="white"/>
<path opacity="0.1" d="M40.5931 60.6541L40.4872 60.683C40.4322 60.7004 40.3758 60.7132 40.3187 60.7215H40.1598H39.948C39.7505 60.7062 39.5616 60.6343 39.4039 60.5145L39.3269 60.4422L39.2836 60.4037L39.221 60.3267L39.1777 60.2689C39.1588 60.2451 39.1427 60.2193 39.1295 60.1919L39.0862 60.1149C39.0862 60.0908 39.0862 60.0619 39.0477 60.033L39.014 59.9415L38.9851 59.8549C38.9851 59.8196 38.9755 59.7811 38.9562 59.7393C38.9535 59.7121 38.9535 59.6847 38.9562 59.6575C38.9535 59.611 38.9535 59.5644 38.9562 59.5179C38.9536 59.4923 38.9536 59.4665 38.9562 59.4408C38.9513 59.3639 38.9513 59.2867 38.9562 59.2098V43.2595C38.9589 43.087 38.9733 42.9149 38.9995 42.7443C38.9995 42.6769 38.9995 42.6144 39.0332 42.5518C39.0351 42.5261 39.0351 42.5004 39.0332 42.4747C39.1475 42.0118 39.3275 41.5675 39.5676 41.1556L33.5303 37.6699L33.4918 37.747C33.1766 38.292 32.9797 38.8973 32.9141 39.5235C32.9141 39.6101 32.9141 39.6968 32.9141 39.7835V55.7385C32.9539 56.4822 33.1687 57.2059 33.541 57.8509C33.9133 58.4959 34.4325 59.044 35.0565 59.4505L36.8041 60.4615L37.0256 60.5771L37.1074 60.6108L37.2567 60.6733L37.3674 60.7167L37.4974 60.76L37.6322 60.7985L37.743 60.8274L37.9066 60.8659H37.9885L38.1859 60.8996H38.2244C39.0222 61.012 39.8353 60.9277 40.5931 60.6541Z" fill="black"/>
<path d="M46.4584 54.8575L48.7645 53.5239V45.8208L50.3726 44.8916L50.5411 42.2147L48.7645 43.2402V41.7718C48.7645 41.1652 48.856 40.8715 49.2941 40.6212L50.5411 39.899V37.2222L48.9475 38.1465C48.159 38.5621 47.5058 39.1944 47.0648 39.969C46.6238 40.7435 46.4134 41.6279 46.4584 42.5181V44.5931L45.25 45.2719V47.8814L46.4488 47.1929L46.4584 54.8575Z" fill="white"/>
<path d="M25.7729 155.326L81.009 187.207C81.6578 187.537 82.3754 187.708 83.1033 187.708C83.8311 187.708 84.5487 187.537 85.1976 187.207L171.338 137.478C172.493 136.809 172.493 135.731 171.338 135.071L116.101 103.171C115.453 102.841 114.737 102.669 114.01 102.669C113.283 102.669 112.566 102.841 111.918 103.171L25.7729 152.918C24.6174 153.573 24.6174 154.651 25.7729 155.326Z" fill="#E0E0E0"/>
<path d="M27.5102 147.623L81.1817 178.613C81.8375 178.946 82.5624 179.119 83.2976 179.119C84.0329 179.119 84.7578 178.946 85.4136 178.613L170.509 129.491C171.679 128.817 171.679 127.725 170.509 127.05L116.833 96.0599C116.177 95.7274 115.452 95.5542 114.717 95.5542C113.981 95.5542 113.257 95.7274 112.601 96.0599L27.5102 145.215C26.3403 145.865 26.3403 146.958 27.5102 147.623Z" fill="#37474F"/>
<path d="M81.1804 178.623L27.509 147.622C26.4642 147.021 26.3535 146.082 27.1768 145.408C26.6537 145.822 26.2241 146.343 25.9163 146.936C25.6085 147.528 25.4293 148.179 25.3906 148.845V150.834C25.4307 151.569 25.6434 152.284 26.0114 152.921C26.3795 153.558 26.8925 154.1 27.509 154.502L81.1804 185.488C81.832 185.834 82.5611 186.008 83.2988 185.993V179.128C82.5611 179.143 81.832 178.969 81.1804 178.623Z" fill="#455A64"/>
<path d="M170.506 136.367C171.121 135.965 171.634 135.424 172.001 134.788C172.368 134.151 172.58 133.437 172.619 132.703V130.714C172.581 130.048 172.402 129.397 172.094 128.804C171.786 128.212 171.356 127.691 170.833 127.277C171.656 127.951 171.55 128.89 170.506 129.492L85.4104 178.623C84.7603 178.968 84.0329 179.142 83.2969 179.128V186.003C84.0329 186.017 84.7603 185.843 85.4104 185.498L170.506 136.367Z" fill="#263238"/>
<path d="M56.3196 161.936C57.2302 162.399 58.2373 162.64 59.2588 162.64C60.2803 162.64 61.2874 162.399 62.198 161.936C63.8205 160.973 63.8205 159.48 62.198 158.542C61.2867 158.081 60.2799 157.841 59.2588 157.841C58.2378 157.841 57.231 158.081 56.3196 158.542C54.7164 159.48 54.7164 161.002 56.3196 161.936Z" fill="#263238"/>
<path d="M89.5313 172.046L38.1564 142.365C37.4583 141.961 37.4583 141.301 38.1564 140.897L105.077 102.246C105.47 102.047 105.905 101.943 106.346 101.943C106.787 101.943 107.221 102.047 107.614 102.246L158.989 131.927C159.692 132.332 159.692 132.987 158.989 133.372L92.0686 172.027C91.6769 172.229 91.243 172.336 90.8022 172.34C90.3614 172.343 89.9261 172.243 89.5313 172.046Z" fill="white"/>
<path d="M139.787 113.734C140.018 113.85 140.273 113.911 140.531 113.911C140.789 113.911 141.044 113.85 141.275 113.734C141.355 113.694 141.422 113.632 141.469 113.556C141.516 113.48 141.541 113.392 141.541 113.303C141.541 113.213 141.516 113.125 141.469 113.049C141.422 112.973 141.355 112.912 141.275 112.872C141.044 112.755 140.789 112.695 140.531 112.695C140.273 112.695 140.018 112.755 139.787 112.872C139.373 113.108 139.373 113.493 139.787 113.734Z" fill="#263238"/>
<path d="M142.164 120.484C142.626 120.716 143.135 120.838 143.652 120.838C144.169 120.838 144.678 120.716 145.14 120.484C145.963 120.002 145.963 119.237 145.14 118.765C144.679 118.53 144.169 118.407 143.652 118.407C143.135 118.407 142.625 118.53 142.164 118.765C141.341 119.217 141.341 120.007 142.164 120.484Z" fill="#263238"/>
<path d="M140.085 117.489C140.634 117.176 140.605 116.647 140.018 116.309L130.225 110.653C129.911 110.485 129.561 110.395 129.204 110.388C128.848 110.381 128.495 110.459 128.174 110.614C127.626 110.932 127.654 111.461 128.242 111.798L138.034 117.455C138.35 117.622 138.699 117.711 139.056 117.717C139.412 117.723 139.765 117.645 140.085 117.489Z" fill="#263238"/>
<path d="M104.215 110.229C103.512 110.633 103.512 111.288 104.215 111.673L143.356 134.277C143.75 134.476 144.186 134.58 144.627 134.58C145.069 134.58 145.504 134.476 145.898 134.277L154.564 129.284L112.881 105.212L104.215 110.229Z" fill="#EBEBEB"/>
<path d="M104.501 114.152L101.376 112.351C101.246 112.285 101.102 112.25 100.955 112.25C100.809 112.25 100.664 112.285 100.534 112.351L98.5648 113.488C98.3289 113.622 98.3289 113.839 98.5648 113.969L98.8344 114.128L97.8378 114.658C97.7223 114.72 97.7319 114.759 97.8667 114.749L99.6192 114.581L101.689 115.775C101.821 115.839 101.966 115.873 102.113 115.873C102.26 115.873 102.405 115.839 102.537 115.775L104.501 114.638C104.55 114.62 104.593 114.586 104.623 114.543C104.653 114.5 104.669 114.448 104.669 114.395C104.669 114.342 104.653 114.291 104.623 114.247C104.593 114.204 104.55 114.171 104.501 114.152Z" fill="#EBEBEB"/>
<path d="M105.424 118.851L105.193 118.37C104.895 117.739 104.712 116.882 105.578 116.386C105.906 116.22 106.269 116.133 106.637 116.133C107.005 116.133 107.368 116.22 107.697 116.386C108.149 116.646 108.25 117.036 108 117.349C108.562 117.195 109.161 117.257 109.68 117.522C109.809 117.564 109.921 117.646 110 117.755C110.08 117.864 110.123 117.996 110.123 118.131C110.123 118.267 110.08 118.398 110 118.508C109.921 118.617 109.809 118.699 109.68 118.74C108.833 119.222 107.35 119.135 106.257 118.967L105.424 118.851Z" fill="#EBEBEB"/>
<path d="M62.5272 135.76L101.673 158.364C102.067 158.563 102.503 158.667 102.944 158.667C103.386 158.667 103.821 158.563 104.215 158.364L134.701 140.757C135.399 140.353 135.399 139.698 134.701 139.313L95.5543 116.69C95.1602 116.491 94.7248 116.387 94.2833 116.387C93.8417 116.387 93.4063 116.491 93.0123 116.69L62.5272 134.296C61.8243 134.701 61.8243 135.355 62.5272 135.76Z" fill="#EBEBEB"/>
<path d="M62.8251 138.22L59.6861 136.415C59.5542 136.35 59.4093 136.316 59.2624 136.316C59.1155 136.316 58.9706 136.35 58.8387 136.415L56.8696 137.551C56.8218 137.57 56.7808 137.604 56.752 137.647C56.7232 137.689 56.7078 137.74 56.7078 137.792C56.7078 137.843 56.7232 137.894 56.752 137.937C56.7808 137.979 56.8218 138.013 56.8696 138.032L57.144 138.191L56.1474 138.716C56.0271 138.779 56.0415 138.822 56.1474 138.807L57.8999 138.644L59.9701 139.838C60.102 139.902 60.2469 139.936 60.3938 139.936C60.5407 139.936 60.6856 139.902 60.8175 139.838L62.7866 138.697C62.8366 138.682 62.8811 138.653 62.9142 138.613C62.9472 138.573 62.9671 138.524 62.9713 138.472C62.9755 138.42 62.9637 138.368 62.9376 138.323C62.9115 138.278 62.8722 138.242 62.8251 138.22Z" fill="#EBEBEB"/>
<path d="M63.7181 142.914L63.4918 142.433C63.1885 141.802 63.0104 140.945 63.877 140.444C64.2045 140.278 64.5665 140.191 64.9338 140.191C65.301 140.191 65.6631 140.278 65.9905 140.444C66.472 140.709 66.549 141.099 66.2938 141.407C66.858 141.259 67.4568 141.32 67.9789 141.58C68.1069 141.624 68.2182 141.706 68.297 141.815C68.3759 141.925 68.4183 142.057 68.4183 142.192C68.4183 142.327 68.3759 142.459 68.297 142.568C68.2182 142.678 68.1069 142.76 67.9789 142.803C67.1316 143.285 65.6487 143.198 64.551 143.03L63.7181 142.914Z" fill="#EBEBEB"/>
<path d="M51.3369 140.757C51.731 140.558 52.1663 140.454 52.6079 140.454C53.0495 140.454 53.4849 140.558 53.8789 140.757L93.0204 163.356C93.7233 163.761 93.7233 164.42 93.0204 164.825L85.0332 169.437L43.3594 145.365L51.3369 140.757Z" fill="#EBEBEB"/>
<path d="M94.8359 135.553L72.5547 141.537L101.687 158.359C102.081 158.558 102.516 158.662 102.958 158.662C103.399 158.662 103.835 158.558 104.229 158.359L104.86 157.993L117.43 139.549L90.734 144.787L94.8359 135.553Z" fill="#E0E0E0"/>
<path d="M105.805 122.612L95.5551 116.69C95.161 116.491 94.7257 116.387 94.2841 116.387C93.8425 116.387 93.4071 116.491 93.0131 116.69L81.5547 123.31C82.0795 124.306 83.1627 125.235 84.8044 126.039C89.6189 128.341 97.4568 128.341 102.286 126.039C104.308 125.077 105.478 123.863 105.805 122.612Z" fill="#E0E0E0"/>
<path opacity="0.2" d="M155.236 120.527L103.857 90.8509C103.463 90.6517 103.029 90.5479 102.588 90.5479C102.147 90.5479 101.713 90.6517 101.319 90.8509L34.3986 129.501C33.7005 129.906 33.7005 130.56 34.3986 130.946L45.26 137.204L85.7928 160.617C86.186 160.816 86.6206 160.92 87.0614 160.92C87.5022 160.92 87.9368 160.816 88.33 160.617L148.568 125.813L155.232 121.962C155.939 121.591 155.939 120.932 155.236 120.527Z" fill="white"/>
<path d="M155.356 120.315L112.874 95.7614L103.977 90.6388C103.546 90.4182 103.069 90.3032 102.585 90.3032C102.101 90.3032 101.624 90.4182 101.194 90.6388L34.2731 129.289C34.0823 129.363 33.9183 129.492 33.8026 129.66C33.6869 129.829 33.625 130.028 33.625 130.233C33.625 130.437 33.6869 130.637 33.8026 130.805C33.9183 130.974 34.0823 131.103 34.2731 131.176L45.1344 137.435L85.6817 160.862C86.1121 161.084 86.5891 161.199 87.0731 161.199C87.5571 161.199 88.034 161.084 88.4645 160.862L148.698 126.059L155.366 122.207C155.556 122.133 155.72 122.003 155.835 121.834C155.95 121.665 156.012 121.465 156.012 121.261C156.012 121.057 155.95 120.857 155.835 120.688C155.72 120.52 155.556 120.389 155.366 120.315H155.356ZM155.111 121.783L148.443 125.635L88.2093 160.439C87.8527 160.617 87.4596 160.709 87.0611 160.709C86.6625 160.709 86.2694 160.617 85.9128 160.439L45.38 137.031L34.5234 130.772C34.4074 130.742 34.3046 130.675 34.2312 130.58C34.1578 130.486 34.1179 130.369 34.1179 130.25C34.1179 130.13 34.1578 130.014 34.2312 129.919C34.3046 129.824 34.4074 129.757 34.5234 129.727L101.444 91.0769C101.801 90.9 102.194 90.8079 102.592 90.8079C102.991 90.8079 103.384 90.9 103.741 91.0769L112.643 96.2043L155.125 120.758C155.241 120.788 155.344 120.855 155.417 120.95C155.491 121.044 155.531 121.161 155.531 121.28C155.531 121.4 155.491 121.516 155.417 121.611C155.344 121.706 155.241 121.773 155.125 121.803L155.111 121.783Z" fill="white"/>
<path d="M132.185 0.175191C132.893 -0.234037 133.47 0.0981583 133.47 0.916614V95.5638C133.446 96.01 133.316 96.4442 133.093 96.8314C132.87 97.2186 132.559 97.5479 132.185 97.7929L95.2486 119.121L90.9156 133.564C90.5256 134.874 89.7457 134.932 89.1775 133.685L85.2104 124.927L74.4261 131.152C73.7184 131.561 73.1406 131.229 73.1406 130.411V35.7636C73.1647 35.3172 73.2936 34.8827 73.517 34.4954C73.7403 34.1081 74.0518 33.7789 74.4261 33.5345L132.185 0.175191Z" fill="#EC396F"/>
<path d="M127.473 73.2393C127.429 73.8521 127.241 74.4459 126.924 74.9721C126.607 75.4984 126.17 75.9422 125.649 76.2676L105.356 87.986C104.35 88.5637 103.531 88.1545 103.531 87.0616C103.577 86.4491 103.766 85.856 104.083 85.33C104.4 84.804 104.836 84.3598 105.356 84.0333L125.658 72.3197C126.66 71.7372 127.473 72.1512 127.473 73.2393Z" fill="white"/>
<path d="M123.726 84.9434C123.681 85.5559 123.493 86.1492 123.176 86.6753C122.859 87.2014 122.422 87.6455 121.902 87.9717L105.046 97.7161C104.04 98.2987 103.227 97.8846 103.227 96.7918C103.271 96.1802 103.459 95.5877 103.775 95.0624C104.091 94.5371 104.527 94.0937 105.046 93.7683L121.921 84.0238C122.927 83.4413 123.726 83.8553 123.726 84.9434Z" fill="white"/>
<path d="M93.3217 101.591L93.2783 101.023C92.3588 103.343 90.9722 105.009 89.4268 105.9C86.697 107.479 84.2561 106.078 84.2561 101.899C84.2561 97.9609 86.1818 93.6424 89.1812 91.9236C91.1503 90.7874 92.4936 91.6251 92.715 92.121V91.1581C92.715 90.6237 93.2591 89.8775 93.9235 89.4923C94.5879 89.1072 95.1367 89.4586 95.1367 90.2819V99.2127C95.1367 100.349 95.5604 100.58 96.1622 100.229C97.2599 99.5979 98.2709 96.897 98.2709 93.8205C98.2709 87.8795 95.156 85.1112 90.1875 87.9806C85.5319 90.6671 81.8392 97.4554 81.8392 103.387C81.8392 109.207 85.3297 111.427 89.8986 108.793C91.2107 107.978 92.3734 106.944 93.3361 105.736C93.8561 105.101 94.4242 104.908 94.6745 105.361C94.9249 105.813 94.7708 106.747 94.2557 107.383C93.0376 108.911 91.5732 110.226 89.9227 111.273C84.2368 114.552 79.9375 111.692 79.9375 104.499C79.9375 97.1521 84.439 88.9146 90.2115 85.5782C95.984 82.2418 100.216 85.2075 100.216 92.641C100.216 97.1473 98.449 101.095 95.9407 102.539C94.5542 103.3 93.5672 103.122 93.3217 101.591ZM86.8751 100.238C86.8751 102.539 87.9921 103.801 89.6964 102.819C91.4007 101.837 92.5851 99.3138 92.5851 96.9884C92.5851 94.7497 91.444 93.6183 89.6723 94.639C87.9921 95.5922 86.8751 98.0332 86.8751 100.238Z" fill="white"/>
<path d="M103.284 30.6317C113.254 24.8543 121.333 29.5436 121.333 41.055C121.333 52.5663 113.254 66.5715 103.284 72.32C93.313 78.0684 85.2344 73.408 85.2344 61.8967C85.2344 50.3854 93.313 36.409 103.284 30.6317Z" fill="white"/>
<path d="M103.284 30.6317C113.254 24.8543 121.333 29.5436 121.333 41.055C121.333 52.5663 113.254 66.5715 103.284 72.32C93.313 78.0684 85.2344 73.408 85.2344 61.8967C85.2344 50.3854 93.313 36.409 103.284 30.6317Z" fill="#F5F5F5"/>
<mask id="mask0_2799_4301" style="mask-type:luminance" maskUnits="userSpaceOnUse" x="85" y="28" width="37" height="47">
<path d="M103.284 30.6312C113.254 24.8539 121.333 29.5431 121.333 41.0545C121.333 52.5658 113.254 66.571 103.284 72.3195C93.313 78.0679 85.2344 73.4075 85.2344 61.8962C85.2344 50.3849 93.313 36.4085 103.284 30.6312Z" fill="white"/>
</mask>
<g mask="url(#mask0_2799_4301)">
<path d="M96.7052 45.9165C95.878 46.0595 95.139 46.5188 94.6446 47.1971C93.7588 48.3382 93.9417 49.9655 94.6446 53.6292L97.384 53.2104L96.7052 45.9165Z" fill="#263238"/>
<path d="M112.667 40.5248C113.282 40.3605 113.863 40.0865 114.381 39.716C115.223 39.0083 115.44 39.9086 114.978 40.8618C114.671 41.5414 114.233 42.1534 113.689 42.6624C113.144 43.1715 112.504 43.5675 111.805 43.8275C111.776 43.712 111.016 41.9017 111.016 41.9017L112.667 40.5248Z" fill="#263238"/>
<path d="M98.2783 64.8138C98.2783 64.8138 93.175 68.1068 92.0677 69.2671C90.9603 70.4274 90.503 74.0431 90.0938 78.4675C90.0938 78.4675 95.9048 80.9181 105.019 76.407C114.132 71.8958 114.956 68.3283 114.956 68.3283C114.956 68.3283 113.776 62.9698 113.338 61.4822C112.784 59.5997 111.715 58.2421 105.5 61.0633L98.2783 64.8138Z" fill="#263238"/>
<path d="M97.996 53.0519C97.5868 53.4033 97.009 52.7775 96.5083 52.3875C96.0076 51.9975 94.3707 51.7183 93.5523 53.6585C92.7338 55.5987 94.6114 57.4571 95.7188 57.9337C96.0976 58.0931 96.5146 58.1387 96.9189 58.0652C97.3233 57.9917 97.6975 57.8022 97.996 57.5197L98.2849 64.8136C98.2849 64.8136 99.7292 67.3123 103.677 66.7923C107.625 66.2724 106.802 62.3053 105.511 61.0631V59.561C105.511 59.561 107.548 59.4262 108.506 58.9159C109.021 58.6415 110.244 56.8312 111.034 54.9632C112.662 51.5222 113.033 47.6196 112.083 43.9333C110.672 38.3101 104.226 39.8555 100.384 43.3026C96.542 46.7498 97.996 53.0519 97.996 53.0519Z" fill="#FFA8A7"/>
<path d="M113.782 34.8822C113.436 33.746 113.224 33.9482 110.436 35.9077C108.307 37.4067 105.931 38.5197 103.417 39.1959C101.452 39.7929 98.766 40.2647 97.3842 42.0846C96.7899 42.8673 96.4869 43.8325 96.5272 44.8144C96.4101 44.7058 96.2678 44.628 96.1132 44.5881C95.4344 44.4052 94.6015 44.9011 94.25 45.7003L96.6572 46.3406C96.4695 47.7271 95.9302 52.0072 96.5176 52.3827C97.0231 52.7053 97.7982 53.7885 98.0053 53.7307C98.6937 53.5334 98.9682 50.481 99.3437 48.6322C99.7529 46.5283 99.9118 45.7436 100.668 45.6569C103.123 45.2699 105.539 44.669 107.889 43.8611C110.489 42.8453 111.235 41.9835 111.235 41.9835L112.622 41.1025C113.241 40.205 113.664 39.1874 113.864 38.1158C114.064 37.0441 114.036 35.9424 113.782 34.8822Z" fill="#263238"/>
<path d="M105.498 59.5607C105.498 59.5607 101.853 59.8063 100.582 59.4693C99.8503 59.2949 99.2168 58.8379 98.8203 58.1982C99.0004 58.8676 99.3446 59.4815 99.8217 59.9844C100.751 60.9473 105.498 60.5333 105.498 60.5333V59.5607Z" fill="#F28F8F"/>
<path d="M104.568 55.3291L106.233 55.5072C106.165 55.7543 106.017 55.972 105.812 56.1269C105.608 56.2817 105.358 56.3651 105.102 56.3642C104.64 56.3161 104.404 55.8539 104.568 55.3291Z" fill="#F28F8F"/>
<path d="M106.969 48.8296L107.209 53.1578L109.506 51.7664L106.969 48.8296Z" fill="#F28F8F"/>
<path d="M104.616 50.3705C104.612 50.587 104.539 50.7966 104.409 50.9695C104.278 51.1423 104.096 51.2697 103.889 51.3334C103.803 51.363 103.71 51.3708 103.62 51.356C103.53 51.3411 103.445 51.3042 103.372 51.2484C103.3 51.1926 103.242 51.1197 103.205 51.0362C103.167 50.9528 103.151 50.8613 103.158 50.7701C103.163 50.5531 103.237 50.3434 103.368 50.1707C103.5 49.9979 103.682 49.8707 103.889 49.8072C103.976 49.7773 104.068 49.7693 104.158 49.7841C104.248 49.7989 104.333 49.8359 104.406 49.8919C104.478 49.9478 104.535 50.0209 104.572 50.1044C104.609 50.188 104.624 50.2795 104.616 50.3705Z" fill="#263238"/>
<path d="M103.848 47.814L102.288 49.0947C102.187 48.8626 102.168 48.603 102.234 48.3587C102.301 48.1145 102.449 47.9003 102.654 47.7514C102.73 47.6665 102.825 47.5997 102.931 47.5559C103.037 47.5122 103.151 47.4926 103.265 47.4986C103.38 47.5046 103.491 47.536 103.592 47.5906C103.693 47.6452 103.78 47.7215 103.848 47.814Z" fill="#263238"/>
<path d="M111.132 46.4659L109.688 45.7533C109.796 45.5305 109.982 45.3546 110.21 45.2581C110.439 45.1616 110.694 45.1511 110.93 45.2286C111.028 45.2934 111.112 45.3778 111.176 45.4767C111.24 45.5755 111.283 45.6866 111.302 45.8029C111.321 45.9192 111.316 46.0381 111.286 46.1522C111.257 46.2663 111.204 46.3731 111.132 46.4659Z" fill="#263238"/>
<path d="M110.718 48.5262C110.712 48.7424 110.639 48.9513 110.508 49.1239C110.378 49.2965 110.197 49.4241 109.991 49.4891C109.904 49.5188 109.812 49.5266 109.722 49.5117C109.631 49.4969 109.546 49.4599 109.474 49.4041C109.401 49.3483 109.344 49.2755 109.306 49.192C109.269 49.1085 109.253 49.0171 109.259 48.9258C109.265 48.7089 109.339 48.4992 109.47 48.3264C109.601 48.1536 109.783 48.0265 109.991 47.963C110.077 47.933 110.17 47.9251 110.26 47.9399C110.35 47.9546 110.435 47.9917 110.507 48.0476C110.579 48.1035 110.636 48.1766 110.673 48.2602C110.71 48.3438 110.725 48.4352 110.718 48.5262Z" fill="#263238"/>
</g>
</svg>
