<svg width="198" height="211" viewBox="0 0 198 211" fill="none" xmlns="http://www.w3.org/2000/svg">
<path d="M166.976 168.665C174.555 160.23 180.21 149.995 183.952 139.242C189.287 123.901 190.935 107.488 190.958 91.2448C190.986 75.4914 189.47 59.5137 183.869 44.7952C178.269 30.0768 168.24 16.6269 154.341 9.19905C129.873 -3.84327 101.677 2.12377 80.0161 17.9C69.3551 25.6622 60.4526 35.9477 53.0659 46.8148C45.1297 58.4879 34.0291 67.5735 24.3023 77.6941C18.8207 83.3956 13.6505 89.4405 9.54726 96.2456C-3.85685 118.451 -4.6033 143.51 16.737 160.665C38.4254 178.094 71.5807 189.31 99.0026 191.911C118.942 193.802 139.989 190.134 156.214 178.392C160.136 175.541 163.744 172.28 166.976 168.665Z" fill="#444696"/>
<path opacity="0.7" d="M166.976 168.665C174.555 160.23 180.21 149.995 183.952 139.242C189.287 123.901 190.935 107.488 190.958 91.2448C190.986 75.4914 189.47 59.5137 183.869 44.7952C178.269 30.0768 168.24 16.6269 154.341 9.19905C129.873 -3.84327 101.677 2.12377 80.0161 17.9C69.3551 25.6622 60.4526 35.9477 53.0659 46.8148C45.1297 58.4879 34.0291 67.5735 24.3023 77.6941C18.8207 83.3956 13.6505 89.4405 9.54726 96.2456C-3.85685 118.451 -4.6033 143.51 16.737 160.665C38.4254 178.094 71.5807 189.31 99.0026 191.911C118.942 193.802 139.989 190.134 156.214 178.392C160.136 175.541 163.744 172.28 166.976 168.665Z" fill="white"/>
<path d="M187.086 126.525L197.065 122.761" stroke="#263238" stroke-linecap="round" stroke-linejoin="round"/>
<path d="M17.4609 190.436L182.871 128.11" stroke="#263238" stroke-linecap="round" stroke-linejoin="round"/>
<path d="M5.60156 194.905L11.9853 192.497" stroke="#263238" stroke-linecap="round" stroke-linejoin="round"/>
<path d="M153.042 96.5386L57.2578 132.643V44.6761L153.042 8.57617V96.5386Z" fill="white"/>
<path d="M72.7653 66.3551V66.5429L71.6113 67.0008V66.7169C71.6113 65.7186 71.1991 65.2881 70.297 65.627C69.3948 65.9658 68.9506 66.7398 68.9506 67.9167V70.3988C69.0883 69.9732 69.3211 69.5846 69.6313 69.2625C69.9416 68.9403 70.3211 68.6931 70.7412 68.5395C72.1654 68.0037 72.7974 68.7914 72.7974 70.3713V72.052C72.8333 72.8666 72.6066 73.6712 72.1506 74.3473C71.6947 75.0234 71.0337 75.5351 70.2649 75.8071C68.5568 76.4528 67.7188 75.6606 67.7188 73.9753V68.338C67.7188 66.5795 68.511 65.1919 70.2649 64.5279C72.0189 63.8639 72.7653 64.6607 72.7653 66.3551ZM68.9506 71.942V73.6044C68.9506 74.5981 69.3628 75.0469 70.2649 74.708C70.6825 74.5492 71.0368 74.2584 71.274 73.8799C71.5112 73.5013 71.6184 73.0557 71.5792 72.6107V70.9483C71.5792 69.9546 71.1534 69.5104 70.2649 69.8447C69.8465 70.0022 69.4913 70.2927 69.2539 70.6716C69.0165 71.0505 68.9099 71.4968 68.9506 71.942Z" fill="#263238"/>
<path d="M73.871 65.961C73.8344 65.1479 74.0611 64.3447 74.5173 63.6707C74.9735 62.9966 75.635 62.4877 76.4035 62.2196C78.1116 61.5739 78.9496 62.3478 78.9496 64.0514V69.7482C78.9856 70.5653 78.7574 71.3722 78.2987 72.0494C77.8401 72.7267 77.1755 73.2381 76.4035 73.508C74.7091 74.1491 73.871 73.3568 73.871 71.6762V65.961ZM75.0892 71.2915C75.0892 72.2898 75.515 72.7294 76.4035 72.3951C76.822 72.2391 77.1775 71.9496 77.415 71.5713C77.6526 71.1931 77.759 70.7471 77.7178 70.3023V64.4452C77.7178 63.4331 77.3056 62.9843 76.4035 63.3278C75.9847 63.4877 75.6297 63.78 75.3924 64.1603C75.1552 64.5406 75.0487 64.988 75.0892 65.4344V71.2915Z" fill="#263238"/>
<path d="M83.2148 61.5053V65.004C83.243 65.5193 83.104 66.03 82.8185 66.4599C82.5329 66.8898 82.1162 67.216 81.6303 67.3899C80.5541 67.7929 80.0504 67.2708 80.0504 66.1946V62.7005C80.0226 62.1859 80.1612 61.676 80.4458 61.2463C80.7303 60.8166 81.1456 60.4899 81.6303 60.3146C82.7065 59.8841 83.2148 60.4199 83.2148 61.5053ZM80.838 62.3525V65.9611C80.838 66.561 81.0624 66.877 81.6303 66.6617C81.8849 66.5608 82.0999 66.3798 82.2428 66.146C82.3857 65.9123 82.4488 65.6385 82.4225 65.3658V61.7342C82.4225 61.1298 82.1844 60.8184 81.6303 61.0198C81.3736 61.1221 81.1573 61.3053 81.0143 61.5417C80.8713 61.7781 80.8094 62.0548 80.838 62.3296V62.3525ZM86.8692 58.4004L82.5004 71.1222L81.7585 71.4015L86.1273 58.6752L86.8692 58.4004ZM88.6598 63.5843V67.0647C88.691 67.5806 88.5532 68.0926 88.2673 68.5232C87.9813 68.9537 87.5629 69.2793 87.0753 69.4506C85.9991 69.8582 85.4954 69.3362 85.4954 68.26V64.775C85.4686 64.2629 85.608 63.7558 85.8927 63.3292C86.1773 62.9026 86.5921 62.5793 87.0753 62.4074C88.1698 61.9632 88.6598 62.499 88.6598 63.5615V63.5843ZM86.283 64.4315V68.0218C86.283 68.6263 86.5212 68.9377 87.0753 68.7362C87.331 68.6327 87.5464 68.4492 87.6892 68.2132C87.832 67.9771 87.8946 67.7011 87.8675 67.4265V63.795C87.8675 63.1951 87.6294 62.8791 87.0753 63.0989C86.8177 63.1999 86.6005 63.3829 86.4573 63.6196C86.3141 63.8563 86.2529 64.1336 86.283 64.4086V64.4315Z" fill="#263238"/>
<path d="M146.637 78.6235L62.0547 109.709V111.133L146.637 80.0477V78.6235Z" fill="#E5E5E5"/>
<path d="M146.637 70.5088L62.0547 101.599V103.018L146.637 71.933V70.5088Z" fill="#E5E5E5"/>
<path d="M146.637 62.3984L62.0547 93.4839V94.9081L146.637 63.8181V62.3984Z" fill="#E5E5E5"/>
<path d="M146.637 54.2837L62.0547 85.3737V86.7933L146.637 55.7079V54.2837Z" fill="#E5E5E5"/>
<path d="M92.4375 66.0945V67.5141L146.64 47.5935V46.1738L92.4375 66.0945Z" fill="#E5E5E5"/>
<path d="M92.4375 57.9798V59.404L146.64 39.4833V38.0591L92.4375 57.9798Z" fill="#E5E5E5"/>
<path d="M92.4375 49.8691V51.2887L146.64 31.3681V29.9438L92.4375 49.8691Z" fill="#E5E5E5"/>
<path d="M146.683 19.8647C145.204 25.4334 142.021 36.2547 137.611 45.0747C131.383 57.5309 112.035 81.106 98.4661 92.6737C84.8971 104.241 62.3203 118.117 62.3203 118.117L146.683 87.4348V19.8647Z" fill="#444696"/>
<path d="M62.8438 117.833C62.8438 117.833 133.574 80.0616 145.842 21.1284" stroke="#263238" stroke-width="4" stroke-linecap="round" stroke-linejoin="round"/>
<path d="M62.1484 52.1587V121.506" stroke="#263238" stroke-linecap="round" stroke-linejoin="round"/>
<path d="M59.5156 119.468L147.588 87.1001" stroke="#263238" stroke-linecap="round" stroke-linejoin="round"/>
<path d="M67.9609 116.505V119.335" stroke="#263238" stroke-linecap="round" stroke-linejoin="round"/>
<path d="M73.6953 114.398V117.233" stroke="#263238" stroke-linecap="round" stroke-linejoin="round"/>
<path d="M79.4219 112.296V115.126" stroke="#263238" stroke-linecap="round" stroke-linejoin="round"/>
<path d="M85.1484 110.19V113.02" stroke="#263238" stroke-linecap="round" stroke-linejoin="round"/>
<path d="M90.875 108.083V110.918" stroke="#263238" stroke-linecap="round" stroke-linejoin="round"/>
<path d="M96.6016 105.981V108.812" stroke="#263238" stroke-linecap="round" stroke-linejoin="round"/>
<path d="M102.328 103.875V106.705" stroke="#263238" stroke-linecap="round" stroke-linejoin="round"/>
<path d="M108.055 101.768V104.598" stroke="#263238" stroke-linecap="round" stroke-linejoin="round"/>
<path d="M113.789 99.6621V102.497" stroke="#263238" stroke-linecap="round" stroke-linejoin="round"/>
<path d="M119.516 97.5596V100.39" stroke="#263238" stroke-linecap="round" stroke-linejoin="round"/>
<path d="M125.242 95.4531V98.2832" stroke="#263238" stroke-linecap="round" stroke-linejoin="round"/>
<path d="M130.969 93.3462V96.1809" stroke="#263238" stroke-linecap="round" stroke-linejoin="round"/>
<path d="M136.703 91.2446V94.0747" stroke="#263238" stroke-linecap="round" stroke-linejoin="round"/>
<path d="M142.43 89.1382V91.9683" stroke="#263238" stroke-linecap="round" stroke-linejoin="round"/>
<path d="M147.742 87.0542V89.8843" stroke="#263238" stroke-linecap="round" stroke-linejoin="round"/>
<path d="M67.9922 53.2487L88.9204 45.1567" stroke="#263238" stroke-linecap="round" stroke-linejoin="round"/>
<path d="M67.9922 56.8756L88.9204 48.7837" stroke="#263238" stroke-linecap="round" stroke-linejoin="round"/>
<path d="M67.9922 60.5031L88.9204 52.4111" stroke="#263238" stroke-linecap="round" stroke-linejoin="round"/>
<path d="M91.0984 138.816L83.4141 141.71V137.424L91.0984 134.525V138.816Z" stroke="#263238" stroke-linecap="round" stroke-linejoin="round"/>
<path d="M108.067 132.437L100.383 135.336V131.045L108.067 128.151V132.437Z" stroke="#263238" stroke-linecap="round" stroke-linejoin="round"/>
<path d="M125.036 126.062L117.352 128.956V124.67L125.036 121.771V126.062Z" stroke="#263238" stroke-linecap="round" stroke-linejoin="round"/>
<path d="M142.005 119.683L134.32 122.578V118.291L142.005 115.397V119.683Z" stroke="#263238" stroke-linecap="round" stroke-linejoin="round"/>
<path d="M181.564 34.661L158.438 43.3757V22.1361L181.564 13.4214V34.661Z" stroke="#263238" stroke-linecap="round" stroke-linejoin="round"/>
<path d="M158.312 20.3821L167.865 16.9062" stroke="#263238" stroke-linecap="round" stroke-linejoin="round"/>
<path d="M158.312 18.9075L167.865 15.4316" stroke="#263238" stroke-linecap="round" stroke-linejoin="round"/>
<path d="M158.312 17.4283L167.865 13.957" stroke="#263238" stroke-linecap="round" stroke-linejoin="round"/>
<path d="M160.68 40.2525L163.226 34.5282L167.947 34.7068L172.128 25.0807L177.399 25.3509L180.211 17.085" stroke="#263238" stroke-linecap="round" stroke-linejoin="round"/>
<path d="M159.773 26.2619L179.941 18.6279" stroke="#263238" stroke-linecap="round" stroke-linejoin="round"/>
<path d="M159.773 28.895L179.941 21.2656" stroke="#263238" stroke-linecap="round" stroke-linejoin="round"/>
<path d="M159.773 31.5288L179.941 23.8994" stroke="#263238" stroke-linecap="round" stroke-linejoin="round"/>
<path d="M159.773 34.1662L179.941 26.5322" stroke="#263238" stroke-linecap="round" stroke-linejoin="round"/>
<path d="M159.773 36.7995L179.941 29.1655" stroke="#263238" stroke-linecap="round" stroke-linejoin="round"/>
<path d="M159.773 39.4326L179.941 31.8032" stroke="#263238" stroke-linecap="round" stroke-linejoin="round"/>
<path d="M95.7561 18.8543C99.6235 14.4752 99.9895 8.47955 96.5734 5.4626C93.1574 2.44565 87.2529 3.54986 83.3855 7.92892C79.518 12.308 79.1521 18.3036 82.5681 21.3206C85.9842 24.3375 91.8886 23.2333 95.7561 18.8543Z" stroke="#263238" stroke-linecap="round" stroke-linejoin="round"/>
<path d="M95.9816 5.01738C94.3055 3.85419 92.057 3.43746 89.5703 4.05569V13.4207L95.9816 5.01738Z" stroke="#263238" stroke-linecap="round" stroke-linejoin="round"/>
<path d="M102.352 10.8245L113.045 6.93652" stroke="#263238" stroke-linecap="round" stroke-linejoin="round"/>
<path d="M102.352 9.17117L113.045 5.2832" stroke="#263238" stroke-linecap="round" stroke-linejoin="round"/>
<path d="M102.352 7.51785L113.045 3.62988" stroke="#263238" stroke-linecap="round" stroke-linejoin="round"/>
<path d="M49.6267 53.7888L23.7344 63.5477V39.7711L49.6267 30.0122V53.7888Z" stroke="#263238" stroke-linecap="round" stroke-linejoin="round"/>
<path d="M42.75 35.553V53.8297L47.1005 52.1902V33.9136L42.75 35.553Z" stroke="#263238" stroke-linecap="round" stroke-linejoin="round"/>
<path d="M31.8828 57.9287L36.128 56.3259V42.3311L31.8828 43.9293V57.9287Z" stroke="#263238" stroke-linecap="round" stroke-linejoin="round"/>
<path d="M41.5577 39.0156L37.3125 40.6184V55.8772L41.5577 54.279V39.0156Z" stroke="#263238" stroke-linecap="round" stroke-linejoin="round"/>
<path d="M30.6967 39.2261L26.25 40.8976V60.0489L30.6967 58.3728V39.2261Z" stroke="#263238" stroke-linecap="round" stroke-linejoin="round"/>
<path d="M23.5938 37.8015L34.2914 33.9136" stroke="#263238" stroke-linecap="round" stroke-linejoin="round"/>
<path d="M23.5938 36.1533L34.2914 32.2607" stroke="#263238" stroke-linecap="round" stroke-linejoin="round"/>
<path d="M23.5938 34.5005L34.2914 30.6079" stroke="#263238" stroke-linecap="round" stroke-linejoin="round"/>
<path d="M31.2286 133.77L11.7109 141.129V143.95L31.2286 136.596V133.77Z" stroke="#263238" stroke-linecap="round" stroke-linejoin="round"/>
<path d="M33.1429 140.483L11.7109 148.561V145.736L33.1429 137.658V140.483Z" stroke="#263238" stroke-linecap="round" stroke-linejoin="round"/>
<path d="M26.4477 144.793L11.7109 150.348V153.173L26.4477 147.619V144.793Z" stroke="#263238" stroke-linecap="round" stroke-linejoin="round"/>
<path d="M30.386 147.916L11.7109 154.959V157.78L30.386 150.741V147.916Z" stroke="#263238" stroke-linecap="round" stroke-linejoin="round"/>
<path d="M9.24219 135.844L18.0989 132.625" stroke="#263238" stroke-linecap="round" stroke-linejoin="round"/>
<path d="M9.24219 134.475L18.0989 131.256" stroke="#263238" stroke-linecap="round" stroke-linejoin="round"/>
<path d="M9.24219 133.106L18.0989 129.887" stroke="#263238" stroke-linecap="round" stroke-linejoin="round"/>
<path d="M35.3064 152.152L9.41406 161.906V138.129L35.3064 128.371V152.152Z" stroke="#263238" stroke-linecap="round" stroke-linejoin="round"/>
<path opacity="0.15" d="M139.117 67.5653L139.2 67.8583L146.806 94.085L145.767 119.016L151.317 123.787L151.578 139.435L153.437 146.598L155.823 144.738L154.495 138.373L155.026 122.464L159.537 122.991L161.923 135.987L168.288 150.838L167.748 142.884L166.159 135.19L168.014 72.6027L159.262 66.2372C159.262 66.2372 160.325 60.6686 156.876 58.2827C153.428 55.8968 149.448 56.689 148.633 59.3405C147.818 61.9921 148.372 65.9716 148.633 66.7684C148.894 67.5653 149.165 71.009 149.165 71.009L152.347 74.9886L150.493 77.1089L139.117 67.5653Z" fill="black"/>
<path d="M163.588 119.665C163.588 119.665 163.245 126.026 164.536 129.978C165.828 133.93 167.114 143.717 167.114 143.717C167.114 143.717 167.284 148.356 167.284 149.647C167.284 150.938 169.606 152.995 170.119 152.221C170.604 151.546 170.927 150.769 171.061 149.949C171.196 149.129 171.138 148.289 170.893 147.495C170.206 145.177 169.345 143.112 169.345 142.856C169.345 142.599 170.206 131.599 170.119 129.365C170.032 127.13 169.688 125.069 169.688 124.039V118.644L163.588 119.665Z" fill="white" stroke="#263238" stroke-linecap="round" stroke-linejoin="round"/>
<path d="M170.899 147.513C170.629 146.597 170.331 145.722 170.065 144.98L170.125 147.513L167.808 147.861L167.203 146.171C167.244 147.504 167.29 149.01 167.29 149.665C167.29 150.952 169.612 153.013 170.125 152.239C170.611 151.565 170.933 150.787 171.068 149.967C171.202 149.147 171.144 148.307 170.899 147.513Z" fill="#444696" stroke="#263238" stroke-linecap="round" stroke-linejoin="round"/>
<path d="M156.302 117.527C155.762 120.041 155.475 122.603 155.446 125.174C155.446 129.126 157.163 141.413 157.163 141.413C157.163 141.413 154.928 143.735 154.242 144.852C153.555 145.97 152.263 146.744 152.868 147.43C153.472 148.117 155.272 147.169 156.302 146.913C157.333 146.657 157.85 145.539 158.281 144.939C158.711 144.339 159.567 143.991 159.741 142.53C159.844 141.646 159.873 140.754 159.828 139.865C159.828 139.522 159.998 133.852 160.428 130.674C160.859 127.496 161.546 123.283 161.546 120.105C161.546 116.927 156.302 117.527 156.302 117.527Z" fill="white" stroke="#263238" stroke-linecap="round" stroke-linejoin="round"/>
<path d="M159.208 142.105C158.742 142.909 158.058 143.564 157.235 143.996L155.513 143.396H155.362C154.951 143.862 154.572 144.355 154.226 144.871C153.539 145.988 152.248 146.762 152.852 147.449C153.457 148.136 155.256 147.188 156.287 146.932C157.317 146.675 157.835 145.558 158.265 144.958C158.695 144.358 159.552 144.01 159.726 142.549C159.795 141.94 159.822 141.441 159.831 141.033C159.606 141.38 159.398 141.737 159.208 142.105Z" fill="#444696" stroke="#263238" stroke-linecap="round" stroke-linejoin="round"/>
<path d="M154.93 93.3059C154.93 93.3059 152.869 97.8624 152.869 100.784C152.869 103.706 152.352 114.939 152.352 114.939C153.814 117.482 156.126 119.428 158.882 120.435C163.608 122.239 172.46 118.8 172.46 118.8C172.46 118.8 172.803 103.175 172.46 100.34C172.117 97.5052 171.416 94.3363 171.416 94.3363L155.603 91.4146L154.93 93.3059Z" fill="#263238" stroke="#263238" stroke-linecap="round" stroke-linejoin="round"/>
<path d="M154.93 93.3058L155.182 93.5119C157.168 95.0482 159.335 96.3355 161.634 97.3449C165.586 99.0622 171.251 98.1188 171.251 98.1188L172.455 86.7755L176.407 73.2019L163.42 69.749C163.42 69.749 159.468 77.5708 158.95 79.975C158.433 82.3792 158.177 85.5619 158.09 86.2488C158.003 86.9358 154.93 93.3058 154.93 93.3058Z" fill="white" stroke="#263238" stroke-linecap="round" stroke-linejoin="round"/>
<path d="M140.903 67.9584L138.22 67.1936C138.22 67.1936 136.594 65.4717 136.388 64.7985C136.182 64.1254 135.142 63.6491 135.719 63.5575C135.957 63.5092 136.203 63.5185 136.436 63.5846C136.67 63.6508 136.884 63.7718 137.061 63.9376C137.345 64.2261 137.441 64.6108 137.73 64.7985C138.018 64.9863 138.494 64.7024 138.398 64.4185C138.302 64.1345 137.249 62.4081 137.061 62.0234C136.873 61.6387 135.815 60.7778 135.815 60.3015C135.815 59.8252 136.388 60.3015 136.773 60.4893C137.157 60.677 138.783 62.692 139.259 62.8843C139.945 63.2128 140.538 63.707 140.986 64.3223C141.351 64.9221 141.64 65.5651 141.847 66.2365L140.903 67.9584Z" fill="white" stroke="#263238" stroke-linecap="round" stroke-linejoin="round"/>
<path d="M167.116 68.8331C167.116 68.8331 159.12 68.0592 158.52 68.4027C157.921 68.7461 150.96 74.1591 150.96 74.1591L141.851 65.916L140.047 67.6333L150.273 80.9504L156.803 79.0637C156.803 79.0637 157.06 83.2722 157.234 84.646C157.408 86.0199 156.116 88.2547 155.086 90.4894C154.055 92.7242 151.129 97.6197 151.129 97.6197C151.129 97.6197 151.821 99.2545 152.503 99.685C153.185 100.115 154.564 100.889 154.564 100.889C154.564 100.889 157.485 91.8633 158.085 89.6285C158.685 87.3937 159.29 86.0199 159.377 85.0765C159.464 84.1331 164.016 73.9896 164.016 73.9896L167.116 68.8331Z" fill="#444696" stroke="#263238" stroke-linecap="round" stroke-linejoin="round"/>
<path d="M156.805 79.0451L157.922 73.2017" stroke="#808080" stroke-linecap="round" stroke-linejoin="round"/>
<path d="M164.575 68.5952C163.252 70.0412 162.114 71.6456 161.186 73.3716C159.725 76.2933 158.864 85.4889 158.951 86.3452C158.951 86.4597 158.974 86.5788 158.979 86.6887C159.167 86.1599 159.302 85.6138 159.382 85.0584C159.469 84.115 164.021 73.9715 164.021 73.9715L167.117 68.8333C167.117 68.8333 165.999 68.7097 164.575 68.5952Z" fill="#444696" stroke="#263238" stroke-linecap="round" stroke-linejoin="round"/>
<path d="M150.954 74.1455L149.406 75.1759" stroke="#808080" stroke-linecap="round" stroke-linejoin="round"/>
<path d="M165.139 65.3801C165.139 65.3801 165.922 67.4592 165.922 68.3018C165.922 69.1445 163.688 74.4017 163.688 74.4017L169.183 76.8105C169.183 76.8105 171.931 70.3626 172.018 69.5933C172.105 68.8239 171.331 66.4975 171.848 63.4064C172.366 60.3152 172.704 59.8802 171.674 59.7108C170.644 59.5413 166.431 60.2237 165.661 61.3411C165.282 61.9341 165.038 62.6038 164.948 63.3021C164.857 64.0004 164.923 64.7101 165.139 65.3801Z" fill="white" stroke="#263238" stroke-linecap="round" stroke-linejoin="round"/>
<path d="M167.712 65.4028L165.688 67.285L165.367 66.1035L167.712 65.4028Z" fill="#263238" stroke="#263238" stroke-linecap="round" stroke-linejoin="round"/>
<path d="M172.101 69.3325C172.101 69.3325 168.318 77.6672 166.771 81.1933C165.223 84.7195 164.366 86.6887 164.366 87.5496C164.366 88.4106 163.336 103.445 163.336 103.445C164.183 104.274 165.214 104.893 166.345 105.249C168.147 105.744 170.053 105.715 171.84 105.167C173.301 104.736 175.275 102.589 175.275 102.589C175.275 102.589 173.214 89.0975 173.214 88.8502C173.214 88.6029 175.362 82.4023 175.792 81.6284C176.223 80.8545 179.57 74.4111 179.744 73.8112C179.918 73.2113 172.101 69.3325 172.101 69.3325Z" fill="#444696" stroke="#263238" stroke-linecap="round" stroke-linejoin="round"/>
<path d="M166.764 81.1979C165.22 84.7195 164.359 86.6933 164.359 87.5542C166.581 85.0295 168.594 82.3278 170.377 79.476C171.988 76.6242 173.405 73.6668 174.617 70.6239C173.221 69.8958 172.09 69.3325 172.09 69.3325C172.09 69.3325 168.311 77.6672 166.764 81.1979Z" fill="#444696" stroke="#263238" stroke-linecap="round" stroke-linejoin="round"/>
<path d="M151.822 86.7754C151.822 86.7754 151.648 85.3146 151.648 84.7146C151.672 84.2926 151.789 83.8812 151.992 83.5103C152.11 84.8866 152.489 86.2279 153.109 87.4623C154.053 89.0972 154.57 90.0406 154.57 90.0406C154.57 90.0406 152.079 87.9798 151.822 86.7754Z" fill="white" stroke="#263238" stroke-linecap="round" stroke-linejoin="round"/>
<path d="M158.777 92.1883V90.2146C158.777 90.2146 156.203 89.4406 154.998 88.9232C153.794 88.4057 151.82 86.7754 151.82 86.7754C151.82 86.7754 153.107 89.8711 153.625 90.558C154.142 91.245 154.481 92.7058 154.911 93.3057C155.33 94.0744 155.675 94.8809 155.942 95.7145C156.331 96.1569 156.763 96.5589 157.233 96.9143C158.105 97.6033 159.095 98.1278 160.155 98.4622L158.694 93.5622L158.777 92.1883Z" fill="white" stroke="#263238" stroke-linecap="round" stroke-linejoin="round"/>
<path d="M162.992 92.9629H161.1L158.779 92.189L158.696 93.5628L155.257 93.3888C155.257 93.3888 154.483 93.3018 155.344 93.9063C155.932 94.3084 156.478 94.7687 156.974 95.2801C157.318 95.6236 157.748 96.3975 158.609 96.3975C159.47 96.3975 161.787 95.2801 162.305 95.2801C162.822 95.2801 164.022 94.5062 164.022 94.5062L162.992 92.9629Z" fill="white" stroke="#263238" stroke-linecap="round" stroke-linejoin="round"/>
<path d="M173.155 81.5454L174.588 90.5944L162.562 92.7055L163.249 95.4532C163.249 95.4532 179.736 95.6593 180.276 95.5723C180.816 95.4853 179.575 76.0363 179.575 76.0363C179.575 76.0363 179.662 73.6275 179.575 73.2016C179.488 72.7757 176.484 71.9102 176.484 71.9102" fill="#444696"/>
<path d="M173.155 81.5454L174.588 90.5944L162.562 92.7055L163.249 95.4532C163.249 95.4532 179.736 95.6593 180.276 95.5723C180.816 95.4853 179.575 76.0363 179.575 76.0363C179.575 76.0363 179.662 73.6275 179.575 73.2016C179.488 72.7757 176.484 71.9102 176.484 71.9102" stroke="#263238" stroke-linecap="round" stroke-linejoin="round"/>
<path d="M175.164 54.7967C175.164 54.7967 176.515 52.5391 177.646 52.2368C178.777 51.9346 180.426 52.2368 181.181 53.6107C181.937 54.9845 181.781 58.2771 181.181 59.1793C180.582 60.0814 178.924 60.3791 177.871 60.0952C176.817 59.8113 175.691 58.7213 175.54 57.7642C175.388 56.8071 175.164 54.7967 175.164 54.7967Z" fill="#263238" stroke="#263238" stroke-linecap="round" stroke-linejoin="round"/>
<path d="M170.126 64.8766C170.126 64.8766 172.91 64.6522 173.964 63.5027C175.017 62.3533 177.197 60.4207 176.446 57.0365C175.695 53.6523 173.588 52.599 171.93 51.9212C170.273 51.2435 167.809 52.2968 167.809 52.2968C167.809 52.2968 167.525 52.4525 167.127 52.7043C166.911 52.7868 166.307 53.0157 165.702 53.1989C164.951 53.4233 164.274 53.5012 164.329 54.3255C164.354 54.5167 164.443 54.6939 164.58 54.8292C164.511 54.9311 164.453 55.0401 164.406 55.1543C163.88 56.432 163.577 58.3142 163.426 58.6164C163.275 58.9187 161.695 59.1431 161.695 59.5918C161.695 60.0406 162.451 61.2496 162.451 61.2496C162.451 61.2496 162.451 65.3711 162.597 65.9115C162.744 66.4519 165.908 65.8382 165.908 65.8382L167.713 65.3803L168.271 65.1834" fill="white"/>
<path d="M170.126 64.8766C170.126 64.8766 172.91 64.6522 173.964 63.5027C175.017 62.3533 177.197 60.4207 176.446 57.0365C175.695 53.6523 173.588 52.599 171.93 51.9212C170.273 51.2435 167.809 52.2968 167.809 52.2968C167.809 52.2968 167.525 52.4525 167.127 52.7043C166.911 52.7868 166.307 53.0157 165.702 53.1989C164.951 53.4233 164.274 53.5012 164.329 54.3255C164.354 54.5167 164.443 54.6939 164.58 54.8292C164.511 54.9311 164.453 55.0401 164.406 55.1543C163.88 56.432 163.577 58.3142 163.426 58.6164C163.275 58.9187 161.695 59.1431 161.695 59.5918C161.695 60.0406 162.451 61.2496 162.451 61.2496C162.451 61.2496 162.451 65.3711 162.597 65.9115C162.744 66.4519 165.908 65.8382 165.908 65.8382L167.713 65.3803L168.271 65.1834" stroke="#263238" stroke-linecap="round" stroke-linejoin="round"/>
<path d="M168.766 64.5013C168.766 64.5013 169.791 64.6524 170.964 64.7623C171.88 64.602 173.276 64.254 173.959 63.5213C175.012 62.3947 177.192 60.4393 176.441 57.0551C175.69 53.6708 173.583 52.6176 171.925 51.9398C170.268 51.262 167.804 52.3153 167.804 52.3153C167.804 52.3153 167.52 52.471 167.121 52.7229C166.906 52.8053 166.302 53.0343 165.697 53.2175C164.946 53.4419 164.268 53.5197 164.323 54.344C164.349 54.5352 164.438 54.7124 164.575 54.8478C164.575 54.8478 164.626 55.3973 165.679 55.7637C166.19 55.9646 166.719 56.1179 167.259 56.2216C167.018 56.6843 166.886 57.1957 166.873 57.717C166.859 58.2383 166.965 58.7558 167.181 59.2303C167.595 60.1244 168.126 60.9591 168.761 61.7124C168.761 61.7124 169.677 60.4347 170.419 61.2544C170.738 61.6142 170.92 62.0748 170.933 62.5554C170.947 63.0361 170.79 63.5061 170.492 63.883C169.97 64.6524 168.766 64.5013 168.766 64.5013Z" fill="#263238" stroke="#263238" stroke-linecap="round" stroke-linejoin="round"/>
<path d="M164.587 58.8637C164.537 59.198 164.363 59.4453 164.193 59.4224C164.024 59.3995 163.932 59.1064 163.983 58.7721C164.033 58.4378 164.207 58.1905 164.372 58.2134C164.537 58.2363 164.633 58.5294 164.587 58.8637Z" fill="#263238"/>
<path d="M164.281 57.2696C164.281 57.2696 164.959 57.0864 165.147 58.1351" stroke="#263238" stroke-linecap="round" stroke-linejoin="round"/>
<path opacity="0.15" d="M64.7176 185.957L28.3291 186.644L28.5169 182.742C28.7871 181.368 29.1122 179.605 29.2221 178.506C29.4282 176.436 30.8982 165.825 31.0539 165.276C31.2096 164.726 33.0506 156.744 33.1239 156.419L34.6076 151.556C35.0655 154.606 36.4394 163.961 36.4394 166.879C36.4394 170.057 36.5951 175.841 37.63 178.849C37.685 179.005 37.7354 179.174 37.7857 179.348L37.9323 182.797L48.5063 184.171L48.7811 182.934L45.2091 180.054L44.9709 176.729C45.0671 173.065 45.2228 168.944 45.4289 167.401C45.8181 164.571 46.6012 148.854 46.6104 148.694C46.6195 148.533 45.9555 151.716 45.841 149.403C46.1136 149.249 46.3512 149.04 46.5388 148.79C46.7264 148.539 46.8599 148.252 46.931 147.947C47.0825 147.211 47.188 146.466 47.2469 145.717C47.9888 144.97 49.784 142.969 51.4555 141.028C55.577 136.201 55.577 135.647 55.577 135.463C55.577 134.438 54.0887 131.017 54.0245 130.884L47.911 117.146C47.8697 116.857 47.5904 114.888 46.8943 113.757C46.3598 113.053 45.7019 112.453 44.9526 111.985C43.4506 110.588 41.2478 108.696 40.8632 108.696C40.6342 108.646 39.5901 107.707 38.752 106.865C38.3524 106.498 37.9113 106.18 37.4377 105.917L37.7812 104.602C38.28 104.502 38.7667 104.349 39.2329 104.144C39.7961 103.865 40.1488 102.34 40.7441 99.6658L40.886 99.0384C41.1582 97.6826 41.2491 96.2966 41.1562 94.9169C41.538 94.1712 41.7831 93.3631 41.8798 92.531C41.9687 91.6929 41.9901 90.8491 41.9439 90.0077C41.8477 88.5148 40.3228 87.4752 39.4206 86.9898C38.0468 86.2571 36.215 85.7579 35.4456 86.193C34.7733 86.6357 34.2749 87.2975 34.0352 88.066H33.8428C32.5668 88.3288 31.3823 88.9226 30.4082 89.7878C30.225 89.9664 30.0281 90.1405 29.8266 90.3191C28.6039 91.3952 27.079 92.737 27.656 96.854C27.8804 98.4339 29.7121 102.13 30.2479 102.67C30.3304 102.748 30.3945 102.826 30.4632 102.903L30.28 104.14C28.6589 104.007 27.2759 104.025 26.882 104.419C26.5844 104.717 25.1144 105.266 24.2351 105.596C23.8916 105.724 23.6031 105.834 23.4383 105.903C23.2734 105.972 22.9345 106.068 22.5224 106.187C21.1485 106.572 19.0695 107.158 18.4879 107.959C17.9063 108.761 12.1865 119.261 10.1258 123.461C9.89249 123.86 9.68596 124.275 9.50753 124.702C9.4403 124.837 9.39103 124.98 9.36099 125.128C9.22157 125.496 9.18981 125.896 9.2694 126.282C9.59912 127.262 18.7535 135.972 19.4633 136.604C20.3426 137.387 21.6248 138.376 21.6385 138.385C21.6777 138.416 21.7262 138.432 21.7759 138.431H21.8309C21.8309 138.431 21.9912 138.385 22.1881 138.312L20.1823 145.332C20.173 145.371 20.1737 145.411 20.1841 145.45C20.1945 145.488 20.2143 145.523 20.2418 145.552C20.9205 146.157 21.6603 146.689 22.4491 147.141C22.4949 150.425 23.365 155.609 23.365 156.35C23.365 156.653 23.278 158.008 23.1681 159.716C22.962 163.018 22.6735 167.543 22.6735 169.53C22.6735 171.82 23.1543 178.726 23.4887 182.737L23.7955 188.288L65.5923 188.159L64.7176 185.957ZM46.3677 133.939L46.9355 134.676C46.7844 134.964 46.5554 135.404 46.2807 135.94C46.3081 135.491 46.3402 134.799 46.3677 133.939ZM17.975 125.114C18.781 124.198 19.4954 123.282 19.8571 122.778L23.0353 131.282C23.0353 131.424 23.1269 132.125 23.1681 132.945L17.975 125.114Z" fill="black"/>
<path d="M64.8668 82.9006C65.068 84.5789 65.0077 86.2782 64.6882 87.938C64.1479 90.3697 63.6991 92.6228 63.1587 92.893C62.6653 93.1004 62.1509 93.2539 61.6246 93.351L61.1666 95.0591L54.3203 93.9784L54.7783 90.9147C54.7783 90.9147 60.4522 81.9115 64.8668 82.9006Z" fill="white" stroke="#263238" stroke-linecap="round" stroke-linejoin="round"/>
<path d="M57.8516 77.2404C57.8516 77.2404 55.7954 77.6388 54.5315 78.9028C53.2676 80.1667 51.1885 81.1009 51.8433 85.772C52.0632 87.3382 53.8995 90.988 54.3758 91.4597C54.852 91.9314 54.9253 92.3298 56.4274 92.6458C57.9294 92.9617 60.4619 93.0442 60.8557 92.806C61.2496 92.5679 61.8724 91.2628 62.9028 89.921C63.9331 88.5792 64.4323 86.0147 64.4323 85.1446C64.4346 84.8991 64.5026 84.6588 64.6292 84.4485C65.1949 83.5383 65.5573 82.5167 65.6916 81.4535C65.7814 80.6294 65.8029 79.7992 65.7558 78.9715C65.6001 76.4436 60.7183 74.7034 59.5918 75.3354C58.8996 75.7702 58.3924 76.4453 58.1676 77.2313L57.8516 77.2404Z" fill="#263238" stroke="#263238" stroke-linecap="round" stroke-linejoin="round"/>
<path d="M63.4817 90.7772C63.4817 90.7772 62.868 91.4687 62.639 90.626C62.533 89.9104 62.5862 89.1802 62.7947 88.4874C62.7947 88.4874 62.7947 87.5715 63.2527 87.6448C63.7106 87.7181 63.6328 89.5544 63.6328 89.5544" fill="white"/>
<path d="M63.4817 90.7772C63.4817 90.7772 62.868 91.4687 62.639 90.626C62.533 89.9104 62.5862 89.1802 62.7947 88.4874C62.7947 88.4874 62.7947 87.5715 63.2527 87.6448C63.7106 87.7181 63.6328 89.5544 63.6328 89.5544" stroke="#263238" stroke-linecap="round" stroke-linejoin="round"/>
<path d="M34.5358 112.049C34.5358 112.049 33.162 114.311 33.4551 115.195C33.7482 116.079 42.6964 124.638 43.5803 125.425C44.4641 126.213 45.7464 127.193 45.7464 127.193C45.7464 127.193 47.3171 126.799 47.6148 125.622C47.7804 124.973 47.9118 124.316 48.0086 123.653L41.2219 113.427L38.6665 111.953" fill="#444696"/>
<path d="M34.5358 112.049C34.5358 112.049 33.162 114.311 33.4551 115.195C33.7482 116.079 42.6964 124.638 43.5803 125.425C44.4641 126.213 45.7464 127.193 45.7464 127.193C45.7464 127.193 47.3171 126.799 47.6148 125.622C47.7804 124.973 47.9118 124.316 48.0086 123.653L41.2219 113.427L38.6665 111.953" stroke="#263238" stroke-linecap="round" stroke-linejoin="round"/>
<path d="M46.6306 135.162C46.6306 135.162 46.8275 149.912 46.8275 150.796C46.8275 151.68 46.1406 160.926 46.1406 163.976C46.1406 167.026 47.0245 178.726 47.2214 180.004C47.4183 181.281 46.7314 182.857 47.6152 183.544C48.4991 184.231 50.2713 184.331 50.9582 183.544C51.6451 182.756 51.1551 179.019 51.1551 179.019C51.1551 179.019 52.039 174.898 52.2359 172.924C52.4328 170.95 53.9074 160.239 54.1043 159.643C54.3012 159.048 56.1697 150.805 56.1697 150.805L57.9419 145.003C57.9419 145.003 59.9065 157.789 59.9065 161.329C59.9065 164.869 60.1034 170.373 61.088 173.235C62.0726 176.097 62.9564 183.466 62.9564 183.466C62.9564 183.466 62.6588 186.415 62.6588 187.006C62.6588 187.596 63.4464 188.183 64.1334 188.183H65.6308C66.0812 188.044 66.5109 187.845 66.9085 187.592L69.5646 187.203C70.8423 187.006 73.1045 186.021 73.8876 185.627C74.6707 185.233 75.3668 183.956 74.973 183.956C74.5791 183.956 69.2669 182.774 68.7769 182.678L68.2824 182.577C68.2297 181.824 68.2297 181.068 68.2824 180.315C68.3831 179.431 67.8931 179.335 67.8931 177.76C67.8931 176.184 68.0854 164.681 68.4793 161.828C68.8731 158.975 69.6608 143.144 69.6608 143.144C69.6608 143.144 69.8577 138.326 69.3677 135.574C68.9993 133.701 68.4723 131.862 67.7924 130.078C67.7924 130.078 59.4348 130.568 55.0065 129.881C52.5011 129.513 50.0337 128.921 47.6335 128.114C47.6335 128.114 46.7314 132.995 46.6306 135.162Z" fill="#263238" stroke="#263238" stroke-linecap="round" stroke-linejoin="round"/>
<path d="M33.5781 114.115C33.5781 113.483 41.9173 98.0406 42.6363 97.0468C43.3553 96.0531 46.8723 95.3341 47.4997 95.0639C48.1271 94.7937 50.5634 93.9832 51.0167 93.5344C51.4701 93.0856 53.8972 93.1726 57.428 93.713C60.9588 94.2534 62.6532 95.9661 62.6532 95.9661C62.6532 95.9661 64.5445 97.8574 64.9017 97.8574C65.2589 97.8574 69.8613 101.823 70.2185 102.437C70.5756 103.051 70.3238 121.716 70.0536 125.137C69.7834 128.558 68.6798 129.552 67.9654 130.903C67.251 132.254 63.8438 138.743 63.4637 138.921C63.0836 139.1 55.7885 139.526 51.1953 138.006C46.6021 136.485 44.4086 134.37 44.4086 134.37C44.4086 134.37 46.8861 125.691 47.2433 124.432C47.6005 123.173 47.2433 120.196 47.2433 120.196L43.9094 111.28C43.9094 111.28 40.9373 115.511 39.2246 116.052" fill="#444696"/>
<path d="M33.5781 114.115C33.5781 113.483 41.9173 98.0406 42.6363 97.0468C43.3553 96.0531 46.8723 95.3341 47.4997 95.0639C48.1271 94.7937 50.5634 93.9832 51.0167 93.5344C51.4701 93.0856 53.8972 93.1726 57.428 93.713C60.9588 94.2534 62.6532 95.9661 62.6532 95.9661C62.6532 95.9661 64.5445 97.8574 64.9017 97.8574C65.2589 97.8574 69.8613 101.823 70.2185 102.437C70.5756 103.051 70.3238 121.716 70.0536 125.137C69.7834 128.558 68.6798 129.552 67.9654 130.903C67.251 132.254 63.8438 138.743 63.4637 138.921C63.0836 139.1 55.7885 139.526 51.1953 138.006C46.6021 136.485 44.4086 134.37 44.4086 134.37C44.4086 134.37 46.8861 125.691 47.2433 124.432C47.6005 123.173 47.2433 120.196 47.2433 120.196L43.9094 111.28C43.9094 111.28 40.9373 115.511 39.2246 116.052" stroke="#263238" stroke-linecap="round" stroke-linejoin="round"/>
<path d="M57.6719 122.279C58.0291 122.806 58.3954 123.31 58.7664 123.786" stroke="#263238" stroke-linecap="round" stroke-linejoin="round"/>
<path d="M51.5078 110.213C52.9988 113.97 54.7954 117.598 56.8795 121.062" stroke="#263238" stroke-linecap="round" stroke-linejoin="round"/>
<path d="M51.8984 104.452C51.8984 104.452 52.9975 109.947 54.2294 113.363" stroke="#263238" stroke-linecap="round" stroke-linejoin="round"/>
<path d="M42.1813 103.472C42.0943 102.904 42.0256 102.377 41.9844 101.915L42.1813 103.472Z" fill="white"/>
<path d="M42.1813 103.472C42.0943 102.904 42.0256 102.377 41.9844 101.915" stroke="#263238" stroke-linecap="round" stroke-linejoin="round"/>
<path d="M43.8738 111.284C43.8738 111.284 43.0816 108.23 42.5 105.331L43.8738 111.284Z" fill="white"/>
<path d="M43.8738 111.284C43.8738 111.284 43.0816 108.23 42.5 105.331" stroke="#263238" stroke-linecap="round" stroke-linejoin="round"/>
<path d="M67.3918 132.029C67.3918 132.029 65.5921 134.731 65.5921 135.088C65.5921 135.446 65.2303 136.462 65.4089 136.714C65.5875 136.966 68.6558 138.605 69.013 138.514C69.4201 138.428 69.7956 138.231 70.0978 137.945C70.4001 137.659 70.6173 137.295 70.7257 136.893C70.9131 135.941 71.034 134.977 71.0874 134.008L67.3918 132.029Z" fill="white" stroke="#263238" stroke-linecap="round" stroke-linejoin="round"/>
<path d="M65.5859 135.065C65.5859 135.065 67.7475 136.778 68.1092 136.691C68.471 136.604 67.4635 135.235 67.4635 135.235C67.4635 135.235 68.0039 135.693 67.8253 134.511" fill="white"/>
<path d="M65.5859 135.065C65.5859 135.065 67.7475 136.778 68.1092 136.691C68.471 136.604 67.4635 135.235 67.4635 135.235C67.4635 135.235 68.0039 135.693 67.8253 134.511" stroke="#263238" stroke-linecap="round" stroke-linejoin="round"/>
<path d="M68.1953 136.151L69.9996 137.14" stroke="#263238" stroke-linecap="round" stroke-linejoin="round"/>
<path d="M64.5312 115.012L71.1761 123.626C71.1761 123.626 66.7615 132.007 67.0545 133.087C67.3476 134.168 70.2968 135.157 70.8372 134.795C71.3776 134.434 79.3733 125.426 79.3733 124.437C79.3733 123.448 77.8392 119.93 77.8392 119.93L71.7164 106.146C71.7164 106.146 71.4462 103.985 70.7227 102.812C69.9991 101.64 67.3888 100.202 67.3888 100.202" fill="#444696"/>
<path d="M64.5312 115.012L71.1761 123.626C71.1761 123.626 66.7615 132.007 67.0545 133.087C67.3476 134.168 70.2968 135.157 70.8372 134.795C71.3776 134.434 79.3733 125.426 79.3733 124.437C79.3733 123.448 77.8392 119.93 77.8392 119.93L71.7164 106.146C71.7164 106.146 71.4462 103.985 70.7227 102.812C69.9991 101.64 67.3888 100.202 67.3888 100.202" stroke="#263238" stroke-linecap="round" stroke-linejoin="round"/>
<path d="M71.1719 123.626L72.7518 125.98" stroke="#263238" stroke-linecap="round" stroke-linejoin="round"/>
<path d="M65.6328 109.251C65.6328 109.251 67.6936 105.825 70.5695 105.688" stroke="#263238" stroke-linecap="round" stroke-linejoin="round"/>
<path d="M68.3789 129.739C68.3789 129.739 64.0513 135.345 63.6575 135.738C63.2637 136.132 61.7891 138.784 61.7891 138.784L64.839 140.061C64.839 140.061 66.1991 134.076 68.3789 129.739Z" fill="#8A8A8A" stroke="#263238" stroke-linecap="round" stroke-linejoin="round"/>
<path d="M49.9766 94.2487C49.9766 94.2487 57.6472 94.0518 63.1563 96.8086L49.9766 94.2487Z" fill="#444696"/>
<path d="M49.9766 94.2487C49.9766 94.2487 57.6472 94.0518 63.1563 96.8086" stroke="#263238" stroke-linecap="round" stroke-linejoin="round"/>
<path d="M113.844 159.703C113.844 159.703 112.809 162.542 110.638 162.931C108.468 163.321 104.561 159.048 107.002 156.863C109.443 154.679 112.804 158.155 113.844 159.703Z" fill="#263238" stroke="#263238" stroke-linecap="round" stroke-linejoin="round"/>
<path d="M117.192 145.768C117.192 145.768 113.987 153.64 115.26 157.51C116.533 161.379 124.552 164.223 126.873 159.19C129.195 154.157 124.034 147.059 122.097 145.511C120.16 143.963 117.838 144.476 117.192 145.768Z" fill="#263238" stroke="#263238" stroke-linecap="round" stroke-linejoin="round"/>
<path d="M136.035 149.124C136.035 149.124 130.484 154.162 129.839 159.199C129.193 164.237 132.934 166.036 136.809 165.391C140.683 164.745 142.615 154.94 141.452 150.42C140.289 145.901 136.035 149.124 136.035 149.124Z" fill="#263238" stroke="#263238" stroke-linecap="round" stroke-linejoin="round"/>
<path d="M137.07 176.995C137.07 176.995 130.879 177.256 130.618 180.224C130.357 183.191 133.329 183.837 136.296 181.254C139.264 178.671 139.648 177.128 137.07 176.995Z" fill="#263238" stroke="#263238" stroke-linecap="round" stroke-linejoin="round"/>
<path d="M121.716 183.191C121.716 183.191 121.07 186.287 118.748 187.45C116.427 188.613 112.296 186.159 114.49 182.413C116.683 178.667 120.553 181.643 121.716 183.191Z" fill="#263238" stroke="#263238" stroke-linecap="round" stroke-linejoin="round"/>
<path d="M116.29 173.515C116.29 173.515 115.132 170.932 110.612 172.599C106.092 174.266 104.292 176.858 107.127 177.765C109.961 178.671 116.29 173.515 116.29 173.515Z" fill="#263238" stroke="#263238" stroke-linecap="round" stroke-linejoin="round"/>
<path d="M129.195 142.562C129.195 142.562 129.969 144.371 131.517 143.982C133.065 143.592 133.454 141.275 135.909 141.921C138.363 142.567 140.424 145.401 140.424 144.114C140.424 142.828 137.328 139.466 133.843 139.466C130.359 139.466 129.324 140.863 129.195 142.562Z" fill="#263238" stroke="#263238" stroke-linecap="round" stroke-linejoin="round"/>
<path d="M128.997 203.405L119.728 206.812L118.547 195.079L130.183 190.77L128.997 203.405Z" fill="white" stroke="#263238" stroke-linecap="round" stroke-linejoin="round"/>
<path d="M130.183 190.77L135.207 194.415L123.571 198.72L118.547 195.079L130.183 190.77Z" fill="white" stroke="#263238" stroke-linecap="round" stroke-linejoin="round"/>
<path d="M129.874 191.525L133.721 194.319L124.164 197.868L120.312 195.074L129.874 191.525Z" fill="#263238" stroke="#263238" stroke-linecap="round" stroke-linejoin="round"/>
<path d="M122.812 162.034C122.812 162.034 125.514 169.938 126.091 176.688C126.668 183.439 126.091 194.237 126.091 194.237" stroke="#263238" stroke-linecap="round" stroke-linejoin="round"/>
<path d="M132.263 164.731C132.263 164.731 129.181 173.794 128.407 179.583C127.633 185.371 127.445 194.237 127.445 194.237" stroke="#263238" stroke-linecap="round" stroke-linejoin="round"/>
<path d="M130.726 180.929C130.726 180.929 129.375 181.318 128.602 194.429" stroke="#263238" stroke-linecap="round" stroke-linejoin="round"/>
<path d="M121.711 183.191C121.711 183.191 123.002 182.087 123.776 184.592C124.55 187.097 124.161 194.044 124.161 194.044" stroke="#263238" stroke-linecap="round" stroke-linejoin="round"/>
<path d="M125.047 181.945C126.059 187.596 125.125 193.852 125.125 193.852" stroke="#263238" stroke-linecap="round" stroke-linejoin="round"/>
<path d="M116.289 173.515C116.289 173.515 121.849 172.448 124.161 178.616C124.39 179.234 124.584 179.864 124.743 180.503" stroke="#263238" stroke-linecap="round" stroke-linejoin="round"/>
<path d="M139.477 167.534C139.477 167.534 140.64 164.956 145.155 166.619C149.67 168.281 151.479 170.877 148.64 171.78C145.801 172.682 139.477 167.534 139.477 167.534Z" fill="#263238" stroke="#263238" stroke-linecap="round" stroke-linejoin="round"/>
<path d="M134.546 168.666C133.176 169.649 132.15 171.04 131.616 172.641C129.298 178.809 129.564 194.045 129.564 194.045" stroke="#263238" stroke-linecap="round" stroke-linejoin="round"/>
<path d="M139.48 167.534C138.173 167.352 136.842 167.534 135.633 168.061" stroke="#263238" stroke-linecap="round" stroke-linejoin="round"/>
<path d="M119.922 163.628C121.37 165.378 122.479 167.383 123.192 169.54C126.278 178.41 127.437 189.786 126.855 194.031" stroke="#263238" stroke-linecap="round" stroke-linejoin="round"/>
<path d="M113.836 159.703C113.836 159.703 116.524 160.124 119.249 162.909" stroke="#263238" stroke-linecap="round" stroke-linejoin="round"/>
<path d="M127.766 171.944C127.578 183.136 127.445 194.237 127.445 194.237" stroke="#263238" stroke-linecap="round" stroke-linejoin="round"/>
<path d="M129.192 142.562C129.192 142.562 128.592 142.003 128.207 152.028C128.056 155.925 127.909 163.169 127.781 170.574" stroke="#263238" stroke-linecap="round" stroke-linejoin="round"/>
<path d="M134.013 207.05L124.744 210.457L123.562 198.72L135.199 194.416L134.013 207.05Z" fill="white" stroke="#263238" stroke-linecap="round" stroke-linejoin="round"/>
<path d="M123.571 198.72L118.547 195.08L119.728 206.812L124.752 210.457L123.571 198.72Z" fill="white" stroke="#263238" stroke-linecap="round" stroke-linejoin="round"/>
</svg>
