<svg width="208" height="177" viewBox="0 0 208 177" fill="none" xmlns="http://www.w3.org/2000/svg">
<path d="M38.839 164.31C38.839 164.31 61.6782 177.983 89.3932 166.681C117.108 155.379 127.373 130.867 142.473 112.898C150.382 103.486 162.694 98.7177 172.333 90.9831C203.127 66.2552 195.259 21.3466 169.253 7.59176C146.738 -4.31543 119.772 -2.15982 85.5953 13.6634C51.4186 29.4866 26.8138 39.541 7.29012 73.9795C-12.2336 108.418 10.5851 145.382 38.839 164.31Z" fill="#444696"/>
<path opacity="0.7" d="M38.839 164.31C38.839 164.31 61.6782 177.983 89.3932 166.681C117.108 155.379 127.373 130.867 142.473 112.898C150.382 103.486 162.694 98.7177 172.333 90.9831C203.127 66.2552 195.259 21.3466 169.253 7.59176C146.738 -4.31543 119.772 -2.15982 85.5953 13.6634C51.4186 29.4866 26.8138 39.541 7.29012 73.9795C-12.2336 108.418 10.5851 145.382 38.839 164.31Z" fill="white"/>
<path d="M193.342 126.484C191.695 126.181 189.55 128.322 188.846 129.641C188.795 129.733 188.297 130.99 188.123 131.468C188.123 131.468 188.123 131.437 188.123 131.422C188.173 129.877 188.087 128.332 187.866 126.802C187.674 125.445 187.403 124.1 187.055 122.773C186.747 121.537 186.388 120.428 186.06 119.448C185.88 118.934 185.705 118.421 185.546 117.99H185.577C185.608 117.99 185.726 115.968 185.716 115.84C185.634 114.346 184.592 111.508 182.97 111.082C182.698 111.019 182.417 111.015 182.143 111.068C181.87 111.122 181.611 111.232 181.383 111.392C181.155 111.553 180.963 111.759 180.82 111.998C180.677 112.237 180.586 112.504 180.553 112.781C180.368 113.951 181.138 115.188 181.913 115.994C182.688 116.799 184.91 117.723 185.454 117.944C185.618 118.406 185.793 118.914 185.967 119.484C186.27 120.469 186.604 121.583 186.886 122.82C186.968 123.169 187.045 123.528 187.122 123.897C186.881 123.338 186.516 122.542 186.475 122.471C185.711 121.182 183.478 119.14 181.856 119.514C181.587 119.584 181.335 119.709 181.117 119.882C180.899 120.055 180.72 120.273 180.592 120.52C180.464 120.766 180.389 121.038 180.372 121.316C180.356 121.593 180.398 121.871 180.496 122.132C180.871 123.256 182.123 124 183.185 124.354C184.248 124.708 186.711 124.508 187.25 124.452C187.394 125.216 187.527 125.991 187.62 126.843C187.804 128.35 187.856 129.87 187.774 131.386C187.774 131.478 187.774 131.57 187.774 131.663C187.702 131.375 187.184 129.764 187.132 129.656C186.516 128.291 184.52 126.017 182.852 126.207C182.576 126.247 182.311 126.344 182.075 126.493C181.839 126.641 181.637 126.838 181.482 127.07C181.327 127.302 181.223 127.564 181.176 127.839C181.129 128.113 181.14 128.395 181.209 128.665C181.461 129.82 182.626 130.718 183.642 131.165C184.807 131.704 187.635 131.709 187.748 131.709C187.62 133.217 187.395 134.715 187.076 136.195C186.845 137.293 186.563 138.396 186.28 139.5C186.178 139.125 185.695 137.632 185.649 137.529C185.033 136.164 183.037 133.89 181.369 134.08C181.092 134.12 180.828 134.217 180.592 134.366C180.356 134.514 180.154 134.711 179.999 134.943C179.844 135.175 179.74 135.437 179.693 135.712C179.646 135.987 179.657 136.268 179.726 136.539C179.978 137.693 181.143 138.592 182.159 139.043C183.273 139.556 185.911 139.582 186.265 139.587C186.137 140.1 186.003 140.583 185.865 141.086C185.423 142.718 184.972 144.355 184.576 145.982C184.438 146.542 184.315 147.096 184.202 147.65C184.027 147.075 183.688 146.069 183.688 145.987C183.067 144.622 181.071 142.348 179.403 142.543C179.137 142.581 178.881 142.673 178.652 142.814C178.423 142.954 178.225 143.14 178.07 143.359C177.915 143.579 177.807 143.828 177.752 144.091C177.697 144.354 177.696 144.626 177.75 144.889C176.344 145.335 175.312 147.691 175.153 148.995C175.153 149.041 175.153 149.354 175.153 149.713C175.051 149.2 174.958 148.656 174.876 148.117C174.65 146.624 174.465 145.099 174.276 143.575L174.152 142.615C174.696 142.441 176.693 141.758 177.453 141.076C178.212 140.393 178.992 139.32 178.884 138.248C178.87 137.995 178.803 137.748 178.688 137.523C178.573 137.298 178.411 137.1 178.214 136.942C178.017 136.783 177.789 136.667 177.545 136.602C177.301 136.537 177.045 136.524 176.796 136.564C175.297 136.852 174.183 139.361 174.014 140.711C174.014 140.757 174.014 141.096 174.014 141.481C173.901 140.655 173.773 139.834 173.624 139.023C173.374 137.622 173.032 136.24 172.597 134.886C172.916 134.788 175.163 134.054 176 133.31C176.837 132.566 177.54 131.55 177.432 130.477C177.419 130.225 177.352 129.978 177.237 129.752C177.122 129.527 176.96 129.329 176.763 129.17C176.566 129.012 176.338 128.897 176.093 128.833C175.848 128.769 175.593 128.757 175.343 128.799C173.844 129.081 172.731 131.591 172.561 132.941C172.561 133.038 172.536 134.265 172.561 134.727C172.561 134.727 172.561 134.696 172.561 134.686C172.06 133.363 171.443 132.087 170.719 130.872C170.111 129.784 169.441 128.732 168.712 127.721C168.045 126.777 167.378 125.95 166.782 125.227C166.459 124.842 166.151 124.488 165.864 124.164H165.894C165.92 124.164 165.355 122.404 165.309 122.296C164.75 121.054 162.938 118.991 161.424 119.16C161.174 119.196 160.933 119.283 160.719 119.418C160.505 119.552 160.321 119.731 160.18 119.941C160.039 120.151 159.944 120.388 159.901 120.638C159.858 120.887 159.868 121.142 159.931 121.388C160.156 122.44 161.214 123.24 162.137 123.666C163.061 124.092 165.217 124.154 165.771 124.18C166.064 124.518 166.377 124.893 166.705 125.304C167.285 126.043 167.932 126.874 168.573 127.834C168.758 128.101 168.943 128.383 169.128 128.665C168.738 128.27 168.173 127.716 168.101 127.67C167.034 126.828 164.473 125.827 163.21 126.679C163.003 126.825 162.83 127.013 162.701 127.231C162.572 127.449 162.491 127.692 162.462 127.943C162.433 128.195 162.458 128.449 162.535 128.691C162.612 128.932 162.739 129.154 162.907 129.343C163.595 130.169 164.904 130.395 165.915 130.369C166.926 130.344 168.953 129.343 169.39 129.122C169.769 129.723 170.139 130.354 170.488 131.026C171.138 132.242 171.679 133.513 172.105 134.824C172.13 134.906 172.151 134.989 172.176 135.071C172.022 134.85 171.052 133.649 170.975 133.577C170.005 132.623 167.573 131.35 166.223 132.037C166.002 132.161 165.81 132.33 165.659 132.533C165.508 132.736 165.401 132.968 165.346 133.215C165.29 133.462 165.287 133.717 165.336 133.965C165.386 134.213 165.487 134.448 165.633 134.655C166.223 135.553 167.496 135.918 168.512 135.984C169.677 136.061 172.074 135.137 172.187 135.096C172.573 136.415 172.872 137.757 173.08 139.115C173.244 140.142 173.372 141.168 173.485 142.194C173.28 141.907 172.382 140.798 172.31 140.727C171.34 139.772 168.907 138.499 167.557 139.187C167.336 139.31 167.144 139.479 166.992 139.682C166.84 139.884 166.733 140.117 166.678 140.364C166.622 140.611 166.619 140.867 166.669 141.115C166.719 141.363 166.82 141.598 166.967 141.804C167.557 142.697 168.83 143.067 169.846 143.129C170.955 143.2 173.203 142.364 173.495 142.251C173.547 142.718 173.598 143.185 173.644 143.652C173.803 145.192 173.957 146.732 174.158 148.225C174.224 148.738 174.301 149.252 174.383 149.765C174.05 149.339 173.444 148.595 173.383 148.533C172.413 147.578 169.98 146.306 168.63 146.993C168.409 147.117 168.217 147.286 168.066 147.489C167.915 147.692 167.808 147.924 167.753 148.171C167.697 148.418 167.694 148.673 167.743 148.921C167.793 149.169 167.894 149.404 168.04 149.611C168.63 150.509 169.903 150.873 170.919 150.935C171.935 150.997 173.88 150.314 174.445 150.104C174.589 150.961 174.758 151.802 174.958 152.624C175.056 152.978 175.128 153.347 175.235 153.681L175.543 154.707C175.779 155.385 175.995 156.016 176.226 156.647C176.339 156.945 176.447 157.243 176.56 157.535C176.282 157.053 175.861 156.329 175.815 156.268C174.999 155.174 172.787 153.547 171.345 154.04C171.108 154.129 170.892 154.267 170.712 154.445C170.532 154.622 170.391 154.836 170.299 155.072C170.206 155.307 170.164 155.56 170.176 155.813C170.187 156.065 170.251 156.313 170.365 156.54C170.816 157.515 172.017 158.079 173.008 158.29C173.998 158.5 176.354 158.059 176.729 157.977C177.021 158.731 177.309 159.455 177.591 160.132C177.873 160.81 178.202 161.569 178.489 162.211H176.015V163.838H176.606L177.571 175.247H185.269L186.229 163.838H186.675V162.211H184.489C184.427 161.395 184.371 160.512 184.325 159.568C184.289 158.834 184.263 158.064 184.243 157.268C184.653 157.232 187.209 156.976 188.256 156.375C189.226 155.821 190.309 154.836 190.463 153.671C190.508 153.396 190.495 153.114 190.424 152.845C190.354 152.576 190.227 152.324 190.053 152.107C189.879 151.889 189.661 151.711 189.413 151.584C189.165 151.456 188.894 151.382 188.616 151.366C186.937 151.32 185.146 153.758 184.648 155.169C184.612 155.262 184.351 156.396 184.238 156.96C184.238 156.478 184.238 155.985 184.238 155.487C184.238 154.764 184.238 154.004 184.238 153.27C184.238 152.885 184.274 152.5 184.294 152.11C184.315 151.72 184.366 151.346 184.397 150.955C184.458 150.386 184.54 149.801 184.633 149.216C185.377 149.252 187.533 149.318 188.539 148.933C189.545 148.548 190.802 147.727 191.105 146.593C191.193 146.328 191.224 146.046 191.196 145.768C191.168 145.49 191.082 145.22 190.942 144.978C190.802 144.735 190.613 144.525 190.386 144.361C190.159 144.197 189.901 144.083 189.627 144.027C187.979 143.724 185.839 145.859 185.131 147.183C185.105 147.224 184.977 147.542 184.833 147.912C184.941 147.332 185.054 146.747 185.182 146.167C185.541 144.545 185.957 142.903 186.362 141.26C186.45 140.916 186.532 140.573 186.619 140.234C187.245 140.27 189.565 140.357 190.617 139.952C191.669 139.546 192.881 138.751 193.183 137.611C193.271 137.346 193.302 137.065 193.273 136.787C193.245 136.509 193.158 136.24 193.018 135.998C192.879 135.755 192.69 135.545 192.463 135.381C192.237 135.217 191.979 135.102 191.705 135.045C190.053 134.747 187.912 136.882 187.209 138.207C187.184 138.253 187.04 138.597 186.886 138.992C187.096 138.099 187.291 137.201 187.456 136.308C187.756 134.772 187.953 133.219 188.046 131.658C188.41 131.683 191.023 131.822 192.152 131.386C193.178 130.985 194.41 130.185 194.718 129.045C194.807 128.787 194.841 128.513 194.819 128.241C194.797 127.969 194.719 127.705 194.59 127.464C194.46 127.224 194.283 127.013 194.068 126.844C193.854 126.675 193.607 126.553 193.342 126.484ZM179.562 162.19C179.22 161.451 178.847 160.64 178.443 159.758C178.171 159.147 177.899 158.505 177.622 157.838C178.523 157.393 179.382 156.867 180.188 156.268C181.203 156.609 182.245 156.863 183.303 157.027C183.303 157.915 183.303 158.772 183.339 159.593C183.365 160.527 183.401 161.395 183.442 162.201L179.562 162.19ZM183.617 150.848C183.576 151.248 183.504 151.653 183.488 152.044C183.473 152.434 183.432 152.813 183.401 153.198C183.401 153.989 183.345 154.738 183.339 155.462C183.339 155.811 183.339 156.16 183.339 156.488C183.252 155.883 183.103 154.948 183.078 154.892C182.672 153.45 181.025 150.899 179.367 150.837C179.088 150.835 178.813 150.891 178.557 151.001C178.302 151.112 178.072 151.276 177.884 151.481C177.696 151.686 177.553 151.929 177.464 152.193C177.376 152.457 177.344 152.736 177.37 153.014C177.395 153.321 177.475 153.622 177.607 153.901C177.401 154.551 177.296 155.227 177.293 155.908C177.293 156.001 177.442 157.043 177.53 157.561C177.365 157.155 177.196 156.745 177.016 156.319C176.775 155.713 176.539 155.061 176.303 154.435C176.195 154.107 176.087 153.773 175.974 153.409C175.861 153.044 175.785 152.736 175.687 152.382C175.554 151.869 175.43 151.356 175.317 150.843C175.959 150.627 177.807 149.98 178.53 149.303C179.146 148.77 179.608 148.082 179.87 147.311L180.137 147.45C181.163 147.917 183.427 147.963 184.089 147.989C183.901 148.974 183.743 149.924 183.617 150.837V150.848Z" fill="#263238"/>
<path d="M191.348 122.84C192.246 122.178 193.211 121.08 193.227 119.899C193.24 119.621 193.195 119.343 193.094 119.083C192.993 118.824 192.838 118.588 192.64 118.392C192.442 118.196 192.205 118.044 191.945 117.946C191.684 117.847 191.406 117.805 191.128 117.821C189.454 117.97 187.956 120.597 187.622 122.055C187.591 122.183 187.371 124.205 187.401 124.2C187.432 124.195 190.291 123.636 191.348 122.84Z" fill="#263238"/>
<path d="M169.473 128.804C169.473 128.804 171.726 127.367 172.373 126.361C172.917 125.504 173.399 124.262 173.004 123.256C172.925 123.016 172.795 122.795 172.625 122.608C172.454 122.421 172.246 122.272 172.014 122.171C171.782 122.07 171.532 122.018 171.279 122.021C171.026 122.023 170.776 122.078 170.546 122.183C169.175 122.85 168.765 125.571 168.96 126.915C168.975 127.028 169.447 128.819 169.473 128.804Z" fill="#263238"/>
<path d="M192.752 31.1284H85.6641V95.6787H192.752V31.1284Z" fill="white" stroke="#263238" stroke-linecap="round" stroke-linejoin="round"/>
<path d="M192.752 93.6978H85.6641V95.6789H192.752V93.6978Z" fill="white" stroke="#263238" stroke-linecap="round" stroke-linejoin="round"/>
<path d="M175.481 74.8771C175.517 74.9387 176.313 74.3125 176.354 74.3638C176.436 74.5076 173.054 77.3201 173.136 77.4433C173.316 77.7615 179.726 73.2398 179.9 73.5375C180.075 73.8352 172.161 78.7469 172.366 79.1062C172.633 79.563 181.522 73.3322 181.738 73.6966C181.953 74.061 171.858 79.6502 172.089 80.0506C172.32 80.4509 182.446 73.5016 182.698 73.9276C182.949 74.3536 171.668 80.3072 171.92 80.7794C172.171 81.2515 183.113 73.7223 183.37 74.1688C183.627 74.6153 171.596 81.9649 171.848 82.3807C172.186 82.9709 184.525 74.369 184.822 74.8874C185.12 75.4057 171.591 82.2524 171.873 82.7451C172.156 83.2378 184.802 74.5332 185.13 75.0926C185.413 75.5751 171.591 82.7502 171.925 83.3302C172.258 83.9101 185.269 74.8412 185.613 75.4263C185.957 76.0114 171.93 84.1821 172.222 84.6646C172.571 85.2651 186.285 75.765 186.624 76.3501C186.963 76.9352 172.166 84.8699 172.541 85.5166C172.915 86.1632 186.824 76.3655 187.219 77.043C187.543 77.6075 172.335 85.2035 172.628 85.727C172.987 86.348 186.999 76.6067 187.363 77.2226C187.727 77.8385 172.407 85.4344 172.746 86.0144C173.141 86.6919 187.173 76.8787 187.522 77.4844C187.825 77.9976 172.561 85.7373 172.89 86.3018C173.218 86.8664 187.358 77.1713 187.697 77.7564C188.035 78.3415 173.223 86.774 173.598 87.4258C173.921 87.9853 187.938 78.2901 188.312 78.9317C188.687 79.5732 173.711 87.3694 174.044 87.9442C174.378 88.519 188.251 78.9984 188.574 79.5578C188.897 80.1173 174.065 87.8005 174.368 88.324C174.742 88.9707 188.395 79.486 188.713 80.0403C189.031 80.5946 175.035 88.6473 175.368 89.2222C175.702 89.797 188.62 80.7126 188.99 81.3593C189.288 81.8726 175.107 88.6884 175.451 89.2786C175.794 89.8688 188.677 80.9539 189.016 81.5492C189.354 82.1446 175.204 88.8783 175.507 89.4018C175.81 89.9253 188.677 81.0103 189.021 81.6057C189.313 82.1189 176.569 89.7097 176.867 90.2281C177.165 90.7465 188.738 82.627 189.062 83.1865C189.303 83.6073 177.729 90.2281 178.001 90.6952C178.273 91.1622 188.661 83.9768 188.903 84.3977C189.144 84.8186 177.94 90.3256 178.191 90.7619C178.443 91.1981 188.569 84.0898 188.862 84.603C189.108 85.0239 180.065 90.7978 180.265 91.1417C180.465 91.4856 187.963 86.1992 188.169 86.579C188.323 86.8459 182.272 90.7927 182.415 91.0442C182.559 91.2957 186.839 88.1854 186.973 88.4164C187.034 88.519 184.196 90.377 184.268 90.4693C184.34 90.5617 185.587 89.5917 185.638 89.679C185.69 89.7662 184.571 90.2948 184.612 90.3308C184.653 90.3667 185.438 89.7611 185.479 89.8175" stroke="#263238" stroke-width="0.72" stroke-linecap="round" stroke-linejoin="round"/>
<path d="M179.119 85.804C179.379 85.7534 179.625 85.6446 179.837 85.4858C180.017 85.3445 180.169 85.1704 180.284 84.9725C180.477 84.6656 180.575 84.3085 180.566 83.9461C180.576 83.6191 180.49 83.2962 180.32 83.0171C180.145 82.7537 179.886 82.5566 179.586 82.4577C179.77 82.3736 179.935 82.2511 180.068 82.0984C180.278 81.8337 180.384 81.5015 180.366 81.1643C180.375 80.8195 180.273 80.481 180.073 80.1994C179.873 79.9651 179.619 79.7819 179.333 79.665C179.048 79.5481 178.738 79.5008 178.431 79.5271H175.352V85.8553H178.205C178.511 85.8697 178.817 85.8525 179.119 85.804ZM176.635 80.6716H178.01C178.264 80.6635 178.517 80.6964 178.759 80.7691C178.871 80.8175 178.965 80.9003 179.027 81.0055C179.089 81.1107 179.116 81.2328 179.103 81.3542C179.115 81.4617 179.096 81.5703 179.05 81.668C179.004 81.7657 178.932 81.8489 178.842 81.9085C178.639 82.0234 178.407 82.0785 178.174 82.0676H176.635V80.6716ZM176.635 84.8032V83.089H178.174C178.39 83.0838 178.604 83.1204 178.806 83.1967C178.935 83.2537 179.044 83.3495 179.116 83.4709C179.189 83.5923 179.222 83.7332 179.211 83.8742C179.229 84.0331 179.199 84.1936 179.123 84.3348C179.048 84.4759 178.932 84.5909 178.79 84.6646C178.59 84.7504 178.372 84.7891 178.154 84.7775L176.635 84.8032Z" fill="white"/>
<path d="M181.637 85.4706C182.102 85.8487 182.685 86.0521 183.285 86.0454C183.61 86.0651 183.936 86.0142 184.24 85.8964C184.543 85.7786 184.818 85.5966 185.045 85.3628C185.284 85.1366 185.444 84.8398 185.502 84.5159H184.25C184.19 84.6404 184.104 84.7506 183.998 84.8393C183.805 84.9896 183.565 85.066 183.321 85.0549C183.083 85.0619 182.848 85.0014 182.643 84.8804C182.484 84.7708 182.355 84.6222 182.27 84.4487C182.185 84.2753 182.145 84.0828 182.156 83.8898H185.563C185.576 83.5797 185.564 83.269 185.528 82.9608C185.474 82.6143 185.346 82.2835 185.153 81.9908C184.954 81.689 184.672 81.4504 184.342 81.3031C183.996 81.1508 183.621 81.0755 183.244 81.0824C182.935 81.0701 182.626 81.1211 182.338 81.2323C182.049 81.3435 181.786 81.5125 181.565 81.7291C181.34 81.9833 181.167 82.2798 181.057 82.6013C180.946 82.9229 180.901 83.2632 180.924 83.6024C180.892 83.9476 180.939 84.2956 181.063 84.6195C181.187 84.9435 181.383 85.2346 181.637 85.4706ZM182.51 82.3603C182.607 82.2674 182.722 82.1957 182.849 82.1498C182.975 82.1038 183.11 82.0846 183.244 82.0935C183.508 82.0844 183.766 82.174 183.967 82.3449C184.069 82.4395 184.151 82.5537 184.207 82.6808C184.264 82.8078 184.294 82.945 184.296 83.084H182.186C182.214 82.8134 182.329 82.5593 182.515 82.3603H182.51Z" fill="white"/>
<path d="M184.54 79.9224H181.789V80.5639H184.54V79.9224Z" fill="white"/>
<path d="M173.463 35.8705C173.499 35.9372 174.294 35.3059 174.33 35.3572C174.412 35.5061 170.876 38.5393 170.974 38.7036C171.138 38.9858 177.995 34.2281 178.159 34.5412C178.323 34.8543 170.609 38.7549 170.779 39.0526C170.948 39.3502 178.354 34.2384 178.544 34.5668C178.734 34.8953 170.224 39.5761 170.404 39.8891C170.65 40.3151 179.257 34.3 179.463 34.6592C179.668 35.0185 169.665 41.3313 169.906 41.7471C170.147 42.1628 181.008 34.6336 181.31 35.1622C181.552 35.5728 169.573 41.8343 169.855 42.3116C170.137 42.789 181.531 34.8594 181.839 35.3932C182.101 35.8448 169.573 42.9942 169.824 43.4305C170.076 43.8668 182.527 35.4086 182.824 35.9269C183.122 36.4453 169.557 43.2868 169.855 43.8052C170.153 44.3235 182.783 35.5266 183.132 36.1374C183.481 36.7481 169.614 43.7385 169.891 44.2209C170.219 44.7906 183.179 35.8397 183.481 36.3734C183.784 36.9072 169.583 43.8873 169.906 44.4519C170.23 45.0164 183.333 35.9526 183.661 36.512C183.989 37.0715 169.583 43.9797 169.937 44.5956C170.291 45.2115 183.445 36.0758 183.759 36.6147C184.072 37.1536 169.747 44.5853 170.076 45.1499C170.404 45.7144 183.877 36.4248 184.195 36.9945C184.559 37.6258 169.788 44.7187 170.101 45.2679C170.491 45.9403 183.959 36.5428 184.287 37.0817C184.616 37.6206 169.988 45.4886 170.301 46.0326C170.666 46.6691 184.446 37.015 184.816 37.6514C185.134 38.2006 170.419 46.5407 170.774 47.1515C171.128 47.7623 185.206 38.0056 185.555 38.6163C185.904 39.2271 171.097 47.6801 171.405 48.2139C171.713 48.7477 185.806 39.0526 186.176 39.689C186.545 40.3254 171.102 47.675 171.466 48.3063C171.831 48.9376 185.888 39.2219 186.217 39.7916C186.545 40.3613 171.554 48.2858 171.846 48.8041C172.195 49.4098 186.119 39.7916 186.453 40.3716C186.787 40.9516 171.975 48.7631 172.324 49.3636C172.673 49.9641 186.356 40.4948 186.694 41.0696C187.033 41.6444 172.324 49.0864 172.667 49.6972C173.011 50.3079 186.438 40.8951 186.807 41.5315C187.177 42.1679 173.412 49.9743 173.755 50.5697C174.099 51.165 186.73 42.4092 187.018 42.9121C187.305 43.4151 174.495 50.6775 174.787 51.1804C175.08 51.6834 186.74 43.5691 187.043 44.0823C187.346 44.5956 174.792 50.8314 175.059 51.2934C175.326 51.7553 186.74 43.8873 187.023 44.3851C187.305 44.883 175.731 51.2215 175.983 51.6578C176.286 52.171 186.586 44.8522 186.884 45.3654C187.131 45.7914 177.097 51.627 177.312 51.9965C177.528 52.366 186.263 46.2533 186.509 46.6845C186.694 46.9975 177.738 51.6988 177.964 52.0837C178.19 52.4687 186.053 46.9051 186.273 47.2849C186.433 47.5621 179.822 51.7553 179.991 52.053C180.161 52.3506 185.124 48.7836 185.252 49.0146C185.319 49.1275 182.46 51.2266 182.522 51.3395C182.583 51.4525 183.43 50.7339 183.466 50.7955C183.502 50.8571 182.552 51.2831 182.573 51.3088C182.593 51.3344 183.394 50.7339 183.44 50.7955" stroke="#263238" stroke-width="0.72" stroke-linecap="round" stroke-linejoin="round"/>
<path d="M177.017 48.8302H179.218V43.318H180.758L180.922 41.4703H179.218V40.4438C179.218 40.0127 179.306 39.8382 179.732 39.8382H180.928V37.9238H179.388C177.745 37.9238 177.006 38.6424 177.006 40.0281V41.496H175.852V43.3642H176.996L177.017 48.8302Z" fill="white"/>
<path d="M148.302 51.0061C148.338 51.0677 149.134 50.4364 149.175 50.4929C149.216 50.5493 146.388 52.7357 146.455 52.8486C146.604 53.1052 151.674 49.5074 151.818 49.7692C151.962 50.0309 145.413 54.0804 145.567 54.3473C145.721 54.6142 153.348 49.3432 153.568 49.7281C153.789 50.1131 144.684 55.733 144.925 56.1488C145.167 56.5645 155.19 49.6203 155.462 50.0669C155.734 50.5134 144.422 57.319 144.684 57.7655C144.946 58.212 156.704 50.1849 157.002 50.6674C157.3 51.1498 144.433 57.4883 144.684 57.9297C145.018 58.5045 156.802 50.1541 157.14 50.7443C157.402 51.2011 144.381 57.7963 144.669 58.2992C145.002 58.8792 157.12 50.3081 157.469 50.9137C157.762 51.4269 144.494 59.0845 144.771 59.5567C145.095 60.1212 158.208 51.119 158.501 51.6322C158.793 52.1455 144.787 60.46 145.1 61.0194C145.413 61.5789 159.199 52.0531 159.558 52.6741C159.856 53.1874 144.966 60.9681 145.315 61.5788C145.716 62.2717 159.625 52.5663 159.948 53.1309C160.271 53.6955 145.064 61.1939 145.428 61.856C145.793 62.5181 159.758 52.7049 160.133 53.3619C160.441 53.8751 145.177 61.4916 145.536 62.087C145.895 62.6823 159.958 52.9975 160.287 53.5723C160.615 54.1471 145.428 61.9792 145.757 62.554C146.142 63.2161 160.22 53.4183 160.559 54.0085C160.897 54.5988 145.49 62.0459 145.839 62.6721C146.188 63.2982 160.282 53.5004 160.646 54.1266C161.01 54.7528 146.275 63.2674 146.609 63.8166C146.942 64.3657 160.928 54.7989 161.252 55.3635C161.626 56.0102 146.557 63.5754 146.922 64.181C147.286 64.7866 161.077 55.1736 161.436 55.7998C161.744 56.313 147.214 64.2426 147.579 64.8739C147.943 65.5051 161.298 56.0718 161.678 56.7287C162.006 57.2984 147.579 64.5916 147.907 65.1613C148.236 65.731 161.436 56.5542 161.765 57.1496C162.093 57.7449 148.077 65.0022 148.421 65.5616C148.764 66.121 161.524 57.2266 161.857 57.8014C162.114 58.253 149.421 65.8541 149.693 66.3263C149.965 66.7985 161.554 58.6944 161.888 59.2795C162.222 59.8646 149.77 66.0081 150.083 66.5111C150.397 67.0141 161.611 59.2282 161.888 59.7004C162.165 60.1726 150.925 66.4649 151.213 66.9217C151.5 67.3785 161.39 60.3933 161.672 60.886C161.909 61.2863 151.115 66.5316 151.367 66.9679C151.618 67.4041 161.416 60.6448 161.631 61.0348C161.847 61.4249 151.495 66.6651 151.726 67.05C151.957 67.4349 161.246 60.9835 161.477 61.4043C161.672 61.738 152.065 66.7677 152.29 67.1629C152.516 67.5581 161.015 61.5173 161.282 61.974C161.472 62.3025 154.307 66.9012 154.487 67.2142C154.667 67.5273 160.107 63.6216 160.256 63.8833C160.338 64.027 156.879 66.5008 156.961 66.6343C157.043 66.7677 158.444 65.6489 158.501 65.7464C158.557 65.8439 157.022 66.5316 157.058 66.5932C157.094 66.6548 158.393 65.7002 158.449 65.7926C158.506 65.8849 157.371 66.4136 157.392 66.4546C157.413 66.4957 158.223 65.8849 158.259 65.9414" stroke="#263238" stroke-width="0.72" stroke-linecap="round" stroke-linejoin="round"/>
<path d="M148.469 61.5328C149.336 62.0911 150.34 62.3998 151.371 62.425C152.402 62.4502 153.421 62.1909 154.314 61.6755C155.207 61.1601 155.942 60.4086 156.436 59.5034C156.931 58.5982 157.166 57.5743 157.117 56.5441C157.504 56.2637 157.838 55.9161 158.102 55.5176C157.743 55.6797 157.36 55.7853 156.968 55.8307C157.382 55.5853 157.691 55.1961 157.835 54.7375C157.448 54.967 157.025 55.1284 156.583 55.2148C156.285 54.8977 155.89 54.6878 155.46 54.6177C155.03 54.5475 154.589 54.621 154.205 54.8266C153.821 55.0323 153.516 55.3588 153.336 55.7555C153.156 56.1523 153.112 56.5972 153.211 57.0214C152.426 56.9835 151.658 56.7812 150.956 56.4275C150.254 56.0739 149.634 55.5768 149.136 54.9684C148.883 55.4038 148.806 55.9193 148.921 56.4096C149.035 56.8999 149.332 57.328 149.752 57.6065C149.437 57.5979 149.129 57.5134 148.854 57.3601C148.848 57.8211 149.003 58.2697 149.293 58.6285C149.582 58.9873 149.988 59.2339 150.44 59.3258C150.148 59.4056 149.843 59.4162 149.547 59.3566C149.671 59.7507 149.917 60.0956 150.249 60.3424C150.58 60.5892 150.981 60.7256 151.394 60.7321C150.983 61.0516 150.513 61.2869 150.011 61.4243C149.509 61.5617 148.985 61.5985 148.469 61.5328Z" fill="white"/>
<path d="M124.133 35.7576C124.169 35.8192 124.96 35.1828 125.001 35.2444C125.098 35.4138 121.526 38.4675 121.624 38.6369C121.798 38.9449 128.706 34.0947 128.901 34.4335C129.096 34.7722 121.203 38.9243 121.341 39.2015C121.48 39.4786 129.291 34.0691 129.522 34.4745C129.753 34.88 120.987 39.222 121.177 39.5505C121.367 39.879 129.676 34.0793 129.902 34.5002C130.128 34.921 120.417 41.0184 120.633 41.3981C120.849 41.7779 131.488 34.4899 131.765 34.9724C132.042 35.4548 120.186 42.4144 120.474 42.9276C120.761 43.4408 132.833 35.0494 133.156 35.6037C133.479 36.158 120.269 43.8617 120.582 44.4057C120.946 45.0422 134.013 35.8243 134.372 36.4454C134.732 37.0664 120.294 43.9746 120.638 44.5956C120.982 45.2167 134.198 36.0348 134.496 36.5839C134.793 37.1331 120.279 44.0516 120.638 44.6572C120.997 45.2628 134.167 35.9681 134.547 36.625C134.845 37.1382 120.566 45.2269 120.931 45.8633C121.295 46.4998 135.045 36.8354 135.425 37.4975C135.748 38.0569 120.741 45.6632 121.121 46.3099C121.5 46.9565 135.368 37.2204 135.743 37.8671C136.061 38.4162 121.059 46.4074 121.423 47.0387C121.742 47.5878 135.825 37.8465 136.205 38.5035C136.518 39.0475 121.29 46.8231 121.629 47.4133C121.967 48.0036 136.056 38.2109 136.436 38.8679C136.744 39.4119 121.403 47.013 121.706 47.5314C122.091 48.2037 136.174 38.4111 136.508 38.9859C136.841 39.5607 122.137 48.1062 122.445 48.6246C122.753 49.143 136.713 39.5402 137.077 40.1715C137.442 40.8028 122.609 48.6348 122.927 49.1891C123.292 49.8204 136.949 40.2074 137.334 40.8746C137.657 41.4341 122.65 48.6913 122.963 49.2199C123.276 49.7486 136.99 40.2844 137.334 40.9106C137.678 41.5367 123.112 49.0557 123.492 49.6767C123.795 50.19 137.195 40.9516 137.549 41.5624C137.904 42.1731 123.446 49.338 123.8 49.9436C124.092 50.4568 137.283 41.316 137.657 41.9473C137.95 42.4606 123.523 49.3996 123.872 50.0001C124.169 50.5133 137.293 41.3776 137.673 42.0346C137.97 42.5478 124.246 49.9744 124.539 50.4876C124.893 51.1035 137.406 42.2758 137.739 42.866C138.006 43.3228 124.693 50.2875 124.98 50.7853C125.324 51.3858 137.467 42.8506 137.78 43.3895C138.093 43.9284 126.243 51.0419 126.489 51.4782C126.735 51.9145 137.324 44.534 137.621 45.0524C137.873 45.4887 126.73 51.2113 126.972 51.6476C127.264 52.1608 137.236 45.0576 137.519 45.5554C137.801 46.0532 127.793 51.4782 128.034 51.8888C128.275 52.2994 136.969 46.1918 137.2 46.5973C137.431 47.0027 129.563 51.7297 129.743 52.0171C129.923 52.3045 136.287 47.8034 136.472 48.1319C136.656 48.4603 130.379 51.7245 130.523 51.9555C130.667 52.1865 135.902 48.5271 136.04 48.7683C136.123 48.9069 133.202 51.0933 133.269 51.2062C133.336 51.3191 134.095 50.6365 134.136 50.6929" stroke="#263238" stroke-width="0.72" stroke-linecap="round" stroke-linejoin="round"/>
<path d="M126.647 41.0034H124.773V47.0494H126.647V41.0034Z" fill="white"/>
<path d="M125.702 40.2128C125.924 40.2148 126.141 40.1509 126.327 40.0292C126.512 39.9075 126.657 39.7335 126.743 39.5293C126.83 39.325 126.853 39.0997 126.811 38.882C126.769 38.6643 126.663 38.464 126.507 38.3065C126.351 38.149 126.152 38.0414 125.935 37.9974C125.717 37.9533 125.492 37.9749 125.287 38.0593C125.082 38.1436 124.906 38.287 124.783 38.4713C124.66 38.6555 124.594 38.8722 124.594 39.0939C124.593 39.2402 124.621 39.3851 124.677 39.5205C124.732 39.6559 124.813 39.7791 124.916 39.8829C125.019 39.9868 125.142 40.0695 125.277 40.126C125.411 40.1826 125.556 40.2121 125.702 40.2128Z" fill="white"/>
<path d="M129.653 43.8773C129.653 43.0253 130.043 42.5224 130.793 42.5224C131.542 42.5224 131.819 43.0048 131.819 43.8773V47.0492H133.682V43.2204C133.682 41.6037 132.764 40.8184 131.486 40.8184C131.119 40.8159 130.758 40.9092 130.438 41.0893C130.118 41.2693 129.851 41.5298 129.664 41.8449V41.0032H127.867V47.0492H129.653V43.8773Z" fill="white"/>
<path d="M129.45 74.8205C129.491 74.8924 130.282 74.256 130.318 74.3073C130.354 74.3586 128.265 75.729 128.311 75.847C128.357 75.9651 131.76 73.6195 131.863 73.794C131.965 73.9685 127.023 77.1352 127.146 77.3508C127.269 77.5664 133.592 73.1936 133.782 73.522C133.972 73.8505 126.207 78.5107 126.412 78.8649C126.617 79.219 135.24 73.2192 135.481 73.6298C135.722 74.0404 126.119 78.8084 126.314 79.142C126.566 79.5834 135.553 73.2808 135.763 73.6863C135.974 74.0917 125.945 79.0548 126.191 79.4859C126.438 79.917 135.856 73.327 136.117 73.7581C136.379 74.1892 125.606 80.7433 125.852 81.195C126.176 81.7544 137.483 73.8402 137.76 74.3227C138.037 74.8051 125.555 81.3028 125.817 81.7493C126.078 82.1958 137.924 74.0096 138.252 74.5639C138.581 75.1182 125.586 82.3138 125.847 82.7758C126.109 83.2377 138.822 74.5639 139.13 75.1079C139.438 75.652 125.693 83.3968 126.017 83.9613C126.397 84.6234 139.715 75.2362 140.069 75.8521C140.377 76.3654 125.924 84.3052 126.212 84.839C126.499 85.3728 140.362 75.9394 140.675 76.4834C140.988 77.0275 126.13 84.8903 126.468 85.4805C126.807 86.0708 140.767 76.3859 141.132 77.0172C141.496 77.6485 126.474 85.6858 126.761 86.2093C127.166 86.9125 141.234 77.0942 141.563 77.6639C141.891 78.2336 126.715 86.1067 127.028 86.6456C127.402 87.2923 141.501 77.5253 141.83 78.1001C142.158 78.675 127.32 86.9997 127.654 87.5848C128.054 88.2777 141.999 78.5672 142.317 79.1215C142.692 79.763 127.947 87.6926 128.296 88.329C128.645 88.9654 142.256 79.3678 142.666 80.0402C142.979 80.5893 128.691 88.4419 128.978 88.9398C129.322 89.5403 142.538 80.3173 142.882 80.9127C143.226 81.508 128.814 88.5292 129.127 89.0784C129.44 89.6275 142.579 80.5226 142.923 81.1129C143.215 81.6261 129.358 88.909 129.697 89.4941C130.035 90.0792 142.692 81.3284 142.979 81.8211C143.267 82.3138 130.405 89.5557 130.723 90.1048C131.041 90.654 142.738 82.5551 143.005 83.017C143.272 83.4789 131.868 90.2024 132.14 90.6848C132.412 91.1672 142.502 84.0127 142.795 84.5259C143.046 84.957 133.253 90.5719 133.495 90.9927C133.736 91.4136 142.189 85.5011 142.389 85.8603C142.589 86.2196 133.736 90.7105 133.921 91.0389C134.105 91.3674 142.009 85.8552 142.23 86.2401C142.363 86.4711 136.877 90.536 137.026 90.7926C137.175 91.0492 140.413 88.6164 140.511 88.7807C140.557 88.8577 138.458 90.187 138.53 90.2742C138.601 90.3615 139.356 89.6994 139.397 89.761" stroke="#263238" stroke-width="0.72" stroke-linecap="round" stroke-linejoin="round"/>
<path d="M134.44 78.2287C135.764 78.2287 135.918 78.2287 136.441 78.2595C136.757 78.263 137.069 78.3203 137.365 78.4289C137.579 78.5128 137.772 78.64 137.934 78.8026C138.096 78.9651 138.222 79.1595 138.305 79.3732C138.413 79.6675 138.471 79.9783 138.474 80.292C138.5 80.8052 138.505 80.9746 138.505 82.2987C138.505 83.6229 138.505 83.7769 138.474 84.3004C138.471 84.614 138.413 84.9248 138.305 85.2191C138.221 85.4348 138.094 85.6307 137.93 85.7942C137.767 85.9578 137.571 86.0853 137.355 86.1686C137.059 86.2772 136.747 86.3344 136.431 86.3379C135.918 86.3636 135.754 86.3687 134.43 86.3687C133.105 86.3687 132.946 86.3687 132.423 86.3379C132.109 86.3346 131.798 86.2773 131.504 86.1686C131.289 86.0868 131.095 85.9589 130.934 85.7939C130.768 85.6356 130.642 85.4405 130.565 85.2242C130.454 84.9304 130.395 84.6195 130.39 84.3055C130.39 83.7923 130.365 83.6229 130.365 82.3039C130.365 80.9848 130.365 80.8206 130.39 80.2971C130.395 79.983 130.454 79.6721 130.565 79.3784C130.642 79.1621 130.768 78.967 130.934 78.8087C131.095 78.6437 131.289 78.5158 131.504 78.434C131.798 78.3253 132.109 78.268 132.423 78.2647C132.936 78.239 133.105 78.2339 134.43 78.2339M134.43 77.3408C133.08 77.3408 132.916 77.3408 132.377 77.3716C131.966 77.3806 131.56 77.4587 131.176 77.6026C130.845 77.7281 130.545 77.9242 130.298 78.1774C130.044 78.4237 129.847 78.7235 129.723 79.055C129.581 79.4401 129.503 79.8458 129.492 80.256C129.492 80.7693 129.492 80.954 129.492 82.309C129.492 83.6639 129.492 83.823 129.492 84.362C129.503 84.7722 129.581 85.1779 129.723 85.5629C129.847 85.8945 130.044 86.1943 130.298 86.4406C130.545 86.6937 130.845 86.8899 131.176 87.0154C131.56 87.1593 131.966 87.2374 132.377 87.2464C132.89 87.272 133.075 87.2772 134.43 87.2772C135.785 87.2772 135.944 87.2772 136.483 87.2464C136.895 87.2373 137.302 87.1592 137.689 87.0154C138.019 86.8887 138.318 86.6927 138.566 86.4406C138.819 86.1941 139.014 85.8943 139.136 85.5629C139.28 85.1786 139.358 84.7725 139.367 84.362C139.393 83.8487 139.398 83.6639 139.398 82.309C139.398 80.954 139.398 80.7693 139.367 80.256C139.358 79.8455 139.28 79.4394 139.136 79.055C139.014 78.7237 138.819 78.4239 138.566 78.1774C138.318 77.9252 138.019 77.7292 137.689 77.6026C137.302 77.4588 136.895 77.3807 136.483 77.3716C135.969 77.3716 135.785 77.3408 134.43 77.3408Z" fill="white"/>
<path d="M134.441 79.748C133.934 79.748 133.438 79.8986 133.015 80.1805C132.593 80.4625 132.265 80.8633 132.07 81.3322C131.876 81.8011 131.825 82.3171 131.924 82.8149C132.023 83.3127 132.268 83.7699 132.627 84.1288C132.986 84.4877 133.443 84.7321 133.941 84.8311C134.438 84.9302 134.954 84.8793 135.423 84.6851C135.892 84.4909 136.293 84.162 136.575 83.74C136.857 83.3179 137.007 82.8218 137.007 82.3143C137.007 81.6337 136.737 80.9809 136.256 80.4997C135.775 80.0184 135.122 79.748 134.441 79.748ZM134.441 83.9515C134.113 83.9525 133.792 83.856 133.518 83.6742C133.245 83.4925 133.032 83.2336 132.905 82.9305C132.779 82.6274 132.746 82.2936 132.81 81.9716C132.874 81.6495 133.032 81.3537 133.264 81.1215C133.496 80.8894 133.792 80.7314 134.114 80.6676C134.436 80.6038 134.77 80.637 135.073 80.7631C135.376 80.8892 135.635 81.1025 135.817 81.3759C135.998 81.6493 136.095 81.9705 136.094 82.2989C136.094 82.7372 135.92 83.1575 135.61 83.4674C135.3 83.7774 134.88 83.9515 134.441 83.9515Z" fill="white"/>
<path d="M137.675 79.6501C137.675 79.768 137.64 79.8833 137.574 79.9814C137.509 80.0794 137.415 80.1557 137.306 80.2006C137.197 80.2455 137.077 80.257 136.962 80.2336C136.846 80.2102 136.74 80.153 136.657 80.0692C136.574 79.9854 136.518 79.8789 136.495 79.763C136.473 79.6472 136.485 79.5274 136.531 79.4187C136.577 79.31 136.654 79.2173 136.753 79.1525C136.851 79.0877 136.967 79.0537 137.085 79.0547C137.163 79.0547 137.24 79.0701 137.312 79.1001C137.384 79.1301 137.449 79.174 137.504 79.2294C137.559 79.2847 137.602 79.3504 137.632 79.4226C137.661 79.4948 137.676 79.5721 137.675 79.6501Z" fill="white"/>
<path d="M164.922 58.6846H172.189" stroke="#263238" stroke-linecap="round" stroke-linejoin="round"/>
<path d="M164.922 60.1831H172.189" stroke="#263238" stroke-linecap="round" stroke-linejoin="round"/>
<path d="M164.922 61.6763H172.189" stroke="#263238" stroke-linecap="round" stroke-linejoin="round"/>
<path d="M164.922 63.1699H172.189" stroke="#263238" stroke-linecap="round" stroke-linejoin="round"/>
<path d="M141.633 41.1675H163.641" stroke="#263238" stroke-linecap="round" stroke-linejoin="round"/>
<path d="M139.289 72.3573L145.592 66.0547" stroke="#263238" stroke-linecap="round" stroke-linejoin="round"/>
<path d="M179.242 54.4141V70.4374" stroke="#263238" stroke-linecap="round" stroke-linejoin="round"/>
<path d="M146.977 80.2612H154.239" stroke="#263238" stroke-linecap="round" stroke-linejoin="round"/>
<path d="M146.977 81.7598H154.239" stroke="#263238" stroke-linecap="round" stroke-linejoin="round"/>
<path d="M146.977 83.2534H154.239" stroke="#263238" stroke-linecap="round" stroke-linejoin="round"/>
<path d="M146.977 84.752H154.239" stroke="#263238" stroke-linecap="round" stroke-linejoin="round"/>
<path d="M125.836 54.8398H133.098" stroke="#263238" stroke-linecap="round" stroke-linejoin="round"/>
<path d="M125.836 56.3335H133.098" stroke="#263238" stroke-linecap="round" stroke-linejoin="round"/>
<path d="M125.836 57.8325H133.098" stroke="#263238" stroke-linecap="round" stroke-linejoin="round"/>
<path d="M125.836 59.3262H133.098" stroke="#263238" stroke-linecap="round" stroke-linejoin="round"/>
<path d="M160.008 43.9438H167.27" stroke="#263238" stroke-linecap="round" stroke-linejoin="round"/>
<path d="M160.008 45.4429H167.27" stroke="#263238" stroke-linecap="round" stroke-linejoin="round"/>
<path d="M160.008 46.9365H167.27" stroke="#263238" stroke-linecap="round" stroke-linejoin="round"/>
<path d="M160.008 48.4297H167.27" stroke="#263238" stroke-linecap="round" stroke-linejoin="round"/>
<path d="M161.727 83.043H168.989" stroke="#263238" stroke-linecap="round" stroke-linejoin="round"/>
<path d="M161.727 84.5361H168.989" stroke="#263238" stroke-linecap="round" stroke-linejoin="round"/>
<path d="M161.727 86.0298H168.989" stroke="#263238" stroke-linecap="round" stroke-linejoin="round"/>
<path d="M161.727 87.5283H168.989" stroke="#263238" stroke-linecap="round" stroke-linejoin="round"/>
<path d="M164.281 70.0063L158.086 70.4375V77.0583L164.922 76.6323L164.281 70.0063Z" fill="#444696"/>
<path d="M159.336 72.3314L163.324 72.0439" stroke="#263238" stroke-linecap="round" stroke-linejoin="round"/>
<path d="M159.188 74.0402L163.463 73.8965" stroke="#263238" stroke-linecap="round" stroke-linejoin="round"/>
<path d="M140.054 47.916L133.859 48.342V54.9628L140.696 54.5368L140.054 47.916Z" fill="#444696"/>
<path d="M135.102 50.2366L139.095 49.9492" stroke="#263238" stroke-linecap="round" stroke-linejoin="round"/>
<path d="M134.953 51.9455L139.228 51.8018" stroke="#263238" stroke-linecap="round" stroke-linejoin="round"/>
<path d="M129.359 67.0142L123.164 67.4402V74.0661L130 73.6401L129.359 67.0142Z" fill="#444696"/>
<path d="M124.406 69.334L128.399 69.0518" stroke="#263238" stroke-linecap="round" stroke-linejoin="round"/>
<path d="M124.266 71.0485L128.541 70.9048" stroke="#263238" stroke-linecap="round" stroke-linejoin="round"/>
<path d="M120.735 81.6729C120.735 81.6729 121.9 83.8079 121.9 84.7523C121.9 85.6967 116.47 97.4601 116.373 97.8605C116.275 98.2608 116.953 100.386 116.568 101.936C116.183 103.486 114.725 105.159 114.725 105.159L112.883 97.2087C113.477 96.5696 113.889 95.7835 114.076 94.9316C114.264 94.0797 114.221 93.1931 113.95 92.3637C112.98 89.5511 112.98 83.541 112.98 83.541L120.735 81.6729Z" fill="white" stroke="#263238" stroke-linecap="round" stroke-linejoin="round"/>
<path d="M111.332 170.068C111.332 170.068 110.85 174.99 111.235 175.283C111.62 175.575 113.601 175.529 114.966 175.283C116.829 174.944 117.845 175.365 119.206 175.365C120.566 175.365 123.471 175.734 123.779 175.113C124.374 173.923 120.833 172.783 118.892 171.623C116.952 170.463 115.115 169.488 115.115 169.488L111.332 170.068Z" fill="white" stroke="#263238" stroke-linecap="round" stroke-linejoin="round"/>
<path d="M96.5975 96.2129C96.5975 96.2129 94.8525 105.523 94.755 107.263C94.6575 109.003 89.8125 168.036 89.8125 168.036L94.2726 168.421L105.42 112.477L106.195 112.288L111.328 170.048L115.495 169.273L115.69 105.595L114.428 96.0024L96.5975 96.2129Z" fill="#263238" stroke="#263238" stroke-linecap="round" stroke-linejoin="round"/>
<path d="M101.057 66.5528C101.057 66.5528 93.3017 64.9053 91.4592 64.4228C89.6167 63.9404 89.1137 68.2978 88.5543 69.7451C87.9948 71.1925 82.4467 81.2828 82.8316 82.0629C83.2166 82.843 84.6742 84.8755 87.5842 82.8379C90.4943 80.8003 92.2342 77.4078 92.2342 77.4078C92.2342 77.4078 96.1143 88.3655 96.3093 89.623C96.5044 90.8804 95.7961 96.1206 96.3093 97.183C96.8226 98.2454 101.637 98.928 105.614 98.8305C109.592 98.733 113.949 98.6406 114.529 97.183C115.109 95.7254 114.432 84.973 114.432 84.973C114.432 84.973 120.442 83.9055 121.412 82.453C122.382 81.0005 120.252 78.9629 118.332 75.1804C116.413 71.3978 115.91 66.8453 114.452 65.9728C112.995 65.1003 103.5 66.7478 102.648 66.7478C102.111 66.7519 101.576 66.6863 101.057 66.5528Z" fill="#444696" stroke="#263238" stroke-linecap="round" stroke-linejoin="round"/>
<path d="M102.506 69.1703L103.866 72.6604L102.023 93.888L106.484 101.448L109.101 92.723L105.221 72.3678L107.356 68.2003L104.446 66.9429L102.218 68.6879L102.506 69.1703Z" fill="#263238" stroke="#263238" stroke-linecap="round" stroke-linejoin="round"/>
<path d="M98.9202 65.973L98.6328 72.178L105.125 68.9754L110.848 72.3679L107.743 65.8754C106.285 65.0794 104.656 64.6463 102.995 64.6129C101.519 64.571 100.075 65.0528 98.9202 65.973Z" fill="#444696" stroke="#263238" stroke-linecap="round" stroke-linejoin="round"/>
<path d="M100.281 59.188C100.53 60.823 100.628 62.4775 100.574 64.1305C100.476 66.8455 100.861 66.2656 102.114 68.298C103.366 70.3304 104.243 71.1106 105.311 69.9455C106.379 68.7805 106.379 66.3528 106.574 65.8755C106.769 65.3982 106.959 59.768 106.959 59.768C106.959 59.768 105.614 60.738 100.281 59.188Z" fill="white" stroke="#263238" stroke-linecap="round" stroke-linejoin="round"/>
<path d="M107.244 47.7526C108.053 50.2551 108.474 52.8671 108.491 55.4974C108.491 59.747 108.491 61.143 107.074 61.9129C105.658 62.6827 103.481 62.7443 102.162 61.9129C100.823 61.0996 99.5915 60.1201 98.4979 58.9977C97.5792 57.9968 95.0797 54.9174 94.7461 52.8388C94.4125 50.7601 98.4158 48.0913 101.747 46.7569C102.659 46.3623 103.668 46.2463 104.646 46.4235C105.624 46.6006 106.528 47.0631 107.244 47.7526Z" fill="white" stroke="#263238" stroke-linecap="round" stroke-linejoin="round"/>
<path d="M102.969 53.2701C103.061 53.7526 102.928 54.1837 102.671 54.235C102.414 54.2864 102.158 53.9322 102.04 53.4447C101.922 52.9571 102.081 52.5311 102.337 52.4798C102.594 52.4284 102.861 52.8082 102.969 53.2701Z" fill="#263238"/>
<path d="M106 52.0487C106.136 51.8518 106.332 51.7042 106.558 51.6283C106.785 51.5524 107.031 51.5523 107.257 51.6279" stroke="#263238" stroke-linecap="round" stroke-linejoin="round"/>
<path d="M106 57.8174L107.365 56.873" stroke="#263238" stroke-linecap="round" stroke-linejoin="round"/>
<path d="M100.758 52.0484C100.758 52.0484 101.179 50.5805 103.067 51.1041" stroke="#263238" stroke-linecap="round" stroke-linejoin="round"/>
<path d="M104.852 50.8939C104.852 50.8939 104.959 49.8418 106.427 49.8418" stroke="#263238" stroke-linecap="round" stroke-linejoin="round"/>
<path d="M105.219 51.9155C105.219 51.9155 106.887 54.5844 106.805 54.995C106.723 55.4056 105.055 56.5758 105.055 56.5758" stroke="#263238" stroke-linecap="round" stroke-linejoin="round"/>
<path d="M97.2486 56.832C97.4899 56.756 97.697 56.5978 97.8339 56.385C97.9708 56.1721 98.0288 55.9181 97.9979 55.667C97.9979 54.6661 97.4847 54.0862 97.4847 52.6696C97.4847 51.2531 101.899 49 104.157 49.2515C106.415 49.5029 108.489 49.5029 109.741 48.2506C110.993 46.9983 111.24 45.5869 110.742 45.6844C110.141 45.8589 109.556 46.0821 108.992 46.3516C109.189 45.4818 109.202 44.5802 109.03 43.705C108.857 42.8298 108.503 42.0005 107.991 41.2706C106.241 38.7711 105.825 40.4391 106.076 40.8548C106.328 41.2706 107.072 43.1849 107.072 43.1849C107.072 43.1849 104.326 41.1063 102.576 41.2706C100.826 41.4348 95.2469 43.9343 93.9125 45.8538C92.5781 47.7733 92.496 50.7655 92.8296 52.4335C93.1632 54.1016 94.164 54.2658 94.164 54.2658L96.412 57.0989L97.2486 56.832Z" fill="#263238" stroke="#263238" stroke-linecap="round" stroke-linejoin="round"/>
<path d="M94.2422 52.3876C94.2422 52.3876 94.5553 49.7649 96.9675 48.9232C99.3797 48.0815 101.587 48.0866 104.625 48.0866C107.663 48.0866 106.093 45.1509 104.938 44.9404" stroke="#787878" stroke-linecap="round" stroke-linejoin="round"/>
<path d="M94.0312 48.8199C94.0312 48.8199 94.5445 46.6181 99.0661 46.4077" stroke="#787878" stroke-linecap="round" stroke-linejoin="round"/>
<path d="M98.5001 57.6635C98.5001 57.6635 97.4172 55.0973 95.6671 55.8312C93.9169 56.5651 95.8313 60.0808 97.6636 59.9987C99.4958 59.9166 99.7473 58.8337 99.7473 58.8337" fill="white"/>
<path d="M98.5001 57.6635C98.5001 57.6635 97.4172 55.0973 95.6671 55.8312C93.9169 56.5651 95.8313 60.0808 97.6636 59.9987C99.4958 59.9166 99.7473 58.8337 99.7473 58.8337" stroke="#263238" stroke-linecap="round" stroke-linejoin="round"/>
<path d="M98.766 69.9812C98.766 69.9812 98.766 64.8231 99.3101 63.8223C99.8541 62.8215 101.573 62.0106 102.569 61.4665C103.565 60.9225 104.016 61.4666 103.565 62.2826C103.1 62.9798 102.552 63.6176 101.933 64.1816C101.933 64.1816 106.732 61.9182 107.183 62.5546C107.635 63.191 107.727 64.002 107.183 64.4536C106.7 64.7753 106.247 65.1394 105.828 65.5417C105.556 65.901 106.1 68.6211 105.556 69.5244C105.012 70.4277 102.569 71.4234 101.301 72.2395C100.034 73.0555 90.9802 83.0175 88.5371 84.1877C86.0941 85.3579 84.6416 86.0918 83.3739 84.4597C82.1062 82.8276 82.3782 81.2007 84.0104 79.2093C85.6425 77.2179 98.766 69.9812 98.766 69.9812Z" fill="white" stroke="#263238" stroke-linecap="round" stroke-linejoin="round"/>
<path d="M89.8116 168.036C89.8116 168.036 88.3591 170.849 87.3891 171.814C86.4191 172.778 84.4277 174.713 84.6227 175.196C84.8178 175.678 93.9432 175.196 93.9432 175.196C93.9432 175.196 94.7079 175.535 94.4564 173.271C94.3435 172.209 94.2614 168.421 94.2614 168.421L89.8116 168.036Z" fill="white" stroke="#263238" stroke-linecap="round" stroke-linejoin="round"/>
<path d="M114.428 84.9731C114.428 84.9731 114.525 74.0154 113.945 72.6553L114.428 84.9731Z" fill="white"/>
<path d="M114.428 84.9731C114.428 84.9731 114.525 74.0154 113.945 72.6553" stroke="#263238" stroke-linecap="round" stroke-linejoin="round"/>
<path d="M36.7917 172.624C36.7917 172.154 36.6523 171.695 36.3912 171.304C36.1301 170.913 35.759 170.609 35.3247 170.429C34.8905 170.249 34.4127 170.202 33.9518 170.294C33.4908 170.385 33.0674 170.612 32.7351 170.944C32.4027 171.276 32.1764 171.7 32.0847 172.161C31.993 172.622 32.0401 173.1 32.2199 173.534C32.3998 173.968 32.7044 174.339 33.0952 174.6C33.4859 174.861 33.9454 175.001 34.4154 175.001C35.0456 175.001 35.65 174.75 36.0957 174.305C36.5413 173.859 36.7917 173.255 36.7917 172.624Z" fill="#263238" stroke="#263238" stroke-linecap="round" stroke-linejoin="round"/>
<path d="M34.4173 173.815C35.0749 173.815 35.608 173.282 35.608 172.624C35.608 171.967 35.0749 171.434 34.4173 171.434C33.7597 171.434 33.2266 171.967 33.2266 172.624C33.2266 173.282 33.7597 173.815 34.4173 173.815Z" fill="white" stroke="#263238" stroke-linecap="round" stroke-linejoin="round"/>
<path d="M62.2526 172.624C62.2526 172.154 62.1132 171.695 61.8521 171.304C61.591 170.913 61.2199 170.609 60.7857 170.429C60.3515 170.249 59.8737 170.202 59.4127 170.294C58.9518 170.385 58.5283 170.612 58.196 170.944C57.8637 171.276 57.6374 171.7 57.5457 172.161C57.454 172.622 57.501 173.1 57.6809 173.534C57.8607 173.968 58.1653 174.339 58.5561 174.6C58.9469 174.861 59.4063 175.001 59.8763 175.001C60.5065 175.001 61.111 174.75 61.5566 174.305C62.0023 173.859 62.2526 173.255 62.2526 172.624Z" fill="#263238" stroke="#263238" stroke-linecap="round" stroke-linejoin="round"/>
<path d="M61.0689 172.624C61.0699 172.388 61.001 172.158 60.8708 171.961C60.7405 171.765 60.5549 171.611 60.3374 171.52C60.12 171.429 59.8804 171.405 59.6491 171.45C59.4178 171.496 59.2051 171.609 59.0381 171.775C58.871 171.941 58.7571 172.154 58.7108 172.385C58.6644 172.616 58.6877 172.856 58.7776 173.073C58.8676 173.291 59.0202 173.478 59.2162 173.609C59.4121 173.74 59.6425 173.81 59.8782 173.81C60.1931 173.81 60.4952 173.685 60.7184 173.463C60.9415 173.241 61.0676 172.939 61.0689 172.624Z" fill="white" stroke="#263238" stroke-linecap="round" stroke-linejoin="round"/>
<path d="M68.1966 175.001C69.509 175.001 70.5729 173.937 70.5729 172.624C70.5729 171.312 69.509 170.248 68.1966 170.248C66.8842 170.248 65.8203 171.312 65.8203 172.624C65.8203 173.937 66.8842 175.001 68.1966 175.001Z" fill="#263238" stroke="#263238" stroke-linecap="round" stroke-linejoin="round"/>
<path d="M68.1985 173.815C68.8562 173.815 69.3893 173.282 69.3893 172.624C69.3893 171.967 68.8562 171.434 68.1985 171.434C67.5409 171.434 67.0078 171.967 67.0078 172.624C67.0078 173.282 67.5409 173.815 68.1985 173.815Z" fill="white" stroke="#263238" stroke-linecap="round" stroke-linejoin="round"/>
<path d="M51.1817 135.266H56.1704V169.884H51.1406V135.286L51.1817 135.266Z" fill="#263238" stroke="#263238" stroke-linecap="round" stroke-linejoin="round"/>
<path d="M57.5241 151.725H49.8203V169.904H57.5241V151.725Z" fill="#263238" stroke="#263238" stroke-linecap="round" stroke-linejoin="round"/>
<path d="M42.0781 117.107H48.5655V130.939H42.0987V117.107H42.0781Z" fill="#263238" stroke="#263238" stroke-linecap="round" stroke-linejoin="round"/>
<path d="M58.0404 117.112H32.8916C32.303 117.112 31.7204 116.994 31.1781 116.765C30.6357 116.536 30.1446 116.201 29.7334 115.78C29.3222 115.359 28.9994 114.86 28.7837 114.312C28.5681 113.764 28.4641 113.179 28.4778 112.591L29.0628 88.0165C29.0897 86.8652 29.566 85.77 30.3899 84.9652C31.2138 84.1605 32.3199 83.7101 33.4716 83.7105H54.2578C55.3123 83.7094 56.3322 84.0862 57.1326 84.7727C57.933 85.4591 58.4608 86.4097 58.6204 87.452L62.4235 112.031C62.5208 112.662 62.4801 113.306 62.3042 113.919C62.1283 114.532 61.8214 115.1 61.4047 115.583C60.9879 116.066 60.4713 116.453 59.8905 116.717C59.3096 116.981 58.6784 117.116 58.0404 117.112Z" fill="#444696" stroke="#263238" stroke-linecap="round" stroke-linejoin="round"/>
<path d="M49.8184 136.164L38.7734 143.436" stroke="#263238" stroke-linecap="round" stroke-linejoin="round"/>
<path d="M38.3559 142.338L36.4723 143.606C36.321 143.708 36.1943 143.843 36.1013 144.001C36.0084 144.158 35.9515 144.334 35.9348 144.516C35.9182 144.699 35.9421 144.882 36.0048 145.054C36.0676 145.226 36.1677 145.381 36.2978 145.51L36.4313 145.633C36.6476 145.846 36.9352 145.971 37.2386 145.985C37.542 145.998 37.8395 145.898 38.0736 145.705L39.8033 144.278C39.9331 144.172 40.0394 144.04 40.1156 143.89C40.1917 143.741 40.236 143.577 40.2457 143.41C40.2553 143.243 40.2301 143.075 40.1716 142.918C40.1131 142.761 40.0227 142.617 39.9059 142.497C39.707 142.293 39.443 142.166 39.1597 142.137C38.8765 142.108 38.592 142.179 38.3559 142.338Z" fill="#263238" stroke="#263238" stroke-linecap="round" stroke-linejoin="round"/>
<path d="M74.3204 129.522H33.0404C30.9513 129.522 29.2578 131.216 29.2578 133.305V133.644C29.2578 135.733 30.9513 137.426 33.0404 137.426H74.3204C76.4094 137.426 78.103 135.733 78.103 133.644V133.305C78.103 131.216 76.4094 129.522 74.3204 129.522Z" fill="#444696" stroke="#263238" stroke-linecap="round" stroke-linejoin="round"/>
<path d="M78.0704 132.992C77.9278 132.012 77.4315 131.118 76.6751 130.479C75.9187 129.839 74.9545 129.499 73.9645 129.522H52.7677C51.7779 129.5 50.8144 129.841 50.0582 130.48C49.3021 131.119 48.8054 132.012 48.6617 132.992C48.5942 133.547 48.6452 134.11 48.8114 134.643C48.9776 135.177 49.2551 135.67 49.6257 136.088C49.9964 136.507 50.4516 136.842 50.9613 137.072C51.4711 137.302 52.0238 137.421 52.5829 137.421H74.139C74.699 137.422 75.2528 137.304 75.7638 137.075C76.2748 136.846 76.7313 136.511 77.103 136.092C77.4748 135.674 77.7532 135.18 77.92 134.646C78.0868 134.111 78.1381 133.547 78.0704 132.992Z" fill="#444696" stroke="#263238" stroke-linecap="round" stroke-linejoin="round"/>
<path d="M34.0791 169.186H69.2925C69.837 169.186 70.3592 169.402 70.7442 169.787C71.1292 170.172 71.3455 170.694 71.3455 171.239V171.341H32.0313V171.239C32.0312 170.695 32.2468 170.174 32.6307 169.789C33.0146 169.404 33.5355 169.187 34.0791 169.186Z" fill="#263238" stroke="#263238" stroke-linecap="round" stroke-linejoin="round"/>
<path d="M51.5391 169.186H62.2812C62.8257 169.186 63.3479 169.402 63.7329 169.787C64.1179 170.172 64.3342 170.694 64.3342 171.239V171.341H51.5391V169.191V169.186Z" fill="#263238" stroke="#263238" stroke-linecap="round" stroke-linejoin="round"/>
<path d="M83.3071 112.272H50.7266V113.586H83.3071V112.272Z" fill="white" stroke="#263238" stroke-linecap="round" stroke-linejoin="round"/>
<path d="M92.4946 112.272H59.9141V113.586H92.4946V112.272Z" fill="white" stroke="#263238" stroke-linecap="round" stroke-linejoin="round"/>
<path d="M88.8663 89.1919H61.6953V109.932H88.8663V89.1919Z" fill="white" stroke="#263238" stroke-linecap="round" stroke-linejoin="round"/>
<path d="M89.9913 89.1919H62.8203V109.932H89.9913V89.1919Z" fill="#263238" stroke="#263238" stroke-linecap="round" stroke-linejoin="round"/>
<path d="M81.6671 100.293H74.6562V113.586H81.6671V100.293Z" fill="white" stroke="#263238" stroke-linecap="round" stroke-linejoin="round"/>
<path d="M37.9428 112.519C38.1307 112.519 38.3112 112.445 38.4455 112.314C38.5798 112.182 38.6573 112.003 38.6614 111.816L38.8256 104.261L42.4183 94.935L50.9843 98.2711C51.157 98.3169 51.3407 98.2972 51.4997 98.2157C51.6588 98.1342 51.7821 97.9967 51.8459 97.8297C51.9096 97.6627 51.9093 97.478 51.845 97.3112C51.7806 97.1444 51.6569 97.0074 51.4975 96.9264L42.2592 93.3337C42.0814 93.2618 41.8826 93.2618 41.7049 93.3337C41.618 93.3716 41.5396 93.4266 41.4744 93.4954C41.4091 93.5641 41.3584 93.6453 41.3251 93.734L37.445 103.85C37.4144 103.927 37.3988 104.009 37.3988 104.091L37.2345 111.79C37.2325 111.884 37.2491 111.978 37.2833 112.066C37.3175 112.154 37.3688 112.234 37.4341 112.302C37.4994 112.371 37.5774 112.425 37.6639 112.463C37.7503 112.501 37.8433 112.522 37.9377 112.524L37.9428 112.519Z" fill="#263238"/>
<path d="M33.228 113.166H42.6562V110.44H33.228V113.166Z" fill="#263238" stroke="#263238" stroke-linecap="round" stroke-linejoin="round"/>
<path d="M40.3125 94.0006C40.3125 93.6686 40.4109 93.3442 40.5953 93.0682C40.7798 92.7922 41.0419 92.5771 41.3485 92.45C41.6552 92.323 41.9927 92.2898 42.3182 92.3545C42.6438 92.4193 42.9428 92.5791 43.1775 92.8138C43.4123 93.0485 43.5721 93.3476 43.6368 93.6731C43.7016 93.9987 43.6684 94.3362 43.5413 94.6428C43.4143 94.9495 43.1992 95.2116 42.9232 95.396C42.6472 95.5804 42.3227 95.6789 41.9908 95.6789C41.5457 95.6789 41.1188 95.502 40.8041 95.1873C40.4893 94.8726 40.3125 94.4457 40.3125 94.0006Z" fill="#263238"/>
<path d="M36.5 104.512C36.5 104.18 36.5984 103.856 36.7829 103.58C36.9673 103.304 37.2294 103.089 37.536 102.962C37.8427 102.835 38.1802 102.801 38.5057 102.866C38.8313 102.931 39.1303 103.091 39.365 103.326C39.5998 103.56 39.7596 103.859 39.8244 104.185C39.8891 104.51 39.8559 104.848 39.7288 105.155C39.6018 105.461 39.3867 105.723 39.1107 105.908C38.8347 106.092 38.5102 106.191 38.1783 106.191C37.9577 106.191 37.7392 106.148 37.5352 106.064C37.3313 105.98 37.146 105.857 36.9901 105.701C36.8341 105.545 36.7105 105.359 36.6264 105.155C36.5423 104.951 36.4993 104.733 36.5 104.512Z" fill="#263238"/>
<path d="M51.7775 96.0383L58.1006 95.6431L54.1486 104.327L50.2891 99.2973L51.7775 96.0383Z" fill="#263238"/>
<path d="M28.2422 121.146L29.6485 174.339C29.6578 174.677 29.7988 174.998 30.0413 175.234C30.2838 175.47 30.6087 175.601 30.947 175.601C31.2892 175.601 31.6177 175.467 31.8616 175.227C32.1055 174.987 32.2452 174.66 32.2506 174.318L32.9435 121.146H28.2422Z" fill="white" stroke="#263238" stroke-linecap="round" stroke-linejoin="round"/>
<path d="M45.4297 121.146L46.836 174.339C46.8453 174.677 46.9863 174.998 47.2288 175.234C47.4713 175.47 47.7962 175.601 48.1345 175.601C48.4767 175.601 48.8052 175.467 49.0491 175.227C49.293 174.987 49.4327 174.66 49.4381 174.318L50.131 121.146H45.4297Z" fill="white" stroke="#263238" stroke-linecap="round" stroke-linejoin="round"/>
<path d="M116.312 121.146L117.724 174.339C117.733 174.677 117.874 174.998 118.117 175.234C118.359 175.47 118.684 175.601 119.022 175.601C119.364 175.601 119.692 175.467 119.935 175.226C120.178 174.986 120.317 174.66 120.321 174.318L121.019 121.146H116.312Z" fill="white" stroke="#263238" stroke-linecap="round" stroke-linejoin="round"/>
<path d="M133.5 121.146L134.911 174.339C134.921 174.677 135.062 174.998 135.304 175.234C135.547 175.47 135.872 175.601 136.21 175.601C136.552 175.601 136.88 175.467 137.123 175.226C137.366 174.986 137.504 174.66 137.508 174.318L138.206 121.146H133.5Z" fill="white" stroke="#263238" stroke-linecap="round" stroke-linejoin="round"/>
<path d="M139.771 115.337H26.5703V121.701H139.771V115.337Z" fill="white" stroke="#263238" stroke-linecap="round" stroke-linejoin="round"/>
<path d="M50.2564 115.337H26.5703V121.701H50.2564V115.337Z" fill="white" stroke="#263238" stroke-linecap="round" stroke-linejoin="round"/>
<path d="M139.771 115.337H26.5703V118.519H139.771V115.337Z" fill="#263238" stroke="#263238" stroke-linecap="round" stroke-linejoin="round"/>
<path d="M141.086 113.145H25.2578V116.65H141.086V113.145Z" fill="white" stroke="#263238" stroke-linecap="round" stroke-linejoin="round"/>
<path d="M141.081 113.145H51.8281V116.65H141.081V113.145Z" fill="white" stroke="#263238" stroke-linecap="round" stroke-linejoin="round"/>
<path d="M59.8339 57.1164C62.7484 50.003 59.3446 41.8738 52.2312 38.9592C45.1178 36.0447 36.9886 39.4486 34.0741 46.562C31.1596 53.6754 34.5634 61.8046 41.6768 64.7191C48.7902 67.6336 56.9194 64.2297 59.8339 57.1164Z" stroke="#263238" stroke-linecap="round" stroke-linejoin="round"/>
<path d="M48.7879 63.2321C55.0761 62.2193 59.3527 56.3006 58.3398 50.0124C57.327 43.7242 51.4083 39.4477 45.1201 40.4605C38.832 41.4734 34.5554 47.392 35.5683 53.6802C36.5811 59.9684 42.4998 64.2449 48.7879 63.2321Z" stroke="#263238" stroke-linecap="round" stroke-linejoin="round"/>
<path d="M39.6016 51.8438H46.9563V62.4576" stroke="#263238" stroke-linecap="round" stroke-linejoin="round"/>
<path d="M0.679688 175.514H207.002" stroke="#263238" stroke-linecap="round" stroke-linejoin="round"/>
</svg>
